<?xml version="1.0" encoding="utf-8" standalone="no"?>
<!DOCTYPE svg PUBLIC "-//W3C//DTD SVG 1.1//EN"
  "http://www.w3.org/Graphics/SVG/1.1/DTD/svg11.dtd">
<!-- Created with matplotlib (https://matplotlib.org/) -->
<svg height="504pt" version="1.1" viewBox="0 0 864 504" width="864pt" xmlns="http://www.w3.org/2000/svg" xmlns:xlink="http://www.w3.org/1999/xlink">
 <metadata>
  <rdf:RDF xmlns:cc="http://creativecommons.org/ns#" xmlns:dc="http://purl.org/dc/elements/1.1/" xmlns:rdf="http://www.w3.org/1999/02/22-rdf-syntax-ns#">
   <cc:Work>
    <dc:type rdf:resource="http://purl.org/dc/dcmitype/StillImage"/>
    <dc:date>2022-12-18T16:28:27.937379</dc:date>
    <dc:format>image/svg+xml</dc:format>
    <dc:creator>
     <cc:Agent>
      <dc:title>Matplotlib v3.3.2, https://matplotlib.org/</dc:title>
     </cc:Agent>
    </dc:creator>
   </cc:Work>
  </rdf:RDF>
 </metadata>
 <defs>
  <style type="text/css">*{stroke-linecap:butt;stroke-linejoin:round;}</style>
 </defs>
 <g id="figure_1">
  <g id="patch_1">
   <path d="M 0 504 
L 864 504 
L 864 0 
L 0 0 
z
" style="fill:#ffffff;"/>
  </g>
  <g id="axes_1">
   <g id="patch_2">
    <path d="M 50.8 242.657273 
L 853.2 242.657273 
L 853.2 42.914545 
L 50.8 42.914545 
z
" style="fill:#eaeaea;"/>
   </g>
   <g id="matplotlib.axis_1">
    <g id="xtick_1">
     <g id="line2d_1">
      <path clip-path="url(#p361abf788e)" d="M 111.587879 242.657273 
L 111.587879 42.914545 
" style="fill:none;stroke:#ffffff;stroke-linecap:square;stroke-width:0.8;"/>
     </g>
     <g id="line2d_2">
      <defs>
       <path d="M 0 0 
L 0 3.5 
" id="m21b3462591" style="stroke:#555555;stroke-width:0.8;"/>
      </defs>
      <g>
       <use style="fill:#555555;stroke:#555555;stroke-width:0.8;" x="111.587879" xlink:href="#m21b3462591" y="242.657273"/>
      </g>
     </g>
    </g>
    <g id="xtick_2">
     <g id="line2d_3">
      <path clip-path="url(#p361abf788e)" d="M 196.690909 242.657273 
L 196.690909 42.914545 
" style="fill:none;stroke:#ffffff;stroke-linecap:square;stroke-width:0.8;"/>
     </g>
     <g id="line2d_4">
      <g>
       <use style="fill:#555555;stroke:#555555;stroke-width:0.8;" x="196.690909" xlink:href="#m21b3462591" y="242.657273"/>
      </g>
     </g>
    </g>
    <g id="xtick_3">
     <g id="line2d_5">
      <path clip-path="url(#p361abf788e)" d="M 281.793939 242.657273 
L 281.793939 42.914545 
" style="fill:none;stroke:#ffffff;stroke-linecap:square;stroke-width:0.8;"/>
     </g>
     <g id="line2d_6">
      <g>
       <use style="fill:#555555;stroke:#555555;stroke-width:0.8;" x="281.793939" xlink:href="#m21b3462591" y="242.657273"/>
      </g>
     </g>
    </g>
    <g id="xtick_4">
     <g id="line2d_7">
      <path clip-path="url(#p361abf788e)" d="M 366.89697 242.657273 
L 366.89697 42.914545 
" style="fill:none;stroke:#ffffff;stroke-linecap:square;stroke-width:0.8;"/>
     </g>
     <g id="line2d_8">
      <g>
       <use style="fill:#555555;stroke:#555555;stroke-width:0.8;" x="366.89697" xlink:href="#m21b3462591" y="242.657273"/>
      </g>
     </g>
    </g>
    <g id="xtick_5">
     <g id="line2d_9">
      <path clip-path="url(#p361abf788e)" d="M 452 242.657273 
L 452 42.914545 
" style="fill:none;stroke:#ffffff;stroke-linecap:square;stroke-width:0.8;"/>
     </g>
     <g id="line2d_10">
      <g>
       <use style="fill:#555555;stroke:#555555;stroke-width:0.8;" x="452" xlink:href="#m21b3462591" y="242.657273"/>
      </g>
     </g>
    </g>
    <g id="xtick_6">
     <g id="line2d_11">
      <path clip-path="url(#p361abf788e)" d="M 537.10303 242.657273 
L 537.10303 42.914545 
" style="fill:none;stroke:#ffffff;stroke-linecap:square;stroke-width:0.8;"/>
     </g>
     <g id="line2d_12">
      <g>
       <use style="fill:#555555;stroke:#555555;stroke-width:0.8;" x="537.10303" xlink:href="#m21b3462591" y="242.657273"/>
      </g>
     </g>
    </g>
    <g id="xtick_7">
     <g id="line2d_13">
      <path clip-path="url(#p361abf788e)" d="M 622.206061 242.657273 
L 622.206061 42.914545 
" style="fill:none;stroke:#ffffff;stroke-linecap:square;stroke-width:0.8;"/>
     </g>
     <g id="line2d_14">
      <g>
       <use style="fill:#555555;stroke:#555555;stroke-width:0.8;" x="622.206061" xlink:href="#m21b3462591" y="242.657273"/>
      </g>
     </g>
    </g>
    <g id="xtick_8">
     <g id="line2d_15">
      <path clip-path="url(#p361abf788e)" d="M 707.309091 242.657273 
L 707.309091 42.914545 
" style="fill:none;stroke:#ffffff;stroke-linecap:square;stroke-width:0.8;"/>
     </g>
     <g id="line2d_16">
      <g>
       <use style="fill:#555555;stroke:#555555;stroke-width:0.8;" x="707.309091" xlink:href="#m21b3462591" y="242.657273"/>
      </g>
     </g>
    </g>
    <g id="xtick_9">
     <g id="line2d_17">
      <path clip-path="url(#p361abf788e)" d="M 792.412121 242.657273 
L 792.412121 42.914545 
" style="fill:none;stroke:#ffffff;stroke-linecap:square;stroke-width:0.8;"/>
     </g>
     <g id="line2d_18">
      <g>
       <use style="fill:#555555;stroke:#555555;stroke-width:0.8;" x="792.412121" xlink:href="#m21b3462591" y="242.657273"/>
      </g>
     </g>
    </g>
    <g id="xtick_10">
     <g id="line2d_19">
      <defs>
       <path d="M 0 0 
L 0 2 
" id="mdeb65597df" style="stroke:#555555;stroke-width:0.6;"/>
      </defs>
      <g>
       <use style="fill:#555555;stroke:#555555;stroke-width:0.6;" x="50.8" xlink:href="#mdeb65597df" y="242.657273"/>
      </g>
     </g>
    </g>
    <g id="xtick_11">
     <g id="line2d_20">
      <g>
       <use style="fill:#555555;stroke:#555555;stroke-width:0.6;" x="62.957576" xlink:href="#mdeb65597df" y="242.657273"/>
      </g>
     </g>
    </g>
    <g id="xtick_12">
     <g id="line2d_21">
      <g>
       <use style="fill:#555555;stroke:#555555;stroke-width:0.6;" x="75.115152" xlink:href="#mdeb65597df" y="242.657273"/>
      </g>
     </g>
    </g>
    <g id="xtick_13">
     <g id="line2d_22">
      <g>
       <use style="fill:#555555;stroke:#555555;stroke-width:0.6;" x="87.272727" xlink:href="#mdeb65597df" y="242.657273"/>
      </g>
     </g>
    </g>
    <g id="xtick_14">
     <g id="line2d_23">
      <g>
       <use style="fill:#555555;stroke:#555555;stroke-width:0.6;" x="99.430303" xlink:href="#mdeb65597df" y="242.657273"/>
      </g>
     </g>
    </g>
    <g id="xtick_15">
     <g id="line2d_24">
      <g>
       <use style="fill:#555555;stroke:#555555;stroke-width:0.6;" x="123.745455" xlink:href="#mdeb65597df" y="242.657273"/>
      </g>
     </g>
    </g>
    <g id="xtick_16">
     <g id="line2d_25">
      <g>
       <use style="fill:#555555;stroke:#555555;stroke-width:0.6;" x="135.90303" xlink:href="#mdeb65597df" y="242.657273"/>
      </g>
     </g>
    </g>
    <g id="xtick_17">
     <g id="line2d_26">
      <g>
       <use style="fill:#555555;stroke:#555555;stroke-width:0.6;" x="148.060606" xlink:href="#mdeb65597df" y="242.657273"/>
      </g>
     </g>
    </g>
    <g id="xtick_18">
     <g id="line2d_27">
      <g>
       <use style="fill:#555555;stroke:#555555;stroke-width:0.6;" x="160.218182" xlink:href="#mdeb65597df" y="242.657273"/>
      </g>
     </g>
    </g>
    <g id="xtick_19">
     <g id="line2d_28">
      <g>
       <use style="fill:#555555;stroke:#555555;stroke-width:0.6;" x="172.375758" xlink:href="#mdeb65597df" y="242.657273"/>
      </g>
     </g>
    </g>
    <g id="xtick_20">
     <g id="line2d_29">
      <g>
       <use style="fill:#555555;stroke:#555555;stroke-width:0.6;" x="184.533333" xlink:href="#mdeb65597df" y="242.657273"/>
      </g>
     </g>
    </g>
    <g id="xtick_21">
     <g id="line2d_30">
      <g>
       <use style="fill:#555555;stroke:#555555;stroke-width:0.6;" x="208.848485" xlink:href="#mdeb65597df" y="242.657273"/>
      </g>
     </g>
    </g>
    <g id="xtick_22">
     <g id="line2d_31">
      <g>
       <use style="fill:#555555;stroke:#555555;stroke-width:0.6;" x="221.006061" xlink:href="#mdeb65597df" y="242.657273"/>
      </g>
     </g>
    </g>
    <g id="xtick_23">
     <g id="line2d_32">
      <g>
       <use style="fill:#555555;stroke:#555555;stroke-width:0.6;" x="233.163636" xlink:href="#mdeb65597df" y="242.657273"/>
      </g>
     </g>
    </g>
    <g id="xtick_24">
     <g id="line2d_33">
      <g>
       <use style="fill:#555555;stroke:#555555;stroke-width:0.6;" x="245.321212" xlink:href="#mdeb65597df" y="242.657273"/>
      </g>
     </g>
    </g>
    <g id="xtick_25">
     <g id="line2d_34">
      <g>
       <use style="fill:#555555;stroke:#555555;stroke-width:0.6;" x="257.478788" xlink:href="#mdeb65597df" y="242.657273"/>
      </g>
     </g>
    </g>
    <g id="xtick_26">
     <g id="line2d_35">
      <g>
       <use style="fill:#555555;stroke:#555555;stroke-width:0.6;" x="269.636364" xlink:href="#mdeb65597df" y="242.657273"/>
      </g>
     </g>
    </g>
    <g id="xtick_27">
     <g id="line2d_36">
      <g>
       <use style="fill:#555555;stroke:#555555;stroke-width:0.6;" x="293.951515" xlink:href="#mdeb65597df" y="242.657273"/>
      </g>
     </g>
    </g>
    <g id="xtick_28">
     <g id="line2d_37">
      <g>
       <use style="fill:#555555;stroke:#555555;stroke-width:0.6;" x="306.109091" xlink:href="#mdeb65597df" y="242.657273"/>
      </g>
     </g>
    </g>
    <g id="xtick_29">
     <g id="line2d_38">
      <g>
       <use style="fill:#555555;stroke:#555555;stroke-width:0.6;" x="318.266667" xlink:href="#mdeb65597df" y="242.657273"/>
      </g>
     </g>
    </g>
    <g id="xtick_30">
     <g id="line2d_39">
      <g>
       <use style="fill:#555555;stroke:#555555;stroke-width:0.6;" x="330.424242" xlink:href="#mdeb65597df" y="242.657273"/>
      </g>
     </g>
    </g>
    <g id="xtick_31">
     <g id="line2d_40">
      <g>
       <use style="fill:#555555;stroke:#555555;stroke-width:0.6;" x="342.581818" xlink:href="#mdeb65597df" y="242.657273"/>
      </g>
     </g>
    </g>
    <g id="xtick_32">
     <g id="line2d_41">
      <g>
       <use style="fill:#555555;stroke:#555555;stroke-width:0.6;" x="354.739394" xlink:href="#mdeb65597df" y="242.657273"/>
      </g>
     </g>
    </g>
    <g id="xtick_33">
     <g id="line2d_42">
      <g>
       <use style="fill:#555555;stroke:#555555;stroke-width:0.6;" x="379.054545" xlink:href="#mdeb65597df" y="242.657273"/>
      </g>
     </g>
    </g>
    <g id="xtick_34">
     <g id="line2d_43">
      <g>
       <use style="fill:#555555;stroke:#555555;stroke-width:0.6;" x="391.212121" xlink:href="#mdeb65597df" y="242.657273"/>
      </g>
     </g>
    </g>
    <g id="xtick_35">
     <g id="line2d_44">
      <g>
       <use style="fill:#555555;stroke:#555555;stroke-width:0.6;" x="403.369697" xlink:href="#mdeb65597df" y="242.657273"/>
      </g>
     </g>
    </g>
    <g id="xtick_36">
     <g id="line2d_45">
      <g>
       <use style="fill:#555555;stroke:#555555;stroke-width:0.6;" x="415.527273" xlink:href="#mdeb65597df" y="242.657273"/>
      </g>
     </g>
    </g>
    <g id="xtick_37">
     <g id="line2d_46">
      <g>
       <use style="fill:#555555;stroke:#555555;stroke-width:0.6;" x="427.684848" xlink:href="#mdeb65597df" y="242.657273"/>
      </g>
     </g>
    </g>
    <g id="xtick_38">
     <g id="line2d_47">
      <g>
       <use style="fill:#555555;stroke:#555555;stroke-width:0.6;" x="439.842424" xlink:href="#mdeb65597df" y="242.657273"/>
      </g>
     </g>
    </g>
    <g id="xtick_39">
     <g id="line2d_48">
      <g>
       <use style="fill:#555555;stroke:#555555;stroke-width:0.6;" x="464.157576" xlink:href="#mdeb65597df" y="242.657273"/>
      </g>
     </g>
    </g>
    <g id="xtick_40">
     <g id="line2d_49">
      <g>
       <use style="fill:#555555;stroke:#555555;stroke-width:0.6;" x="476.315152" xlink:href="#mdeb65597df" y="242.657273"/>
      </g>
     </g>
    </g>
    <g id="xtick_41">
     <g id="line2d_50">
      <g>
       <use style="fill:#555555;stroke:#555555;stroke-width:0.6;" x="488.472727" xlink:href="#mdeb65597df" y="242.657273"/>
      </g>
     </g>
    </g>
    <g id="xtick_42">
     <g id="line2d_51">
      <g>
       <use style="fill:#555555;stroke:#555555;stroke-width:0.6;" x="500.630303" xlink:href="#mdeb65597df" y="242.657273"/>
      </g>
     </g>
    </g>
    <g id="xtick_43">
     <g id="line2d_52">
      <g>
       <use style="fill:#555555;stroke:#555555;stroke-width:0.6;" x="512.787879" xlink:href="#mdeb65597df" y="242.657273"/>
      </g>
     </g>
    </g>
    <g id="xtick_44">
     <g id="line2d_53">
      <g>
       <use style="fill:#555555;stroke:#555555;stroke-width:0.6;" x="524.945455" xlink:href="#mdeb65597df" y="242.657273"/>
      </g>
     </g>
    </g>
    <g id="xtick_45">
     <g id="line2d_54">
      <g>
       <use style="fill:#555555;stroke:#555555;stroke-width:0.6;" x="549.260606" xlink:href="#mdeb65597df" y="242.657273"/>
      </g>
     </g>
    </g>
    <g id="xtick_46">
     <g id="line2d_55">
      <g>
       <use style="fill:#555555;stroke:#555555;stroke-width:0.6;" x="561.418182" xlink:href="#mdeb65597df" y="242.657273"/>
      </g>
     </g>
    </g>
    <g id="xtick_47">
     <g id="line2d_56">
      <g>
       <use style="fill:#555555;stroke:#555555;stroke-width:0.6;" x="573.575758" xlink:href="#mdeb65597df" y="242.657273"/>
      </g>
     </g>
    </g>
    <g id="xtick_48">
     <g id="line2d_57">
      <g>
       <use style="fill:#555555;stroke:#555555;stroke-width:0.6;" x="585.733333" xlink:href="#mdeb65597df" y="242.657273"/>
      </g>
     </g>
    </g>
    <g id="xtick_49">
     <g id="line2d_58">
      <g>
       <use style="fill:#555555;stroke:#555555;stroke-width:0.6;" x="597.890909" xlink:href="#mdeb65597df" y="242.657273"/>
      </g>
     </g>
    </g>
    <g id="xtick_50">
     <g id="line2d_59">
      <g>
       <use style="fill:#555555;stroke:#555555;stroke-width:0.6;" x="610.048485" xlink:href="#mdeb65597df" y="242.657273"/>
      </g>
     </g>
    </g>
    <g id="xtick_51">
     <g id="line2d_60">
      <g>
       <use style="fill:#555555;stroke:#555555;stroke-width:0.6;" x="634.363636" xlink:href="#mdeb65597df" y="242.657273"/>
      </g>
     </g>
    </g>
    <g id="xtick_52">
     <g id="line2d_61">
      <g>
       <use style="fill:#555555;stroke:#555555;stroke-width:0.6;" x="646.521212" xlink:href="#mdeb65597df" y="242.657273"/>
      </g>
     </g>
    </g>
    <g id="xtick_53">
     <g id="line2d_62">
      <g>
       <use style="fill:#555555;stroke:#555555;stroke-width:0.6;" x="658.678788" xlink:href="#mdeb65597df" y="242.657273"/>
      </g>
     </g>
    </g>
    <g id="xtick_54">
     <g id="line2d_63">
      <g>
       <use style="fill:#555555;stroke:#555555;stroke-width:0.6;" x="670.836364" xlink:href="#mdeb65597df" y="242.657273"/>
      </g>
     </g>
    </g>
    <g id="xtick_55">
     <g id="line2d_64">
      <g>
       <use style="fill:#555555;stroke:#555555;stroke-width:0.6;" x="682.993939" xlink:href="#mdeb65597df" y="242.657273"/>
      </g>
     </g>
    </g>
    <g id="xtick_56">
     <g id="line2d_65">
      <g>
       <use style="fill:#555555;stroke:#555555;stroke-width:0.6;" x="695.151515" xlink:href="#mdeb65597df" y="242.657273"/>
      </g>
     </g>
    </g>
    <g id="xtick_57">
     <g id="line2d_66">
      <g>
       <use style="fill:#555555;stroke:#555555;stroke-width:0.6;" x="719.466667" xlink:href="#mdeb65597df" y="242.657273"/>
      </g>
     </g>
    </g>
    <g id="xtick_58">
     <g id="line2d_67">
      <g>
       <use style="fill:#555555;stroke:#555555;stroke-width:0.6;" x="731.624242" xlink:href="#mdeb65597df" y="242.657273"/>
      </g>
     </g>
    </g>
    <g id="xtick_59">
     <g id="line2d_68">
      <g>
       <use style="fill:#555555;stroke:#555555;stroke-width:0.6;" x="743.781818" xlink:href="#mdeb65597df" y="242.657273"/>
      </g>
     </g>
    </g>
    <g id="xtick_60">
     <g id="line2d_69">
      <g>
       <use style="fill:#555555;stroke:#555555;stroke-width:0.6;" x="755.939394" xlink:href="#mdeb65597df" y="242.657273"/>
      </g>
     </g>
    </g>
    <g id="xtick_61">
     <g id="line2d_70">
      <g>
       <use style="fill:#555555;stroke:#555555;stroke-width:0.6;" x="768.09697" xlink:href="#mdeb65597df" y="242.657273"/>
      </g>
     </g>
    </g>
    <g id="xtick_62">
     <g id="line2d_71">
      <g>
       <use style="fill:#555555;stroke:#555555;stroke-width:0.6;" x="780.254545" xlink:href="#mdeb65597df" y="242.657273"/>
      </g>
     </g>
    </g>
    <g id="xtick_63">
     <g id="line2d_72">
      <g>
       <use style="fill:#555555;stroke:#555555;stroke-width:0.6;" x="804.569697" xlink:href="#mdeb65597df" y="242.657273"/>
      </g>
     </g>
    </g>
    <g id="xtick_64">
     <g id="line2d_73">
      <g>
       <use style="fill:#555555;stroke:#555555;stroke-width:0.6;" x="816.727273" xlink:href="#mdeb65597df" y="242.657273"/>
      </g>
     </g>
    </g>
    <g id="xtick_65">
     <g id="line2d_74">
      <g>
       <use style="fill:#555555;stroke:#555555;stroke-width:0.6;" x="828.884848" xlink:href="#mdeb65597df" y="242.657273"/>
      </g>
     </g>
    </g>
    <g id="xtick_66">
     <g id="line2d_75">
      <g>
       <use style="fill:#555555;stroke:#555555;stroke-width:0.6;" x="841.042424" xlink:href="#mdeb65597df" y="242.657273"/>
      </g>
     </g>
    </g>
    <g id="xtick_67">
     <g id="line2d_76">
      <g>
       <use style="fill:#555555;stroke:#555555;stroke-width:0.6;" x="853.2" xlink:href="#mdeb65597df" y="242.657273"/>
      </g>
     </g>
    </g>
   </g>
   <g id="matplotlib.axis_2">
    <g id="ytick_1">
     <g id="line2d_77">
      <path clip-path="url(#p361abf788e)" d="M 50.8 242.657273 
L 853.2 242.657273 
" style="fill:none;stroke:#ffffff;stroke-linecap:square;stroke-width:0.8;"/>
     </g>
     <g id="line2d_78">
      <defs>
       <path d="M 0 0 
L -3.5 0 
" id="m32c42b4129" style="stroke:#555555;stroke-width:0.8;"/>
      </defs>
      <g>
       <use style="fill:#555555;stroke:#555555;stroke-width:0.8;" x="50.8" xlink:href="#m32c42b4129" y="242.657273"/>
      </g>
     </g>
     <g id="text_1">
      <!-- 0.0 -->
      <g style="fill:#555555;" transform="translate(27.896875 246.456491)scale(0.1 -0.1)">
       <defs>
        <path d="M 31.78125 66.40625 
Q 24.171875 66.40625 20.328125 58.90625 
Q 16.5 51.421875 16.5 36.375 
Q 16.5 21.390625 20.328125 13.890625 
Q 24.171875 6.390625 31.78125 6.390625 
Q 39.453125 6.390625 43.28125 13.890625 
Q 47.125 21.390625 47.125 36.375 
Q 47.125 51.421875 43.28125 58.90625 
Q 39.453125 66.40625 31.78125 66.40625 
z
M 31.78125 74.21875 
Q 44.046875 74.21875 50.515625 64.515625 
Q 56.984375 54.828125 56.984375 36.375 
Q 56.984375 17.96875 50.515625 8.265625 
Q 44.046875 -1.421875 31.78125 -1.421875 
Q 19.53125 -1.421875 13.0625 8.265625 
Q 6.59375 17.96875 6.59375 36.375 
Q 6.59375 54.828125 13.0625 64.515625 
Q 19.53125 74.21875 31.78125 74.21875 
z
" id="DejaVuSans-48"/>
        <path d="M 10.6875 12.40625 
L 21 12.40625 
L 21 0 
L 10.6875 0 
z
" id="DejaVuSans-46"/>
       </defs>
       <use xlink:href="#DejaVuSans-48"/>
       <use x="63.623047" xlink:href="#DejaVuSans-46"/>
       <use x="95.410156" xlink:href="#DejaVuSans-48"/>
      </g>
     </g>
    </g>
    <g id="ytick_2">
     <g id="line2d_79">
      <path clip-path="url(#p361abf788e)" d="M 50.8 176.076364 
L 853.2 176.076364 
" style="fill:none;stroke:#ffffff;stroke-linecap:square;stroke-width:0.8;"/>
     </g>
     <g id="line2d_80">
      <g>
       <use style="fill:#555555;stroke:#555555;stroke-width:0.8;" x="50.8" xlink:href="#m32c42b4129" y="176.076364"/>
      </g>
     </g>
     <g id="text_2">
      <!-- 0.2 -->
      <g style="fill:#555555;" transform="translate(27.896875 179.875582)scale(0.1 -0.1)">
       <defs>
        <path d="M 19.1875 8.296875 
L 53.609375 8.296875 
L 53.609375 0 
L 7.328125 0 
L 7.328125 8.296875 
Q 12.9375 14.109375 22.625 23.890625 
Q 32.328125 33.6875 34.8125 36.53125 
Q 39.546875 41.84375 41.421875 45.53125 
Q 43.3125 49.21875 43.3125 52.78125 
Q 43.3125 58.59375 39.234375 62.25 
Q 35.15625 65.921875 28.609375 65.921875 
Q 23.96875 65.921875 18.8125 64.3125 
Q 13.671875 62.703125 7.8125 59.421875 
L 7.8125 69.390625 
Q 13.765625 71.78125 18.9375 73 
Q 24.125 74.21875 28.421875 74.21875 
Q 39.75 74.21875 46.484375 68.546875 
Q 53.21875 62.890625 53.21875 53.421875 
Q 53.21875 48.921875 51.53125 44.890625 
Q 49.859375 40.875 45.40625 35.40625 
Q 44.1875 33.984375 37.640625 27.21875 
Q 31.109375 20.453125 19.1875 8.296875 
z
" id="DejaVuSans-50"/>
       </defs>
       <use xlink:href="#DejaVuSans-48"/>
       <use x="63.623047" xlink:href="#DejaVuSans-46"/>
       <use x="95.410156" xlink:href="#DejaVuSans-50"/>
      </g>
     </g>
    </g>
    <g id="ytick_3">
     <g id="line2d_81">
      <path clip-path="url(#p361abf788e)" d="M 50.8 109.495455 
L 853.2 109.495455 
" style="fill:none;stroke:#ffffff;stroke-linecap:square;stroke-width:0.8;"/>
     </g>
     <g id="line2d_82">
      <g>
       <use style="fill:#555555;stroke:#555555;stroke-width:0.8;" x="50.8" xlink:href="#m32c42b4129" y="109.495455"/>
      </g>
     </g>
     <g id="text_3">
      <!-- 0.4 -->
      <g style="fill:#555555;" transform="translate(27.896875 113.294673)scale(0.1 -0.1)">
       <defs>
        <path d="M 37.796875 64.3125 
L 12.890625 25.390625 
L 37.796875 25.390625 
z
M 35.203125 72.90625 
L 47.609375 72.90625 
L 47.609375 25.390625 
L 58.015625 25.390625 
L 58.015625 17.1875 
L 47.609375 17.1875 
L 47.609375 0 
L 37.796875 0 
L 37.796875 17.1875 
L 4.890625 17.1875 
L 4.890625 26.703125 
z
" id="DejaVuSans-52"/>
       </defs>
       <use xlink:href="#DejaVuSans-48"/>
       <use x="63.623047" xlink:href="#DejaVuSans-46"/>
       <use x="95.410156" xlink:href="#DejaVuSans-52"/>
      </g>
     </g>
    </g>
    <g id="ytick_4">
     <g id="line2d_83">
      <path clip-path="url(#p361abf788e)" d="M 50.8 42.914545 
L 853.2 42.914545 
" style="fill:none;stroke:#ffffff;stroke-linecap:square;stroke-width:0.8;"/>
     </g>
     <g id="line2d_84">
      <g>
       <use style="fill:#555555;stroke:#555555;stroke-width:0.8;" x="50.8" xlink:href="#m32c42b4129" y="42.914545"/>
      </g>
     </g>
     <g id="text_4">
      <!-- 0.6 -->
      <g style="fill:#555555;" transform="translate(27.896875 46.713764)scale(0.1 -0.1)">
       <defs>
        <path d="M 33.015625 40.375 
Q 26.375 40.375 22.484375 35.828125 
Q 18.609375 31.296875 18.609375 23.390625 
Q 18.609375 15.53125 22.484375 10.953125 
Q 26.375 6.390625 33.015625 6.390625 
Q 39.65625 6.390625 43.53125 10.953125 
Q 47.40625 15.53125 47.40625 23.390625 
Q 47.40625 31.296875 43.53125 35.828125 
Q 39.65625 40.375 33.015625 40.375 
z
M 52.59375 71.296875 
L 52.59375 62.3125 
Q 48.875 64.0625 45.09375 64.984375 
Q 41.3125 65.921875 37.59375 65.921875 
Q 27.828125 65.921875 22.671875 59.328125 
Q 17.53125 52.734375 16.796875 39.40625 
Q 19.671875 43.65625 24.015625 45.921875 
Q 28.375 48.1875 33.59375 48.1875 
Q 44.578125 48.1875 50.953125 41.515625 
Q 57.328125 34.859375 57.328125 23.390625 
Q 57.328125 12.15625 50.6875 5.359375 
Q 44.046875 -1.421875 33.015625 -1.421875 
Q 20.359375 -1.421875 13.671875 8.265625 
Q 6.984375 17.96875 6.984375 36.375 
Q 6.984375 53.65625 15.1875 63.9375 
Q 23.390625 74.21875 37.203125 74.21875 
Q 40.921875 74.21875 44.703125 73.484375 
Q 48.484375 72.75 52.59375 71.296875 
z
" id="DejaVuSans-54"/>
       </defs>
       <use xlink:href="#DejaVuSans-48"/>
       <use x="63.623047" xlink:href="#DejaVuSans-46"/>
       <use x="95.410156" xlink:href="#DejaVuSans-54"/>
      </g>
     </g>
    </g>
    <g id="ytick_5">
     <g id="line2d_85">
      <defs>
       <path d="M 0 0 
L -2 0 
" id="m255dafd77d" style="stroke:#555555;stroke-width:0.6;"/>
      </defs>
      <g>
       <use style="fill:#555555;stroke:#555555;stroke-width:0.6;" x="50.8" xlink:href="#m255dafd77d" y="209.366818"/>
      </g>
     </g>
    </g>
    <g id="ytick_6">
     <g id="line2d_86">
      <g>
       <use style="fill:#555555;stroke:#555555;stroke-width:0.6;" x="50.8" xlink:href="#m255dafd77d" y="142.785909"/>
      </g>
     </g>
    </g>
    <g id="ytick_7">
     <g id="line2d_87">
      <g>
       <use style="fill:#555555;stroke:#555555;stroke-width:0.6;" x="50.8" xlink:href="#m255dafd77d" y="76.205"/>
      </g>
     </g>
    </g>
    <g id="text_5">
     <!-- Median sentiment score / trailer -->
     <g style="fill:#555555;" transform="translate(21.40125 238.695909)rotate(-90)scale(0.12 -0.12)">
      <defs>
       <path d="M 9.8125 72.90625 
L 24.515625 72.90625 
L 43.109375 23.296875 
L 61.8125 72.90625 
L 76.515625 72.90625 
L 76.515625 0 
L 66.890625 0 
L 66.890625 64.015625 
L 48.09375 14.015625 
L 38.1875 14.015625 
L 19.390625 64.015625 
L 19.390625 0 
L 9.8125 0 
z
" id="DejaVuSans-77"/>
       <path d="M 56.203125 29.59375 
L 56.203125 25.203125 
L 14.890625 25.203125 
Q 15.484375 15.921875 20.484375 11.0625 
Q 25.484375 6.203125 34.421875 6.203125 
Q 39.59375 6.203125 44.453125 7.46875 
Q 49.3125 8.734375 54.109375 11.28125 
L 54.109375 2.78125 
Q 49.265625 0.734375 44.1875 -0.34375 
Q 39.109375 -1.421875 33.890625 -1.421875 
Q 20.796875 -1.421875 13.15625 6.1875 
Q 5.515625 13.8125 5.515625 26.8125 
Q 5.515625 40.234375 12.765625 48.109375 
Q 20.015625 56 32.328125 56 
Q 43.359375 56 49.78125 48.890625 
Q 56.203125 41.796875 56.203125 29.59375 
z
M 47.21875 32.234375 
Q 47.125 39.59375 43.09375 43.984375 
Q 39.0625 48.390625 32.421875 48.390625 
Q 24.90625 48.390625 20.390625 44.140625 
Q 15.875 39.890625 15.1875 32.171875 
z
" id="DejaVuSans-101"/>
       <path d="M 45.40625 46.390625 
L 45.40625 75.984375 
L 54.390625 75.984375 
L 54.390625 0 
L 45.40625 0 
L 45.40625 8.203125 
Q 42.578125 3.328125 38.25 0.953125 
Q 33.9375 -1.421875 27.875 -1.421875 
Q 17.96875 -1.421875 11.734375 6.484375 
Q 5.515625 14.40625 5.515625 27.296875 
Q 5.515625 40.1875 11.734375 48.09375 
Q 17.96875 56 27.875 56 
Q 33.9375 56 38.25 53.625 
Q 42.578125 51.265625 45.40625 46.390625 
z
M 14.796875 27.296875 
Q 14.796875 17.390625 18.875 11.75 
Q 22.953125 6.109375 30.078125 6.109375 
Q 37.203125 6.109375 41.296875 11.75 
Q 45.40625 17.390625 45.40625 27.296875 
Q 45.40625 37.203125 41.296875 42.84375 
Q 37.203125 48.484375 30.078125 48.484375 
Q 22.953125 48.484375 18.875 42.84375 
Q 14.796875 37.203125 14.796875 27.296875 
z
" id="DejaVuSans-100"/>
       <path d="M 9.421875 54.6875 
L 18.40625 54.6875 
L 18.40625 0 
L 9.421875 0 
z
M 9.421875 75.984375 
L 18.40625 75.984375 
L 18.40625 64.59375 
L 9.421875 64.59375 
z
" id="DejaVuSans-105"/>
       <path d="M 34.28125 27.484375 
Q 23.390625 27.484375 19.1875 25 
Q 14.984375 22.515625 14.984375 16.5 
Q 14.984375 11.71875 18.140625 8.90625 
Q 21.296875 6.109375 26.703125 6.109375 
Q 34.1875 6.109375 38.703125 11.40625 
Q 43.21875 16.703125 43.21875 25.484375 
L 43.21875 27.484375 
z
M 52.203125 31.203125 
L 52.203125 0 
L 43.21875 0 
L 43.21875 8.296875 
Q 40.140625 3.328125 35.546875 0.953125 
Q 30.953125 -1.421875 24.3125 -1.421875 
Q 15.921875 -1.421875 10.953125 3.296875 
Q 6 8.015625 6 15.921875 
Q 6 25.140625 12.171875 29.828125 
Q 18.359375 34.515625 30.609375 34.515625 
L 43.21875 34.515625 
L 43.21875 35.40625 
Q 43.21875 41.609375 39.140625 45 
Q 35.0625 48.390625 27.6875 48.390625 
Q 23 48.390625 18.546875 47.265625 
Q 14.109375 46.140625 10.015625 43.890625 
L 10.015625 52.203125 
Q 14.9375 54.109375 19.578125 55.046875 
Q 24.21875 56 28.609375 56 
Q 40.484375 56 46.34375 49.84375 
Q 52.203125 43.703125 52.203125 31.203125 
z
" id="DejaVuSans-97"/>
       <path d="M 54.890625 33.015625 
L 54.890625 0 
L 45.90625 0 
L 45.90625 32.71875 
Q 45.90625 40.484375 42.875 44.328125 
Q 39.84375 48.1875 33.796875 48.1875 
Q 26.515625 48.1875 22.3125 43.546875 
Q 18.109375 38.921875 18.109375 30.90625 
L 18.109375 0 
L 9.078125 0 
L 9.078125 54.6875 
L 18.109375 54.6875 
L 18.109375 46.1875 
Q 21.34375 51.125 25.703125 53.5625 
Q 30.078125 56 35.796875 56 
Q 45.21875 56 50.046875 50.171875 
Q 54.890625 44.34375 54.890625 33.015625 
z
" id="DejaVuSans-110"/>
       <path id="DejaVuSans-32"/>
       <path d="M 44.28125 53.078125 
L 44.28125 44.578125 
Q 40.484375 46.53125 36.375 47.5 
Q 32.28125 48.484375 27.875 48.484375 
Q 21.1875 48.484375 17.84375 46.4375 
Q 14.5 44.390625 14.5 40.28125 
Q 14.5 37.15625 16.890625 35.375 
Q 19.28125 33.59375 26.515625 31.984375 
L 29.59375 31.296875 
Q 39.15625 29.25 43.1875 25.515625 
Q 47.21875 21.78125 47.21875 15.09375 
Q 47.21875 7.46875 41.1875 3.015625 
Q 35.15625 -1.421875 24.609375 -1.421875 
Q 20.21875 -1.421875 15.453125 -0.5625 
Q 10.6875 0.296875 5.421875 2 
L 5.421875 11.28125 
Q 10.40625 8.6875 15.234375 7.390625 
Q 20.0625 6.109375 24.8125 6.109375 
Q 31.15625 6.109375 34.5625 8.28125 
Q 37.984375 10.453125 37.984375 14.40625 
Q 37.984375 18.0625 35.515625 20.015625 
Q 33.0625 21.96875 24.703125 23.78125 
L 21.578125 24.515625 
Q 13.234375 26.265625 9.515625 29.90625 
Q 5.8125 33.546875 5.8125 39.890625 
Q 5.8125 47.609375 11.28125 51.796875 
Q 16.75 56 26.8125 56 
Q 31.78125 56 36.171875 55.265625 
Q 40.578125 54.546875 44.28125 53.078125 
z
" id="DejaVuSans-115"/>
       <path d="M 18.3125 70.21875 
L 18.3125 54.6875 
L 36.8125 54.6875 
L 36.8125 47.703125 
L 18.3125 47.703125 
L 18.3125 18.015625 
Q 18.3125 11.328125 20.140625 9.421875 
Q 21.96875 7.515625 27.59375 7.515625 
L 36.8125 7.515625 
L 36.8125 0 
L 27.59375 0 
Q 17.1875 0 13.234375 3.875 
Q 9.28125 7.765625 9.28125 18.015625 
L 9.28125 47.703125 
L 2.6875 47.703125 
L 2.6875 54.6875 
L 9.28125 54.6875 
L 9.28125 70.21875 
z
" id="DejaVuSans-116"/>
       <path d="M 52 44.1875 
Q 55.375 50.25 60.0625 53.125 
Q 64.75 56 71.09375 56 
Q 79.640625 56 84.28125 50.015625 
Q 88.921875 44.046875 88.921875 33.015625 
L 88.921875 0 
L 79.890625 0 
L 79.890625 32.71875 
Q 79.890625 40.578125 77.09375 44.375 
Q 74.3125 48.1875 68.609375 48.1875 
Q 61.625 48.1875 57.5625 43.546875 
Q 53.515625 38.921875 53.515625 30.90625 
L 53.515625 0 
L 44.484375 0 
L 44.484375 32.71875 
Q 44.484375 40.625 41.703125 44.40625 
Q 38.921875 48.1875 33.109375 48.1875 
Q 26.21875 48.1875 22.15625 43.53125 
Q 18.109375 38.875 18.109375 30.90625 
L 18.109375 0 
L 9.078125 0 
L 9.078125 54.6875 
L 18.109375 54.6875 
L 18.109375 46.1875 
Q 21.1875 51.21875 25.484375 53.609375 
Q 29.78125 56 35.6875 56 
Q 41.65625 56 45.828125 52.96875 
Q 50 49.953125 52 44.1875 
z
" id="DejaVuSans-109"/>
       <path d="M 48.78125 52.59375 
L 48.78125 44.1875 
Q 44.96875 46.296875 41.140625 47.34375 
Q 37.3125 48.390625 33.40625 48.390625 
Q 24.65625 48.390625 19.8125 42.84375 
Q 14.984375 37.3125 14.984375 27.296875 
Q 14.984375 17.28125 19.8125 11.734375 
Q 24.65625 6.203125 33.40625 6.203125 
Q 37.3125 6.203125 41.140625 7.25 
Q 44.96875 8.296875 48.78125 10.40625 
L 48.78125 2.09375 
Q 45.015625 0.34375 40.984375 -0.53125 
Q 36.96875 -1.421875 32.421875 -1.421875 
Q 20.0625 -1.421875 12.78125 6.34375 
Q 5.515625 14.109375 5.515625 27.296875 
Q 5.515625 40.671875 12.859375 48.328125 
Q 20.21875 56 33.015625 56 
Q 37.15625 56 41.109375 55.140625 
Q 45.0625 54.296875 48.78125 52.59375 
z
" id="DejaVuSans-99"/>
       <path d="M 30.609375 48.390625 
Q 23.390625 48.390625 19.1875 42.75 
Q 14.984375 37.109375 14.984375 27.296875 
Q 14.984375 17.484375 19.15625 11.84375 
Q 23.34375 6.203125 30.609375 6.203125 
Q 37.796875 6.203125 41.984375 11.859375 
Q 46.1875 17.53125 46.1875 27.296875 
Q 46.1875 37.015625 41.984375 42.703125 
Q 37.796875 48.390625 30.609375 48.390625 
z
M 30.609375 56 
Q 42.328125 56 49.015625 48.375 
Q 55.71875 40.765625 55.71875 27.296875 
Q 55.71875 13.875 49.015625 6.21875 
Q 42.328125 -1.421875 30.609375 -1.421875 
Q 18.84375 -1.421875 12.171875 6.21875 
Q 5.515625 13.875 5.515625 27.296875 
Q 5.515625 40.765625 12.171875 48.375 
Q 18.84375 56 30.609375 56 
z
" id="DejaVuSans-111"/>
       <path d="M 41.109375 46.296875 
Q 39.59375 47.171875 37.8125 47.578125 
Q 36.03125 48 33.890625 48 
Q 26.265625 48 22.1875 43.046875 
Q 18.109375 38.09375 18.109375 28.8125 
L 18.109375 0 
L 9.078125 0 
L 9.078125 54.6875 
L 18.109375 54.6875 
L 18.109375 46.1875 
Q 20.953125 51.171875 25.484375 53.578125 
Q 30.03125 56 36.53125 56 
Q 37.453125 56 38.578125 55.875 
Q 39.703125 55.765625 41.0625 55.515625 
z
" id="DejaVuSans-114"/>
       <path d="M 25.390625 72.90625 
L 33.6875 72.90625 
L 8.296875 -9.28125 
L 0 -9.28125 
z
" id="DejaVuSans-47"/>
       <path d="M 9.421875 75.984375 
L 18.40625 75.984375 
L 18.40625 0 
L 9.421875 0 
z
" id="DejaVuSans-108"/>
      </defs>
      <use xlink:href="#DejaVuSans-77"/>
      <use x="86.279297" xlink:href="#DejaVuSans-101"/>
      <use x="147.802734" xlink:href="#DejaVuSans-100"/>
      <use x="211.279297" xlink:href="#DejaVuSans-105"/>
      <use x="239.0625" xlink:href="#DejaVuSans-97"/>
      <use x="300.341797" xlink:href="#DejaVuSans-110"/>
      <use x="363.720703" xlink:href="#DejaVuSans-32"/>
      <use x="395.507812" xlink:href="#DejaVuSans-115"/>
      <use x="447.607422" xlink:href="#DejaVuSans-101"/>
      <use x="509.130859" xlink:href="#DejaVuSans-110"/>
      <use x="572.509766" xlink:href="#DejaVuSans-116"/>
      <use x="611.71875" xlink:href="#DejaVuSans-105"/>
      <use x="639.501953" xlink:href="#DejaVuSans-109"/>
      <use x="736.914062" xlink:href="#DejaVuSans-101"/>
      <use x="798.4375" xlink:href="#DejaVuSans-110"/>
      <use x="861.816406" xlink:href="#DejaVuSans-116"/>
      <use x="901.025391" xlink:href="#DejaVuSans-32"/>
      <use x="932.8125" xlink:href="#DejaVuSans-115"/>
      <use x="984.912109" xlink:href="#DejaVuSans-99"/>
      <use x="1039.892578" xlink:href="#DejaVuSans-111"/>
      <use x="1101.074219" xlink:href="#DejaVuSans-114"/>
      <use x="1139.9375" xlink:href="#DejaVuSans-101"/>
      <use x="1201.460938" xlink:href="#DejaVuSans-32"/>
      <use x="1233.248047" xlink:href="#DejaVuSans-47"/>
      <use x="1266.939453" xlink:href="#DejaVuSans-32"/>
      <use x="1298.726562" xlink:href="#DejaVuSans-116"/>
      <use x="1337.935547" xlink:href="#DejaVuSans-114"/>
      <use x="1379.048828" xlink:href="#DejaVuSans-97"/>
      <use x="1440.328125" xlink:href="#DejaVuSans-105"/>
      <use x="1468.111328" xlink:href="#DejaVuSans-108"/>
      <use x="1495.894531" xlink:href="#DejaVuSans-101"/>
      <use x="1557.417969" xlink:href="#DejaVuSans-114"/>
     </g>
    </g>
   </g>
   <g id="line2d_88">
    <path clip-path="url(#p361abf788e)" d="M 123.745455 138.824481 
L 135.90303 139.978533 
L 148.060606 136.846678 
L 160.218182 142.805792 
L 172.375758 142.171989 
L 184.533333 141.803522 
L 196.690909 142.118124 
L 208.848485 139.204043 
L 221.006061 142.768026 
L 233.163636 140.211156 
L 245.321212 138.699043 
L 257.478788 139.827866 
L 269.636364 138.091963 
L 281.793939 136.665221 
L 293.951515 139.669526 
L 306.109091 137.687952 
L 318.266667 140.244822 
L 330.424242 143.934651 
L 342.581818 146.768977 
L 354.739394 151.415428 
L 366.89697 154.340934 
L 379.054545 152.170977 
L 391.212121 155.647595 
L 403.369697 160.068031 
L 415.527273 157.324312 
L 427.684848 155.625819 
L 439.842424 150.34162 
L 452 141.850257 
L 464.157576 139.716517 
L 476.315152 135.462887 
L 488.472727 132.56674 
L 500.630303 132.014787 
L 512.787879 125.786981 
L 524.945455 128.565092 
L 537.10303 135.053187 
L 549.260606 137.445863 
L 561.418182 142.914138 
L 573.575758 139.408275 
L 585.733333 140.181942 
L 597.890909 147.027382 
L 610.048485 149.126993 
L 622.206061 145.812226 
L 634.363636 144.718944 
L 646.521212 138.655822 
L 658.678788 140.321697 
L 670.836364 140.781694 
L 682.993939 134.502418 
L 695.151515 130.788478 
L 707.309091 134.905 
L 719.466667 134.094125 
L 731.624242 134.391338 
L 743.781818 139.127473 
L 755.939394 137.226331 
L 768.09697 140.623316 
L 780.254545 139.459534 
" style="fill:none;stroke:#348abd;stroke-linecap:square;stroke-width:1.5;"/>
   </g>
   <g id="line2d_89">
    <path clip-path="url(#p361abf788e)" d="M 87.272727 126.404892 
L 99.430303 153.612073 
L 111.587879 102.47333 
L 123.745455 136.125714 
L 135.90303 150.883919 
L 148.060606 150.183788 
L 160.218182 152.087654 
L 172.375758 134.483254 
L 184.533333 131.689091 
L 196.690909 144.187126 
L 208.848485 131.689091 
L 221.006061 148.304648 
L 233.163636 152.386002 
L 245.321212 131.689091 
L 257.478788 159.431136 
L 269.636364 113.790997 
L 281.793939 133.602335 
L 293.951515 139.59085 
L 306.109091 136.153328 
L 318.266667 142.398811 
L 330.424242 152.719226 
L 342.581818 145.560114 
L 354.739394 131.689091 
L 366.89697 159.431136 
L 379.054545 159.431136 
L 391.212121 168.678485 
L 403.369697 162.877353 
L 415.527273 137.529522 
L 427.684848 169.89644 
L 439.842424 162.632142 
L 452 140.225105 
L 464.157576 147.541688 
L 476.315152 131.689091 
L 488.472727 103.437814 
L 500.630303 122.593338 
L 512.787879 140.121033 
L 524.945455 142.359108 
L 537.10303 136.361435 
L 549.260606 103.947045 
L 561.418182 151.13587 
L 573.575758 148.854482 
L 585.733333 139.342069 
L 597.890909 178.398953 
L 610.048485 117.818068 
L 622.206061 141.777107 
L 634.363636 151.865124 
L 646.521212 165.833147 
L 658.678788 125.651116 
L 670.836364 131.689091 
L 682.993939 135.957098 
L 695.151515 129.479198 
L 707.309091 144.997083 
L 719.466667 107.910195 
L 731.624242 139.835565 
L 743.781818 154.46677 
L 755.939394 126.012969 
L 768.09697 138.037584 
L 780.254545 162.632142 
L 792.412121 131.689091 
L 804.569697 131.689091 
L 816.727273 131.689091 
" style="fill:none;stroke:#348abd;stroke-linecap:square;stroke-opacity:0.2;stroke-width:1.5;"/>
   </g>
   <g id="line2d_90">
    <path clip-path="url(#p361abf788e)" d="M 123.745455 143.09946 
L 135.90303 144.86086 
L 148.060606 148.12463 
L 160.218182 147.705081 
L 172.375758 147.095365 
L 184.533333 155.146715 
L 196.690909 151.21096 
L 208.848485 156.39354 
L 221.006061 156.968313 
L 233.163636 159.847424 
L 245.321212 155.171496 
L 257.478788 155.599944 
L 269.636364 145.692071 
L 281.793939 141.338727 
L 293.951515 144.013853 
L 306.109091 143.942338 
L 318.266667 138.520029 
L 330.424242 141.237617 
L 342.581818 142.755979 
L 354.739394 149.656245 
L 366.89697 153.065981 
L 379.054545 152.630896 
L 391.212121 156.707278 
L 403.369697 159.949855 
L 415.527273 166.290894 
L 427.684848 170.005726 
L 439.842424 173.623049 
L 452 177.902101 
L 464.157576 178.405779 
L 476.315152 183.388024 
L 488.472727 187.075476 
L 500.630303 188.660736 
L 512.787879 188.811713 
L 524.945455 187.069669 
L 537.10303 188.024006 
L 549.260606 185.280287 
L 561.418182 180.467892 
L 573.575758 183.284069 
L 585.733333 179.05671 
L 597.890909 186.718799 
L 610.048485 195.777426 
L 622.206061 198.564696 
L 634.363636 206.795852 
L 646.521212 210.853362 
L 658.678788 216.23918 
L 670.836364 217.29602 
L 682.993939 219.67391 
L 695.151515 200.650793 
L 707.309091 201.521815 
L 719.466667 189.327509 
L 731.624242 182.72226 
L 743.781818 174.795962 
L 755.939394 184.30752 
L 768.09697 184.30752 
L 780.254545 203.330637 
" style="fill:none;stroke:#e24a33;stroke-linecap:square;stroke-width:1.5;"/>
   </g>
   <g id="line2d_91">
    <path clip-path="url(#p361abf788e)" d="M 87.272727 131.689091 
L 99.430303 131.689091 
L 111.587879 159.431136 
L 123.745455 135.957098 
L 135.90303 130.813735 
L 148.060606 188.962991 
L 160.218182 123.153077 
L 172.375758 144.018889 
L 184.533333 154.535481 
L 196.690909 156.494293 
L 208.848485 131.689091 
L 221.006061 187.173182 
L 233.163636 161.412711 
L 245.321212 159.431136 
L 257.478788 148.042297 
L 269.636364 174.689261 
L 281.793939 123.762792 
L 293.951515 134.688231 
L 306.109091 117.818068 
L 318.266667 130.939306 
L 330.424242 178.157017 
L 342.581818 147.541688 
L 354.739394 136.733099 
L 366.89697 142.785909 
L 379.054545 145.316762 
L 391.212121 166.11993 
L 403.369697 154.807462 
L 415.527273 175.111423 
L 427.684848 176.076364 
L 439.842424 159.431136 
L 452 187.173182 
L 464.157576 171.320584 
L 476.315152 191.441189 
L 488.472727 184.76083 
L 500.630303 178.637168 
L 512.787879 210.952078 
L 524.945455 185.2433 
L 537.10303 198.27 
L 549.260606 172.377424 
L 561.418182 179.246883 
L 573.575758 191.441189 
L 585.733333 159.431136 
L 597.890909 177.265308 
L 610.048485 204.956544 
L 622.206061 168.678485 
L 634.363636 226.012045 
L 646.521212 242.657273 
L 658.678788 210.952078 
L 670.836364 217.049231 
L 682.993939 205.667879 
L 695.151515 242.657273 
L 707.309091 176.076364 
L 719.466667 242.657273 
L 731.624242 109.495455 
L 743.781818 217.049231 
L 755.939394 131.689091 
L 768.09697 159.431136 
L 780.254545 187.173182 
L 792.412121 242.657273 
L 804.569697 242.657273 
L 816.727273 242.657273 
" style="fill:none;stroke:#e24a33;stroke-linecap:square;stroke-opacity:0.2;stroke-width:1.5;"/>
   </g>
   <g id="line2d_92">
    <path clip-path="url(#p361abf788e)" d="M 452 242.657273 
L 452 42.914545 
" style="fill:none;stroke:#777777;stroke-dasharray:5.55,2.4;stroke-dashoffset:0;stroke-width:1.5;"/>
   </g>
   <g id="patch_3">
    <path d="M 50.8 242.657273 
L 50.8 42.914545 
" style="fill:none;stroke:#ffffff;stroke-linecap:square;stroke-linejoin:miter;"/>
   </g>
   <g id="patch_4">
    <path d="M 853.2 242.657273 
L 853.2 42.914545 
" style="fill:none;stroke:#ffffff;stroke-linecap:square;stroke-linejoin:miter;"/>
   </g>
   <g id="patch_5">
    <path d="M 50.8 242.657273 
L 853.2 242.657273 
" style="fill:none;stroke:#ffffff;stroke-linecap:square;stroke-linejoin:miter;"/>
   </g>
   <g id="patch_6">
    <path d="M 50.8 42.914545 
L 853.2 42.914545 
" style="fill:none;stroke:#ffffff;stroke-linecap:square;stroke-linejoin:miter;"/>
   </g>
   <g id="text_6">
    <!-- Release date -->
    <g style="fill:#777777;" transform="translate(455.711383 47.005386)rotate(-270)scale(0.12 -0.12)">
     <defs>
      <path d="M 25.203125 64.796875 
L 20.21875 38.921875 
L 32.90625 38.921875 
Q 40.375 38.921875 44.984375 43.046875 
Q 49.609375 47.171875 49.609375 53.8125 
Q 49.609375 59.125 46.5 61.953125 
Q 43.40625 64.796875 37.59375 64.796875 
z
M 43.3125 35.015625 
Q 46.4375 34.28125 48.515625 31.390625 
Q 50.59375 28.515625 53.328125 19.921875 
L 59.515625 0 
L 49.125 0 
L 43.40625 18.703125 
Q 41.21875 25.921875 38.328125 28.359375 
Q 35.453125 30.8125 29.5 30.8125 
L 18.609375 30.8125 
L 12.59375 0 
L 2.6875 0 
L 16.890625 72.90625 
L 39.109375 72.90625 
Q 49.21875 72.90625 54.609375 68.328125 
Q 60.015625 63.765625 60.015625 55.171875 
Q 60.015625 47.5625 55.421875 41.984375 
Q 50.828125 36.421875 43.3125 35.015625 
z
" id="DejaVuSans-Oblique-82"/>
      <path d="M 48.09375 32.234375 
Q 48.25 33.015625 48.3125 33.84375 
Q 48.390625 34.671875 48.390625 35.5 
Q 48.390625 41.453125 44.890625 44.921875 
Q 41.40625 48.390625 35.40625 48.390625 
Q 28.71875 48.390625 23.578125 44.15625 
Q 18.453125 39.9375 15.828125 32.171875 
z
M 55.90625 25.203125 
L 14.109375 25.203125 
Q 13.8125 23.34375 13.71875 22.265625 
Q 13.625 21.1875 13.625 20.40625 
Q 13.625 13.625 17.796875 9.90625 
Q 21.96875 6.203125 29.59375 6.203125 
Q 35.453125 6.203125 40.671875 7.515625 
Q 45.90625 8.84375 50.390625 11.375 
L 48.6875 2.484375 
Q 43.84375 0.53125 38.6875 -0.4375 
Q 33.546875 -1.421875 28.21875 -1.421875 
Q 16.84375 -1.421875 10.71875 4.015625 
Q 4.59375 9.46875 4.59375 19.484375 
Q 4.59375 28.03125 7.640625 35.375 
Q 10.6875 42.71875 16.609375 48.484375 
Q 20.40625 52.09375 25.65625 54.046875 
Q 30.90625 56 36.8125 56 
Q 46.09375 56 51.578125 50.4375 
Q 57.078125 44.875 57.078125 35.5 
Q 57.078125 33.25 56.78125 30.6875 
Q 56.5 28.125 55.90625 25.203125 
z
" id="DejaVuSans-Oblique-101"/>
      <path d="M 18.3125 75.984375 
L 27.296875 75.984375 
L 12.5 0 
L 3.515625 0 
z
" id="DejaVuSans-Oblique-108"/>
      <path d="M 53.71875 31.203125 
L 47.609375 0 
L 38.625 0 
L 40.28125 8.296875 
Q 36.328125 3.421875 31.265625 1 
Q 26.21875 -1.421875 20.015625 -1.421875 
Q 13.03125 -1.421875 8.5625 2.84375 
Q 4.109375 7.125 4.109375 13.8125 
Q 4.109375 23.390625 11.75 28.953125 
Q 19.390625 34.515625 32.8125 34.515625 
L 45.3125 34.515625 
L 45.796875 36.921875 
Q 45.90625 37.3125 45.953125 37.765625 
Q 46 38.234375 46 39.203125 
Q 46 43.5625 42.453125 45.96875 
Q 38.921875 48.390625 32.515625 48.390625 
Q 28.125 48.390625 23.5 47.265625 
Q 18.890625 46.140625 14.015625 43.890625 
L 15.578125 52.203125 
Q 20.65625 54.109375 25.515625 55.046875 
Q 30.375 56 34.90625 56 
Q 44.578125 56 49.625 51.796875 
Q 54.6875 47.609375 54.6875 39.59375 
Q 54.6875 37.984375 54.4375 35.8125 
Q 54.203125 33.640625 53.71875 31.203125 
z
M 44 27.484375 
L 35.015625 27.484375 
Q 23.96875 27.484375 18.671875 24.53125 
Q 13.375 21.578125 13.375 15.375 
Q 13.375 11.078125 16.078125 8.640625 
Q 18.796875 6.203125 23.578125 6.203125 
Q 30.90625 6.203125 36.375 11.453125 
Q 41.84375 16.703125 43.609375 25.484375 
z
" id="DejaVuSans-Oblique-97"/>
      <path d="M 50 53.078125 
L 48.296875 44.578125 
Q 44.734375 46.53125 40.765625 47.5 
Q 36.8125 48.484375 32.625 48.484375 
Q 25.53125 48.484375 21.453125 46.0625 
Q 17.390625 43.65625 17.390625 39.5 
Q 17.390625 34.671875 26.859375 32.078125 
Q 27.59375 31.890625 27.9375 31.78125 
L 30.8125 30.90625 
Q 39.796875 28.421875 42.796875 25.6875 
Q 45.796875 22.953125 45.796875 18.21875 
Q 45.796875 9.515625 38.890625 4.046875 
Q 31.984375 -1.421875 20.796875 -1.421875 
Q 16.453125 -1.421875 11.671875 -0.578125 
Q 6.890625 0.25 1.125 2 
L 2.875 11.28125 
Q 7.8125 8.734375 12.59375 7.421875 
Q 17.390625 6.109375 21.78125 6.109375 
Q 28.375 6.109375 32.5 8.9375 
Q 36.625 11.765625 36.625 16.109375 
Q 36.625 20.796875 25.78125 23.6875 
L 24.859375 23.921875 
L 21.78125 24.703125 
Q 14.9375 26.515625 11.765625 29.46875 
Q 8.59375 32.421875 8.59375 37.015625 
Q 8.59375 45.75 15.15625 50.875 
Q 21.734375 56 33.015625 56 
Q 37.453125 56 41.671875 55.265625 
Q 45.90625 54.546875 50 53.078125 
z
" id="DejaVuSans-Oblique-115"/>
      <path id="DejaVuSans-Oblique-32"/>
      <path d="M 41.796875 8.203125 
Q 38.1875 3.46875 33.25 1.015625 
Q 28.328125 -1.421875 22.3125 -1.421875 
Q 14.109375 -1.421875 9.34375 4.171875 
Q 4.59375 9.765625 4.59375 19.484375 
Q 4.59375 27.59375 7.46875 34.9375 
Q 10.359375 42.28125 15.828125 48.09375 
Q 19.4375 51.953125 23.96875 53.96875 
Q 28.515625 56 33.5 56 
Q 38.765625 56 42.796875 53.453125 
Q 46.828125 50.921875 49.03125 46.1875 
L 54.890625 75.984375 
L 63.921875 75.984375 
L 49.125 0 
L 40.09375 0 
z
M 13.921875 21.09375 
Q 13.921875 14.015625 17.109375 10.0625 
Q 20.3125 6.109375 25.984375 6.109375 
Q 30.171875 6.109375 33.765625 8.125 
Q 37.359375 10.15625 40.09375 14.109375 
Q 42.96875 18.21875 44.625 23.578125 
Q 46.296875 28.953125 46.296875 34.1875 
Q 46.296875 40.96875 43.09375 44.765625 
Q 39.890625 48.578125 34.28125 48.578125 
Q 30.03125 48.578125 26.359375 46.578125 
Q 22.703125 44.578125 20.125 40.828125 
Q 17.28125 36.765625 15.59375 31.390625 
Q 13.921875 26.03125 13.921875 21.09375 
z
" id="DejaVuSans-Oblique-100"/>
      <path d="M 42.28125 54.6875 
L 40.921875 47.703125 
L 23 47.703125 
L 17.1875 18.015625 
Q 16.890625 16.359375 16.75 15.234375 
Q 16.609375 14.109375 16.609375 13.484375 
Q 16.609375 10.359375 18.484375 8.9375 
Q 20.359375 7.515625 24.515625 7.515625 
L 33.59375 7.515625 
L 32.078125 0 
L 23.484375 0 
Q 15.484375 0 11.546875 3.125 
Q 7.625 6.25 7.625 12.59375 
Q 7.625 13.71875 7.765625 15.0625 
Q 7.90625 16.40625 8.203125 18.015625 
L 14.015625 47.703125 
L 6.390625 47.703125 
L 7.8125 54.6875 
L 15.28125 54.6875 
L 18.3125 70.21875 
L 27.296875 70.21875 
L 24.3125 54.6875 
z
" id="DejaVuSans-Oblique-116"/>
     </defs>
     <use xlink:href="#DejaVuSans-Oblique-82"/>
     <use x="69.482422" xlink:href="#DejaVuSans-Oblique-101"/>
     <use x="131.005859" xlink:href="#DejaVuSans-Oblique-108"/>
     <use x="158.789062" xlink:href="#DejaVuSans-Oblique-101"/>
     <use x="220.3125" xlink:href="#DejaVuSans-Oblique-97"/>
     <use x="281.591797" xlink:href="#DejaVuSans-Oblique-115"/>
     <use x="333.691406" xlink:href="#DejaVuSans-Oblique-101"/>
     <use x="395.214844" xlink:href="#DejaVuSans-Oblique-32"/>
     <use x="427.001953" xlink:href="#DejaVuSans-Oblique-100"/>
     <use x="490.478516" xlink:href="#DejaVuSans-Oblique-97"/>
     <use x="551.757812" xlink:href="#DejaVuSans-Oblique-116"/>
     <use x="590.966797" xlink:href="#DejaVuSans-Oblique-101"/>
    </g>
   </g>
   <g id="legend_1">
    <g id="line2d_93">
     <path d="M 732.9375 56.012983 
L 752.9375 56.012983 
" style="fill:none;stroke:#348abd;stroke-linecap:square;stroke-width:1.5;"/>
    </g>
    <g id="line2d_94"/>
    <g id="text_7">
     <!-- Above 7.3 rating -->
     <g transform="translate(760.9375 59.512983)scale(0.1 -0.1)">
      <defs>
       <path d="M 34.1875 63.1875 
L 20.796875 26.90625 
L 47.609375 26.90625 
z
M 28.609375 72.90625 
L 39.796875 72.90625 
L 67.578125 0 
L 57.328125 0 
L 50.6875 18.703125 
L 17.828125 18.703125 
L 11.1875 0 
L 0.78125 0 
z
" id="DejaVuSans-65"/>
       <path d="M 48.6875 27.296875 
Q 48.6875 37.203125 44.609375 42.84375 
Q 40.53125 48.484375 33.40625 48.484375 
Q 26.265625 48.484375 22.1875 42.84375 
Q 18.109375 37.203125 18.109375 27.296875 
Q 18.109375 17.390625 22.1875 11.75 
Q 26.265625 6.109375 33.40625 6.109375 
Q 40.53125 6.109375 44.609375 11.75 
Q 48.6875 17.390625 48.6875 27.296875 
z
M 18.109375 46.390625 
Q 20.953125 51.265625 25.265625 53.625 
Q 29.59375 56 35.59375 56 
Q 45.5625 56 51.78125 48.09375 
Q 58.015625 40.1875 58.015625 27.296875 
Q 58.015625 14.40625 51.78125 6.484375 
Q 45.5625 -1.421875 35.59375 -1.421875 
Q 29.59375 -1.421875 25.265625 0.953125 
Q 20.953125 3.328125 18.109375 8.203125 
L 18.109375 0 
L 9.078125 0 
L 9.078125 75.984375 
L 18.109375 75.984375 
z
" id="DejaVuSans-98"/>
       <path d="M 2.984375 54.6875 
L 12.5 54.6875 
L 29.59375 8.796875 
L 46.6875 54.6875 
L 56.203125 54.6875 
L 35.6875 0 
L 23.484375 0 
z
" id="DejaVuSans-118"/>
       <path d="M 8.203125 72.90625 
L 55.078125 72.90625 
L 55.078125 68.703125 
L 28.609375 0 
L 18.3125 0 
L 43.21875 64.59375 
L 8.203125 64.59375 
z
" id="DejaVuSans-55"/>
       <path d="M 40.578125 39.3125 
Q 47.65625 37.796875 51.625 33 
Q 55.609375 28.21875 55.609375 21.1875 
Q 55.609375 10.40625 48.1875 4.484375 
Q 40.765625 -1.421875 27.09375 -1.421875 
Q 22.515625 -1.421875 17.65625 -0.515625 
Q 12.796875 0.390625 7.625 2.203125 
L 7.625 11.71875 
Q 11.71875 9.328125 16.59375 8.109375 
Q 21.484375 6.890625 26.8125 6.890625 
Q 36.078125 6.890625 40.9375 10.546875 
Q 45.796875 14.203125 45.796875 21.1875 
Q 45.796875 27.640625 41.28125 31.265625 
Q 36.765625 34.90625 28.71875 34.90625 
L 20.21875 34.90625 
L 20.21875 43.015625 
L 29.109375 43.015625 
Q 36.375 43.015625 40.234375 45.921875 
Q 44.09375 48.828125 44.09375 54.296875 
Q 44.09375 59.90625 40.109375 62.90625 
Q 36.140625 65.921875 28.71875 65.921875 
Q 24.65625 65.921875 20.015625 65.03125 
Q 15.375 64.15625 9.8125 62.3125 
L 9.8125 71.09375 
Q 15.4375 72.65625 20.34375 73.4375 
Q 25.25 74.21875 29.59375 74.21875 
Q 40.828125 74.21875 47.359375 69.109375 
Q 53.90625 64.015625 53.90625 55.328125 
Q 53.90625 49.265625 50.4375 45.09375 
Q 46.96875 40.921875 40.578125 39.3125 
z
" id="DejaVuSans-51"/>
       <path d="M 45.40625 27.984375 
Q 45.40625 37.75 41.375 43.109375 
Q 37.359375 48.484375 30.078125 48.484375 
Q 22.859375 48.484375 18.828125 43.109375 
Q 14.796875 37.75 14.796875 27.984375 
Q 14.796875 18.265625 18.828125 12.890625 
Q 22.859375 7.515625 30.078125 7.515625 
Q 37.359375 7.515625 41.375 12.890625 
Q 45.40625 18.265625 45.40625 27.984375 
z
M 54.390625 6.78125 
Q 54.390625 -7.171875 48.1875 -13.984375 
Q 42 -20.796875 29.203125 -20.796875 
Q 24.46875 -20.796875 20.265625 -20.09375 
Q 16.0625 -19.390625 12.109375 -17.921875 
L 12.109375 -9.1875 
Q 16.0625 -11.328125 19.921875 -12.34375 
Q 23.78125 -13.375 27.78125 -13.375 
Q 36.625 -13.375 41.015625 -8.765625 
Q 45.40625 -4.15625 45.40625 5.171875 
L 45.40625 9.625 
Q 42.625 4.78125 38.28125 2.390625 
Q 33.9375 0 27.875 0 
Q 17.828125 0 11.671875 7.65625 
Q 5.515625 15.328125 5.515625 27.984375 
Q 5.515625 40.671875 11.671875 48.328125 
Q 17.828125 56 27.875 56 
Q 33.9375 56 38.28125 53.609375 
Q 42.625 51.21875 45.40625 46.390625 
L 45.40625 54.6875 
L 54.390625 54.6875 
z
" id="DejaVuSans-103"/>
      </defs>
      <use xlink:href="#DejaVuSans-65"/>
      <use x="68.408203" xlink:href="#DejaVuSans-98"/>
      <use x="131.884766" xlink:href="#DejaVuSans-111"/>
      <use x="193.066406" xlink:href="#DejaVuSans-118"/>
      <use x="252.246094" xlink:href="#DejaVuSans-101"/>
      <use x="313.769531" xlink:href="#DejaVuSans-32"/>
      <use x="345.556641" xlink:href="#DejaVuSans-55"/>
      <use x="409.179688" xlink:href="#DejaVuSans-46"/>
      <use x="440.966797" xlink:href="#DejaVuSans-51"/>
      <use x="504.589844" xlink:href="#DejaVuSans-32"/>
      <use x="536.376953" xlink:href="#DejaVuSans-114"/>
      <use x="577.490234" xlink:href="#DejaVuSans-97"/>
      <use x="638.769531" xlink:href="#DejaVuSans-116"/>
      <use x="677.978516" xlink:href="#DejaVuSans-105"/>
      <use x="705.761719" xlink:href="#DejaVuSans-110"/>
      <use x="769.140625" xlink:href="#DejaVuSans-103"/>
     </g>
    </g>
    <g id="line2d_95">
     <path d="M 732.9375 70.691108 
L 752.9375 70.691108 
" style="fill:none;stroke:#e24a33;stroke-linecap:square;stroke-width:1.5;"/>
    </g>
    <g id="line2d_96"/>
    <g id="text_8">
     <!-- Below 6.1 rating -->
     <g transform="translate(760.9375 74.191108)scale(0.1 -0.1)">
      <defs>
       <path d="M 19.671875 34.8125 
L 19.671875 8.109375 
L 35.5 8.109375 
Q 43.453125 8.109375 47.28125 11.40625 
Q 51.125 14.703125 51.125 21.484375 
Q 51.125 28.328125 47.28125 31.5625 
Q 43.453125 34.8125 35.5 34.8125 
z
M 19.671875 64.796875 
L 19.671875 42.828125 
L 34.28125 42.828125 
Q 41.5 42.828125 45.03125 45.53125 
Q 48.578125 48.25 48.578125 53.8125 
Q 48.578125 59.328125 45.03125 62.0625 
Q 41.5 64.796875 34.28125 64.796875 
z
M 9.8125 72.90625 
L 35.015625 72.90625 
Q 46.296875 72.90625 52.390625 68.21875 
Q 58.5 63.53125 58.5 54.890625 
Q 58.5 48.1875 55.375 44.234375 
Q 52.25 40.28125 46.1875 39.3125 
Q 53.46875 37.75 57.5 32.78125 
Q 61.53125 27.828125 61.53125 20.40625 
Q 61.53125 10.640625 54.890625 5.3125 
Q 48.25 0 35.984375 0 
L 9.8125 0 
z
" id="DejaVuSans-66"/>
       <path d="M 4.203125 54.6875 
L 13.1875 54.6875 
L 24.421875 12.015625 
L 35.59375 54.6875 
L 46.1875 54.6875 
L 57.421875 12.015625 
L 68.609375 54.6875 
L 77.59375 54.6875 
L 63.28125 0 
L 52.6875 0 
L 40.921875 44.828125 
L 29.109375 0 
L 18.5 0 
z
" id="DejaVuSans-119"/>
       <path d="M 12.40625 8.296875 
L 28.515625 8.296875 
L 28.515625 63.921875 
L 10.984375 60.40625 
L 10.984375 69.390625 
L 28.421875 72.90625 
L 38.28125 72.90625 
L 38.28125 8.296875 
L 54.390625 8.296875 
L 54.390625 0 
L 12.40625 0 
z
" id="DejaVuSans-49"/>
      </defs>
      <use xlink:href="#DejaVuSans-66"/>
      <use x="68.603516" xlink:href="#DejaVuSans-101"/>
      <use x="130.126953" xlink:href="#DejaVuSans-108"/>
      <use x="157.910156" xlink:href="#DejaVuSans-111"/>
      <use x="219.091797" xlink:href="#DejaVuSans-119"/>
      <use x="300.878906" xlink:href="#DejaVuSans-32"/>
      <use x="332.666016" xlink:href="#DejaVuSans-54"/>
      <use x="396.289062" xlink:href="#DejaVuSans-46"/>
      <use x="428.076172" xlink:href="#DejaVuSans-49"/>
      <use x="491.699219" xlink:href="#DejaVuSans-32"/>
      <use x="523.486328" xlink:href="#DejaVuSans-114"/>
      <use x="564.599609" xlink:href="#DejaVuSans-97"/>
      <use x="625.878906" xlink:href="#DejaVuSans-116"/>
      <use x="665.087891" xlink:href="#DejaVuSans-105"/>
      <use x="692.871094" xlink:href="#DejaVuSans-110"/>
      <use x="756.25" xlink:href="#DejaVuSans-103"/>
     </g>
    </g>
   </g>
  </g>
  <g id="axes_2">
   <g id="patch_7">
    <path d="M 50.8 459.2 
L 853.2 459.2 
L 853.2 259.457273 
L 50.8 259.457273 
z
" style="fill:#eaeaea;"/>
   </g>
   <g id="matplotlib.axis_3">
    <g id="xtick_68">
     <g id="line2d_97">
      <path clip-path="url(#p99effbbcde)" d="M 111.587879 459.2 
L 111.587879 259.457273 
" style="fill:none;stroke:#ffffff;stroke-linecap:square;stroke-width:0.8;"/>
     </g>
     <g id="line2d_98">
      <g>
       <use style="fill:#555555;stroke:#555555;stroke-width:0.8;" x="111.587879" xlink:href="#m21b3462591" y="459.2"/>
      </g>
     </g>
     <g id="text_9">
      <!-- 28 -->
      <g style="fill:#555555;" transform="translate(101.035535 473.798437)scale(0.1 -0.1)">
       <defs>
        <path d="M 10.59375 35.5 
L 73.1875 35.5 
L 73.1875 27.203125 
L 10.59375 27.203125 
z
" id="DejaVuSans-8722"/>
        <path d="M 31.78125 34.625 
Q 24.75 34.625 20.71875 30.859375 
Q 16.703125 27.09375 16.703125 20.515625 
Q 16.703125 13.921875 20.71875 10.15625 
Q 24.75 6.390625 31.78125 6.390625 
Q 38.8125 6.390625 42.859375 10.171875 
Q 46.921875 13.96875 46.921875 20.515625 
Q 46.921875 27.09375 42.890625 30.859375 
Q 38.875 34.625 31.78125 34.625 
z
M 21.921875 38.8125 
Q 15.578125 40.375 12.03125 44.71875 
Q 8.5 49.078125 8.5 55.328125 
Q 8.5 64.0625 14.71875 69.140625 
Q 20.953125 74.21875 31.78125 74.21875 
Q 42.671875 74.21875 48.875 69.140625 
Q 55.078125 64.0625 55.078125 55.328125 
Q 55.078125 49.078125 51.53125 44.71875 
Q 48 40.375 41.703125 38.8125 
Q 48.828125 37.15625 52.796875 32.3125 
Q 56.78125 27.484375 56.78125 20.515625 
Q 56.78125 9.90625 50.3125 4.234375 
Q 43.84375 -1.421875 31.78125 -1.421875 
Q 19.734375 -1.421875 13.25 4.234375 
Q 6.78125 9.90625 6.78125 20.515625 
Q 6.78125 27.484375 10.78125 32.3125 
Q 14.796875 37.15625 21.921875 38.8125 
z
M 18.3125 54.390625 
Q 18.3125 48.734375 21.84375 45.5625 
Q 25.390625 42.390625 31.78125 42.390625 
Q 38.140625 42.390625 41.71875 45.5625 
Q 45.3125 48.734375 45.3125 54.390625 
Q 45.3125 60.0625 41.71875 63.234375 
Q 38.140625 66.40625 31.78125 66.40625 
Q 25.390625 66.40625 21.84375 63.234375 
Q 18.3125 60.0625 18.3125 54.390625 
z
" id="DejaVuSans-56"/>
       </defs>
       <use xlink:href="#DejaVuSans-8722"/>
       <use x="83.789062" xlink:href="#DejaVuSans-50"/>
       <use x="147.412109" xlink:href="#DejaVuSans-56"/>
      </g>
     </g>
    </g>
    <g id="xtick_69">
     <g id="line2d_99">
      <path clip-path="url(#p99effbbcde)" d="M 196.690909 459.2 
L 196.690909 259.457273 
" style="fill:none;stroke:#ffffff;stroke-linecap:square;stroke-width:0.8;"/>
     </g>
     <g id="line2d_100">
      <g>
       <use style="fill:#555555;stroke:#555555;stroke-width:0.8;" x="196.690909" xlink:href="#m21b3462591" y="459.2"/>
      </g>
     </g>
     <g id="text_10">
      <!-- 21 -->
      <g style="fill:#555555;" transform="translate(186.138565 473.798437)scale(0.1 -0.1)">
       <use xlink:href="#DejaVuSans-8722"/>
       <use x="83.789062" xlink:href="#DejaVuSans-50"/>
       <use x="147.412109" xlink:href="#DejaVuSans-49"/>
      </g>
     </g>
    </g>
    <g id="xtick_70">
     <g id="line2d_101">
      <path clip-path="url(#p99effbbcde)" d="M 281.793939 459.2 
L 281.793939 259.457273 
" style="fill:none;stroke:#ffffff;stroke-linecap:square;stroke-width:0.8;"/>
     </g>
     <g id="line2d_102">
      <g>
       <use style="fill:#555555;stroke:#555555;stroke-width:0.8;" x="281.793939" xlink:href="#m21b3462591" y="459.2"/>
      </g>
     </g>
     <g id="text_11">
      <!-- 14 -->
      <g style="fill:#555555;" transform="translate(271.241596 473.798437)scale(0.1 -0.1)">
       <use xlink:href="#DejaVuSans-8722"/>
       <use x="83.789062" xlink:href="#DejaVuSans-49"/>
       <use x="147.412109" xlink:href="#DejaVuSans-52"/>
      </g>
     </g>
    </g>
    <g id="xtick_71">
     <g id="line2d_103">
      <path clip-path="url(#p99effbbcde)" d="M 366.89697 459.2 
L 366.89697 259.457273 
" style="fill:none;stroke:#ffffff;stroke-linecap:square;stroke-width:0.8;"/>
     </g>
     <g id="line2d_104">
      <g>
       <use style="fill:#555555;stroke:#555555;stroke-width:0.8;" x="366.89697" xlink:href="#m21b3462591" y="459.2"/>
      </g>
     </g>
     <g id="text_12">
      <!-- 7 -->
      <g style="fill:#555555;" transform="translate(359.525876 473.798437)scale(0.1 -0.1)">
       <use xlink:href="#DejaVuSans-8722"/>
       <use x="83.789062" xlink:href="#DejaVuSans-55"/>
      </g>
     </g>
    </g>
    <g id="xtick_72">
     <g id="line2d_105">
      <path clip-path="url(#p99effbbcde)" d="M 452 459.2 
L 452 259.457273 
" style="fill:none;stroke:#ffffff;stroke-linecap:square;stroke-width:0.8;"/>
     </g>
     <g id="line2d_106">
      <g>
       <use style="fill:#555555;stroke:#555555;stroke-width:0.8;" x="452" xlink:href="#m21b3462591" y="459.2"/>
      </g>
     </g>
     <g id="text_13">
      <!-- 0 -->
      <g style="fill:#555555;" transform="translate(448.81875 473.798437)scale(0.1 -0.1)">
       <use xlink:href="#DejaVuSans-48"/>
      </g>
     </g>
    </g>
    <g id="xtick_73">
     <g id="line2d_107">
      <path clip-path="url(#p99effbbcde)" d="M 537.10303 459.2 
L 537.10303 259.457273 
" style="fill:none;stroke:#ffffff;stroke-linecap:square;stroke-width:0.8;"/>
     </g>
     <g id="line2d_108">
      <g>
       <use style="fill:#555555;stroke:#555555;stroke-width:0.8;" x="537.10303" xlink:href="#m21b3462591" y="459.2"/>
      </g>
     </g>
     <g id="text_14">
      <!-- 7 -->
      <g style="fill:#555555;" transform="translate(533.92178 473.798437)scale(0.1 -0.1)">
       <use xlink:href="#DejaVuSans-55"/>
      </g>
     </g>
    </g>
    <g id="xtick_74">
     <g id="line2d_109">
      <path clip-path="url(#p99effbbcde)" d="M 622.206061 459.2 
L 622.206061 259.457273 
" style="fill:none;stroke:#ffffff;stroke-linecap:square;stroke-width:0.8;"/>
     </g>
     <g id="line2d_110">
      <g>
       <use style="fill:#555555;stroke:#555555;stroke-width:0.8;" x="622.206061" xlink:href="#m21b3462591" y="459.2"/>
      </g>
     </g>
     <g id="text_15">
      <!-- 14 -->
      <g style="fill:#555555;" transform="translate(615.843561 473.798437)scale(0.1 -0.1)">
       <use xlink:href="#DejaVuSans-49"/>
       <use x="63.623047" xlink:href="#DejaVuSans-52"/>
      </g>
     </g>
    </g>
    <g id="xtick_75">
     <g id="line2d_111">
      <path clip-path="url(#p99effbbcde)" d="M 707.309091 459.2 
L 707.309091 259.457273 
" style="fill:none;stroke:#ffffff;stroke-linecap:square;stroke-width:0.8;"/>
     </g>
     <g id="line2d_112">
      <g>
       <use style="fill:#555555;stroke:#555555;stroke-width:0.8;" x="707.309091" xlink:href="#m21b3462591" y="459.2"/>
      </g>
     </g>
     <g id="text_16">
      <!-- 21 -->
      <g style="fill:#555555;" transform="translate(700.946591 473.798437)scale(0.1 -0.1)">
       <use xlink:href="#DejaVuSans-50"/>
       <use x="63.623047" xlink:href="#DejaVuSans-49"/>
      </g>
     </g>
    </g>
    <g id="xtick_76">
     <g id="line2d_113">
      <path clip-path="url(#p99effbbcde)" d="M 792.412121 459.2 
L 792.412121 259.457273 
" style="fill:none;stroke:#ffffff;stroke-linecap:square;stroke-width:0.8;"/>
     </g>
     <g id="line2d_114">
      <g>
       <use style="fill:#555555;stroke:#555555;stroke-width:0.8;" x="792.412121" xlink:href="#m21b3462591" y="459.2"/>
      </g>
     </g>
     <g id="text_17">
      <!-- 28 -->
      <g style="fill:#555555;" transform="translate(786.049621 473.798437)scale(0.1 -0.1)">
       <use xlink:href="#DejaVuSans-50"/>
       <use x="63.623047" xlink:href="#DejaVuSans-56"/>
      </g>
     </g>
    </g>
    <g id="xtick_77">
     <g id="line2d_115">
      <g>
       <use style="fill:#555555;stroke:#555555;stroke-width:0.6;" x="50.8" xlink:href="#mdeb65597df" y="459.2"/>
      </g>
     </g>
    </g>
    <g id="xtick_78">
     <g id="line2d_116">
      <g>
       <use style="fill:#555555;stroke:#555555;stroke-width:0.6;" x="62.957576" xlink:href="#mdeb65597df" y="459.2"/>
      </g>
     </g>
    </g>
    <g id="xtick_79">
     <g id="line2d_117">
      <g>
       <use style="fill:#555555;stroke:#555555;stroke-width:0.6;" x="75.115152" xlink:href="#mdeb65597df" y="459.2"/>
      </g>
     </g>
    </g>
    <g id="xtick_80">
     <g id="line2d_118">
      <g>
       <use style="fill:#555555;stroke:#555555;stroke-width:0.6;" x="87.272727" xlink:href="#mdeb65597df" y="459.2"/>
      </g>
     </g>
    </g>
    <g id="xtick_81">
     <g id="line2d_119">
      <g>
       <use style="fill:#555555;stroke:#555555;stroke-width:0.6;" x="99.430303" xlink:href="#mdeb65597df" y="459.2"/>
      </g>
     </g>
    </g>
    <g id="xtick_82">
     <g id="line2d_120">
      <g>
       <use style="fill:#555555;stroke:#555555;stroke-width:0.6;" x="123.745455" xlink:href="#mdeb65597df" y="459.2"/>
      </g>
     </g>
    </g>
    <g id="xtick_83">
     <g id="line2d_121">
      <g>
       <use style="fill:#555555;stroke:#555555;stroke-width:0.6;" x="135.90303" xlink:href="#mdeb65597df" y="459.2"/>
      </g>
     </g>
    </g>
    <g id="xtick_84">
     <g id="line2d_122">
      <g>
       <use style="fill:#555555;stroke:#555555;stroke-width:0.6;" x="148.060606" xlink:href="#mdeb65597df" y="459.2"/>
      </g>
     </g>
    </g>
    <g id="xtick_85">
     <g id="line2d_123">
      <g>
       <use style="fill:#555555;stroke:#555555;stroke-width:0.6;" x="160.218182" xlink:href="#mdeb65597df" y="459.2"/>
      </g>
     </g>
    </g>
    <g id="xtick_86">
     <g id="line2d_124">
      <g>
       <use style="fill:#555555;stroke:#555555;stroke-width:0.6;" x="172.375758" xlink:href="#mdeb65597df" y="459.2"/>
      </g>
     </g>
    </g>
    <g id="xtick_87">
     <g id="line2d_125">
      <g>
       <use style="fill:#555555;stroke:#555555;stroke-width:0.6;" x="184.533333" xlink:href="#mdeb65597df" y="459.2"/>
      </g>
     </g>
    </g>
    <g id="xtick_88">
     <g id="line2d_126">
      <g>
       <use style="fill:#555555;stroke:#555555;stroke-width:0.6;" x="208.848485" xlink:href="#mdeb65597df" y="459.2"/>
      </g>
     </g>
    </g>
    <g id="xtick_89">
     <g id="line2d_127">
      <g>
       <use style="fill:#555555;stroke:#555555;stroke-width:0.6;" x="221.006061" xlink:href="#mdeb65597df" y="459.2"/>
      </g>
     </g>
    </g>
    <g id="xtick_90">
     <g id="line2d_128">
      <g>
       <use style="fill:#555555;stroke:#555555;stroke-width:0.6;" x="233.163636" xlink:href="#mdeb65597df" y="459.2"/>
      </g>
     </g>
    </g>
    <g id="xtick_91">
     <g id="line2d_129">
      <g>
       <use style="fill:#555555;stroke:#555555;stroke-width:0.6;" x="245.321212" xlink:href="#mdeb65597df" y="459.2"/>
      </g>
     </g>
    </g>
    <g id="xtick_92">
     <g id="line2d_130">
      <g>
       <use style="fill:#555555;stroke:#555555;stroke-width:0.6;" x="257.478788" xlink:href="#mdeb65597df" y="459.2"/>
      </g>
     </g>
    </g>
    <g id="xtick_93">
     <g id="line2d_131">
      <g>
       <use style="fill:#555555;stroke:#555555;stroke-width:0.6;" x="269.636364" xlink:href="#mdeb65597df" y="459.2"/>
      </g>
     </g>
    </g>
    <g id="xtick_94">
     <g id="line2d_132">
      <g>
       <use style="fill:#555555;stroke:#555555;stroke-width:0.6;" x="293.951515" xlink:href="#mdeb65597df" y="459.2"/>
      </g>
     </g>
    </g>
    <g id="xtick_95">
     <g id="line2d_133">
      <g>
       <use style="fill:#555555;stroke:#555555;stroke-width:0.6;" x="306.109091" xlink:href="#mdeb65597df" y="459.2"/>
      </g>
     </g>
    </g>
    <g id="xtick_96">
     <g id="line2d_134">
      <g>
       <use style="fill:#555555;stroke:#555555;stroke-width:0.6;" x="318.266667" xlink:href="#mdeb65597df" y="459.2"/>
      </g>
     </g>
    </g>
    <g id="xtick_97">
     <g id="line2d_135">
      <g>
       <use style="fill:#555555;stroke:#555555;stroke-width:0.6;" x="330.424242" xlink:href="#mdeb65597df" y="459.2"/>
      </g>
     </g>
    </g>
    <g id="xtick_98">
     <g id="line2d_136">
      <g>
       <use style="fill:#555555;stroke:#555555;stroke-width:0.6;" x="342.581818" xlink:href="#mdeb65597df" y="459.2"/>
      </g>
     </g>
    </g>
    <g id="xtick_99">
     <g id="line2d_137">
      <g>
       <use style="fill:#555555;stroke:#555555;stroke-width:0.6;" x="354.739394" xlink:href="#mdeb65597df" y="459.2"/>
      </g>
     </g>
    </g>
    <g id="xtick_100">
     <g id="line2d_138">
      <g>
       <use style="fill:#555555;stroke:#555555;stroke-width:0.6;" x="379.054545" xlink:href="#mdeb65597df" y="459.2"/>
      </g>
     </g>
    </g>
    <g id="xtick_101">
     <g id="line2d_139">
      <g>
       <use style="fill:#555555;stroke:#555555;stroke-width:0.6;" x="391.212121" xlink:href="#mdeb65597df" y="459.2"/>
      </g>
     </g>
    </g>
    <g id="xtick_102">
     <g id="line2d_140">
      <g>
       <use style="fill:#555555;stroke:#555555;stroke-width:0.6;" x="403.369697" xlink:href="#mdeb65597df" y="459.2"/>
      </g>
     </g>
    </g>
    <g id="xtick_103">
     <g id="line2d_141">
      <g>
       <use style="fill:#555555;stroke:#555555;stroke-width:0.6;" x="415.527273" xlink:href="#mdeb65597df" y="459.2"/>
      </g>
     </g>
    </g>
    <g id="xtick_104">
     <g id="line2d_142">
      <g>
       <use style="fill:#555555;stroke:#555555;stroke-width:0.6;" x="427.684848" xlink:href="#mdeb65597df" y="459.2"/>
      </g>
     </g>
    </g>
    <g id="xtick_105">
     <g id="line2d_143">
      <g>
       <use style="fill:#555555;stroke:#555555;stroke-width:0.6;" x="439.842424" xlink:href="#mdeb65597df" y="459.2"/>
      </g>
     </g>
    </g>
    <g id="xtick_106">
     <g id="line2d_144">
      <g>
       <use style="fill:#555555;stroke:#555555;stroke-width:0.6;" x="464.157576" xlink:href="#mdeb65597df" y="459.2"/>
      </g>
     </g>
    </g>
    <g id="xtick_107">
     <g id="line2d_145">
      <g>
       <use style="fill:#555555;stroke:#555555;stroke-width:0.6;" x="476.315152" xlink:href="#mdeb65597df" y="459.2"/>
      </g>
     </g>
    </g>
    <g id="xtick_108">
     <g id="line2d_146">
      <g>
       <use style="fill:#555555;stroke:#555555;stroke-width:0.6;" x="488.472727" xlink:href="#mdeb65597df" y="459.2"/>
      </g>
     </g>
    </g>
    <g id="xtick_109">
     <g id="line2d_147">
      <g>
       <use style="fill:#555555;stroke:#555555;stroke-width:0.6;" x="500.630303" xlink:href="#mdeb65597df" y="459.2"/>
      </g>
     </g>
    </g>
    <g id="xtick_110">
     <g id="line2d_148">
      <g>
       <use style="fill:#555555;stroke:#555555;stroke-width:0.6;" x="512.787879" xlink:href="#mdeb65597df" y="459.2"/>
      </g>
     </g>
    </g>
    <g id="xtick_111">
     <g id="line2d_149">
      <g>
       <use style="fill:#555555;stroke:#555555;stroke-width:0.6;" x="524.945455" xlink:href="#mdeb65597df" y="459.2"/>
      </g>
     </g>
    </g>
    <g id="xtick_112">
     <g id="line2d_150">
      <g>
       <use style="fill:#555555;stroke:#555555;stroke-width:0.6;" x="549.260606" xlink:href="#mdeb65597df" y="459.2"/>
      </g>
     </g>
    </g>
    <g id="xtick_113">
     <g id="line2d_151">
      <g>
       <use style="fill:#555555;stroke:#555555;stroke-width:0.6;" x="561.418182" xlink:href="#mdeb65597df" y="459.2"/>
      </g>
     </g>
    </g>
    <g id="xtick_114">
     <g id="line2d_152">
      <g>
       <use style="fill:#555555;stroke:#555555;stroke-width:0.6;" x="573.575758" xlink:href="#mdeb65597df" y="459.2"/>
      </g>
     </g>
    </g>
    <g id="xtick_115">
     <g id="line2d_153">
      <g>
       <use style="fill:#555555;stroke:#555555;stroke-width:0.6;" x="585.733333" xlink:href="#mdeb65597df" y="459.2"/>
      </g>
     </g>
    </g>
    <g id="xtick_116">
     <g id="line2d_154">
      <g>
       <use style="fill:#555555;stroke:#555555;stroke-width:0.6;" x="597.890909" xlink:href="#mdeb65597df" y="459.2"/>
      </g>
     </g>
    </g>
    <g id="xtick_117">
     <g id="line2d_155">
      <g>
       <use style="fill:#555555;stroke:#555555;stroke-width:0.6;" x="610.048485" xlink:href="#mdeb65597df" y="459.2"/>
      </g>
     </g>
    </g>
    <g id="xtick_118">
     <g id="line2d_156">
      <g>
       <use style="fill:#555555;stroke:#555555;stroke-width:0.6;" x="634.363636" xlink:href="#mdeb65597df" y="459.2"/>
      </g>
     </g>
    </g>
    <g id="xtick_119">
     <g id="line2d_157">
      <g>
       <use style="fill:#555555;stroke:#555555;stroke-width:0.6;" x="646.521212" xlink:href="#mdeb65597df" y="459.2"/>
      </g>
     </g>
    </g>
    <g id="xtick_120">
     <g id="line2d_158">
      <g>
       <use style="fill:#555555;stroke:#555555;stroke-width:0.6;" x="658.678788" xlink:href="#mdeb65597df" y="459.2"/>
      </g>
     </g>
    </g>
    <g id="xtick_121">
     <g id="line2d_159">
      <g>
       <use style="fill:#555555;stroke:#555555;stroke-width:0.6;" x="670.836364" xlink:href="#mdeb65597df" y="459.2"/>
      </g>
     </g>
    </g>
    <g id="xtick_122">
     <g id="line2d_160">
      <g>
       <use style="fill:#555555;stroke:#555555;stroke-width:0.6;" x="682.993939" xlink:href="#mdeb65597df" y="459.2"/>
      </g>
     </g>
    </g>
    <g id="xtick_123">
     <g id="line2d_161">
      <g>
       <use style="fill:#555555;stroke:#555555;stroke-width:0.6;" x="695.151515" xlink:href="#mdeb65597df" y="459.2"/>
      </g>
     </g>
    </g>
    <g id="xtick_124">
     <g id="line2d_162">
      <g>
       <use style="fill:#555555;stroke:#555555;stroke-width:0.6;" x="719.466667" xlink:href="#mdeb65597df" y="459.2"/>
      </g>
     </g>
    </g>
    <g id="xtick_125">
     <g id="line2d_163">
      <g>
       <use style="fill:#555555;stroke:#555555;stroke-width:0.6;" x="731.624242" xlink:href="#mdeb65597df" y="459.2"/>
      </g>
     </g>
    </g>
    <g id="xtick_126">
     <g id="line2d_164">
      <g>
       <use style="fill:#555555;stroke:#555555;stroke-width:0.6;" x="743.781818" xlink:href="#mdeb65597df" y="459.2"/>
      </g>
     </g>
    </g>
    <g id="xtick_127">
     <g id="line2d_165">
      <g>
       <use style="fill:#555555;stroke:#555555;stroke-width:0.6;" x="755.939394" xlink:href="#mdeb65597df" y="459.2"/>
      </g>
     </g>
    </g>
    <g id="xtick_128">
     <g id="line2d_166">
      <g>
       <use style="fill:#555555;stroke:#555555;stroke-width:0.6;" x="768.09697" xlink:href="#mdeb65597df" y="459.2"/>
      </g>
     </g>
    </g>
    <g id="xtick_129">
     <g id="line2d_167">
      <g>
       <use style="fill:#555555;stroke:#555555;stroke-width:0.6;" x="780.254545" xlink:href="#mdeb65597df" y="459.2"/>
      </g>
     </g>
    </g>
    <g id="xtick_130">
     <g id="line2d_168">
      <g>
       <use style="fill:#555555;stroke:#555555;stroke-width:0.6;" x="804.569697" xlink:href="#mdeb65597df" y="459.2"/>
      </g>
     </g>
    </g>
    <g id="xtick_131">
     <g id="line2d_169">
      <g>
       <use style="fill:#555555;stroke:#555555;stroke-width:0.6;" x="816.727273" xlink:href="#mdeb65597df" y="459.2"/>
      </g>
     </g>
    </g>
    <g id="xtick_132">
     <g id="line2d_170">
      <g>
       <use style="fill:#555555;stroke:#555555;stroke-width:0.6;" x="828.884848" xlink:href="#mdeb65597df" y="459.2"/>
      </g>
     </g>
    </g>
    <g id="xtick_133">
     <g id="line2d_171">
      <g>
       <use style="fill:#555555;stroke:#555555;stroke-width:0.6;" x="841.042424" xlink:href="#mdeb65597df" y="459.2"/>
      </g>
     </g>
    </g>
    <g id="xtick_134">
     <g id="line2d_172">
      <g>
       <use style="fill:#555555;stroke:#555555;stroke-width:0.6;" x="853.2" xlink:href="#mdeb65597df" y="459.2"/>
      </g>
     </g>
    </g>
    <g id="text_18">
     <!-- Days in relation to release date -->
     <g style="fill:#555555;" transform="translate(357.7325 488.99625)scale(0.12 -0.12)">
      <defs>
       <path d="M 19.671875 64.796875 
L 19.671875 8.109375 
L 31.59375 8.109375 
Q 46.6875 8.109375 53.6875 14.9375 
Q 60.6875 21.78125 60.6875 36.53125 
Q 60.6875 51.171875 53.6875 57.984375 
Q 46.6875 64.796875 31.59375 64.796875 
z
M 9.8125 72.90625 
L 30.078125 72.90625 
Q 51.265625 72.90625 61.171875 64.09375 
Q 71.09375 55.28125 71.09375 36.53125 
Q 71.09375 17.671875 61.125 8.828125 
Q 51.171875 0 30.078125 0 
L 9.8125 0 
z
" id="DejaVuSans-68"/>
       <path d="M 32.171875 -5.078125 
Q 28.375 -14.84375 24.75 -17.8125 
Q 21.140625 -20.796875 15.09375 -20.796875 
L 7.90625 -20.796875 
L 7.90625 -13.28125 
L 13.1875 -13.28125 
Q 16.890625 -13.28125 18.9375 -11.515625 
Q 21 -9.765625 23.484375 -3.21875 
L 25.09375 0.875 
L 2.984375 54.6875 
L 12.5 54.6875 
L 29.59375 11.921875 
L 46.6875 54.6875 
L 56.203125 54.6875 
z
" id="DejaVuSans-121"/>
      </defs>
      <use xlink:href="#DejaVuSans-68"/>
      <use x="77.001953" xlink:href="#DejaVuSans-97"/>
      <use x="138.28125" xlink:href="#DejaVuSans-121"/>
      <use x="197.460938" xlink:href="#DejaVuSans-115"/>
      <use x="249.560547" xlink:href="#DejaVuSans-32"/>
      <use x="281.347656" xlink:href="#DejaVuSans-105"/>
      <use x="309.130859" xlink:href="#DejaVuSans-110"/>
      <use x="372.509766" xlink:href="#DejaVuSans-32"/>
      <use x="404.296875" xlink:href="#DejaVuSans-114"/>
      <use x="443.160156" xlink:href="#DejaVuSans-101"/>
      <use x="504.683594" xlink:href="#DejaVuSans-108"/>
      <use x="532.466797" xlink:href="#DejaVuSans-97"/>
      <use x="593.746094" xlink:href="#DejaVuSans-116"/>
      <use x="632.955078" xlink:href="#DejaVuSans-105"/>
      <use x="660.738281" xlink:href="#DejaVuSans-111"/>
      <use x="721.919922" xlink:href="#DejaVuSans-110"/>
      <use x="785.298828" xlink:href="#DejaVuSans-32"/>
      <use x="817.085938" xlink:href="#DejaVuSans-116"/>
      <use x="856.294922" xlink:href="#DejaVuSans-111"/>
      <use x="917.476562" xlink:href="#DejaVuSans-32"/>
      <use x="949.263672" xlink:href="#DejaVuSans-114"/>
      <use x="988.126953" xlink:href="#DejaVuSans-101"/>
      <use x="1049.650391" xlink:href="#DejaVuSans-108"/>
      <use x="1077.433594" xlink:href="#DejaVuSans-101"/>
      <use x="1138.957031" xlink:href="#DejaVuSans-97"/>
      <use x="1200.236328" xlink:href="#DejaVuSans-115"/>
      <use x="1252.335938" xlink:href="#DejaVuSans-101"/>
      <use x="1313.859375" xlink:href="#DejaVuSans-32"/>
      <use x="1345.646484" xlink:href="#DejaVuSans-100"/>
      <use x="1409.123047" xlink:href="#DejaVuSans-97"/>
      <use x="1470.402344" xlink:href="#DejaVuSans-116"/>
      <use x="1509.611328" xlink:href="#DejaVuSans-101"/>
     </g>
    </g>
   </g>
   <g id="matplotlib.axis_4">
    <g id="ytick_8">
     <g id="line2d_173">
      <path clip-path="url(#p99effbbcde)" d="M 50.8 459.087911 
L 853.2 459.087911 
" style="fill:none;stroke:#ffffff;stroke-linecap:square;stroke-width:0.8;"/>
     </g>
     <g id="line2d_174">
      <g>
       <use style="fill:#555555;stroke:#555555;stroke-width:0.8;" x="50.8" xlink:href="#m32c42b4129" y="459.087911"/>
      </g>
     </g>
     <g id="text_19">
      <!-- 0 -->
      <g style="fill:#555555;" transform="translate(37.4375 462.88713)scale(0.1 -0.1)">
       <use xlink:href="#DejaVuSans-48"/>
      </g>
     </g>
    </g>
    <g id="ytick_9">
     <g id="line2d_175">
      <path clip-path="url(#p99effbbcde)" d="M 50.8 414.252282 
L 853.2 414.252282 
" style="fill:none;stroke:#ffffff;stroke-linecap:square;stroke-width:0.8;"/>
     </g>
     <g id="line2d_176">
      <g>
       <use style="fill:#555555;stroke:#555555;stroke-width:0.8;" x="50.8" xlink:href="#m32c42b4129" y="414.252282"/>
      </g>
     </g>
     <g id="text_20">
      <!-- 10 -->
      <g style="fill:#555555;" transform="translate(31.075 418.051501)scale(0.1 -0.1)">
       <use xlink:href="#DejaVuSans-49"/>
       <use x="63.623047" xlink:href="#DejaVuSans-48"/>
      </g>
     </g>
    </g>
    <g id="ytick_10">
     <g id="line2d_177">
      <path clip-path="url(#p99effbbcde)" d="M 50.8 369.416653 
L 853.2 369.416653 
" style="fill:none;stroke:#ffffff;stroke-linecap:square;stroke-width:0.8;"/>
     </g>
     <g id="line2d_178">
      <g>
       <use style="fill:#555555;stroke:#555555;stroke-width:0.8;" x="50.8" xlink:href="#m32c42b4129" y="369.416653"/>
      </g>
     </g>
     <g id="text_21">
      <!-- 20 -->
      <g style="fill:#555555;" transform="translate(31.075 373.215872)scale(0.1 -0.1)">
       <use xlink:href="#DejaVuSans-50"/>
       <use x="63.623047" xlink:href="#DejaVuSans-48"/>
      </g>
     </g>
    </g>
    <g id="ytick_11">
     <g id="line2d_179">
      <path clip-path="url(#p99effbbcde)" d="M 50.8 324.581024 
L 853.2 324.581024 
" style="fill:none;stroke:#ffffff;stroke-linecap:square;stroke-width:0.8;"/>
     </g>
     <g id="line2d_180">
      <g>
       <use style="fill:#555555;stroke:#555555;stroke-width:0.8;" x="50.8" xlink:href="#m32c42b4129" y="324.581024"/>
      </g>
     </g>
     <g id="text_22">
      <!-- 30 -->
      <g style="fill:#555555;" transform="translate(31.075 328.380243)scale(0.1 -0.1)">
       <use xlink:href="#DejaVuSans-51"/>
       <use x="63.623047" xlink:href="#DejaVuSans-48"/>
      </g>
     </g>
    </g>
    <g id="ytick_12">
     <g id="line2d_181">
      <path clip-path="url(#p99effbbcde)" d="M 50.8 279.745395 
L 853.2 279.745395 
" style="fill:none;stroke:#ffffff;stroke-linecap:square;stroke-width:0.8;"/>
     </g>
     <g id="line2d_182">
      <g>
       <use style="fill:#555555;stroke:#555555;stroke-width:0.8;" x="50.8" xlink:href="#m32c42b4129" y="279.745395"/>
      </g>
     </g>
     <g id="text_23">
      <!-- 40 -->
      <g style="fill:#555555;" transform="translate(31.075 283.544614)scale(0.1 -0.1)">
       <use xlink:href="#DejaVuSans-52"/>
       <use x="63.623047" xlink:href="#DejaVuSans-48"/>
      </g>
     </g>
    </g>
    <g id="ytick_13">
     <g id="line2d_183">
      <g>
       <use style="fill:#555555;stroke:#555555;stroke-width:0.6;" x="50.8" xlink:href="#m255dafd77d" y="436.670096"/>
      </g>
     </g>
    </g>
    <g id="ytick_14">
     <g id="line2d_184">
      <g>
       <use style="fill:#555555;stroke:#555555;stroke-width:0.6;" x="50.8" xlink:href="#m255dafd77d" y="391.834467"/>
      </g>
     </g>
    </g>
    <g id="ytick_15">
     <g id="line2d_185">
      <g>
       <use style="fill:#555555;stroke:#555555;stroke-width:0.6;" x="50.8" xlink:href="#m255dafd77d" y="346.998838"/>
      </g>
     </g>
    </g>
    <g id="ytick_16">
     <g id="line2d_186">
      <g>
       <use style="fill:#555555;stroke:#555555;stroke-width:0.6;" x="50.8" xlink:href="#m255dafd77d" y="302.163209"/>
      </g>
     </g>
    </g>
    <g id="text_24">
     <!-- Median #comments / trailer -->
     <g style="fill:#555555;" transform="translate(24.579375 443.541449)rotate(-90)scale(0.12 -0.12)">
      <defs>
       <path d="M 51.125 44 
L 36.921875 44 
L 32.8125 27.6875 
L 47.125 27.6875 
z
M 43.796875 71.78125 
L 38.71875 51.515625 
L 52.984375 51.515625 
L 58.109375 71.78125 
L 65.921875 71.78125 
L 60.890625 51.515625 
L 76.125 51.515625 
L 76.125 44 
L 58.984375 44 
L 54.984375 27.6875 
L 70.515625 27.6875 
L 70.515625 20.21875 
L 53.078125 20.21875 
L 48 0 
L 40.1875 0 
L 45.21875 20.21875 
L 30.90625 20.21875 
L 25.875 0 
L 18.015625 0 
L 23.09375 20.21875 
L 7.71875 20.21875 
L 7.71875 27.6875 
L 24.90625 27.6875 
L 29 44 
L 13.28125 44 
L 13.28125 51.515625 
L 30.90625 51.515625 
L 35.890625 71.78125 
z
" id="DejaVuSans-35"/>
      </defs>
      <use xlink:href="#DejaVuSans-77"/>
      <use x="86.279297" xlink:href="#DejaVuSans-101"/>
      <use x="147.802734" xlink:href="#DejaVuSans-100"/>
      <use x="211.279297" xlink:href="#DejaVuSans-105"/>
      <use x="239.0625" xlink:href="#DejaVuSans-97"/>
      <use x="300.341797" xlink:href="#DejaVuSans-110"/>
      <use x="363.720703" xlink:href="#DejaVuSans-32"/>
      <use x="395.507812" xlink:href="#DejaVuSans-35"/>
      <use x="479.296875" xlink:href="#DejaVuSans-99"/>
      <use x="534.277344" xlink:href="#DejaVuSans-111"/>
      <use x="595.458984" xlink:href="#DejaVuSans-109"/>
      <use x="692.871094" xlink:href="#DejaVuSans-109"/>
      <use x="790.283203" xlink:href="#DejaVuSans-101"/>
      <use x="851.806641" xlink:href="#DejaVuSans-110"/>
      <use x="915.185547" xlink:href="#DejaVuSans-116"/>
      <use x="954.394531" xlink:href="#DejaVuSans-115"/>
      <use x="1006.494141" xlink:href="#DejaVuSans-32"/>
      <use x="1038.28125" xlink:href="#DejaVuSans-47"/>
      <use x="1071.972656" xlink:href="#DejaVuSans-32"/>
      <use x="1103.759766" xlink:href="#DejaVuSans-116"/>
      <use x="1142.96875" xlink:href="#DejaVuSans-114"/>
      <use x="1184.082031" xlink:href="#DejaVuSans-97"/>
      <use x="1245.361328" xlink:href="#DejaVuSans-105"/>
      <use x="1273.144531" xlink:href="#DejaVuSans-108"/>
      <use x="1300.927734" xlink:href="#DejaVuSans-101"/>
      <use x="1362.451172" xlink:href="#DejaVuSans-114"/>
     </g>
    </g>
   </g>
   <g id="line2d_187">
    <path clip-path="url(#p99effbbcde)" d="M 87.272727 387.350904 
L 99.430303 380.62556 
L 111.587879 398.559812 
L 123.745455 409.768719 
L 135.90303 407.526938 
L 148.060606 414.252282 
L 160.218182 427.702971 
L 172.375758 418.735845 
L 184.533333 414.252282 
L 196.690909 405.285156 
L 208.848485 405.285156 
L 221.006061 423.219408 
L 233.163636 414.252282 
L 245.321212 405.285156 
L 257.478788 427.702971 
L 269.636364 427.702971 
L 281.793939 414.252282 
L 293.951515 409.768719 
L 306.109091 423.219408 
L 318.266667 416.494063 
L 330.424242 420.977626 
L 342.581818 414.252282 
L 354.739394 427.702971 
L 366.89697 427.702971 
L 379.054545 427.702971 
L 391.212121 436.670096 
L 403.369697 427.702971 
L 415.527273 423.219408 
L 427.684848 427.702971 
L 439.842424 420.977626 
L 452 391.834467 
L 464.157576 378.383779 
L 476.315152 391.834467 
L 488.472727 403.043375 
L 500.630303 396.31803 
L 512.787879 405.285156 
L 524.945455 405.285156 
L 537.10303 409.768719 
L 549.260606 409.768719 
L 561.418182 420.977626 
L 573.575758 416.494063 
L 585.733333 423.219408 
L 597.890909 432.186534 
L 610.048485 418.735845 
L 622.206061 427.702971 
L 634.363636 432.186534 
L 646.521212 432.186534 
L 658.678788 432.186534 
L 670.836364 436.670096 
L 682.993939 427.702971 
L 695.151515 434.428315 
L 707.309091 432.186534 
L 719.466667 432.186534 
L 731.624242 434.428315 
L 743.781818 427.702971 
L 755.939394 427.702971 
L 768.09697 429.944752 
L 780.254545 429.944752 
L 792.412121 436.670096 
L 804.569697 436.670096 
L 816.727273 432.186534 
" style="fill:none;stroke:#348abd;stroke-linecap:square;stroke-width:1.5;"/>
   </g>
   <g id="line2d_188">
    <path clip-path="url(#p99effbbcde)" d="M 87.272727 268.536488 
L 99.430303 369.416653 
L 111.587879 353.724183 
L 123.745455 387.350904 
L 135.90303 412.0105 
L 148.060606 405.285156 
L 160.218182 409.768719 
L 172.375758 409.768719 
L 184.533333 418.735845 
L 196.690909 409.768719 
L 208.848485 418.735845 
L 221.006061 418.735845 
L 233.163636 420.977626 
L 245.321212 423.219408 
L 257.478788 423.219408 
L 269.636364 429.944752 
L 281.793939 441.153659 
L 293.951515 436.670096 
L 306.109091 438.911878 
L 318.266667 436.670096 
L 330.424242 436.670096 
L 342.581818 441.153659 
L 354.739394 441.153659 
L 366.89697 436.670096 
L 379.054545 436.670096 
L 391.212121 445.637222 
L 403.369697 441.153659 
L 415.527273 436.670096 
L 427.684848 441.153659 
L 439.842424 436.670096 
L 452 389.592686 
L 464.157576 382.867342 
L 476.315152 391.834467 
L 488.472727 400.801593 
L 500.630303 409.768719 
L 512.787879 423.219408 
L 524.945455 427.702971 
L 537.10303 423.219408 
L 549.260606 434.428315 
L 561.418182 436.670096 
L 573.575758 432.186534 
L 585.733333 441.153659 
L 597.890909 441.153659 
L 610.048485 445.637222 
L 622.206061 445.637222 
L 634.363636 450.120785 
L 646.521212 445.637222 
L 658.678788 445.637222 
L 670.836364 450.120785 
L 682.993939 450.120785 
L 695.151515 445.637222 
L 707.309091 450.120785 
L 719.466667 450.120785 
L 731.624242 450.120785 
L 743.781818 445.637222 
L 755.939394 450.120785 
L 768.09697 450.120785 
L 780.254545 450.120785 
L 792.412121 450.120785 
L 804.569697 450.120785 
L 816.727273 450.120785 
" style="fill:none;stroke:#e24a33;stroke-linecap:square;stroke-width:1.5;"/>
   </g>
   <g id="line2d_189">
    <path clip-path="url(#p99effbbcde)" d="M 452 459.2 
L 452 259.457273 
" style="fill:none;stroke:#777777;stroke-dasharray:5.55,2.4;stroke-dashoffset:0;stroke-width:1.5;"/>
   </g>
   <g id="patch_8">
    <path d="M 50.8 459.2 
L 50.8 259.457273 
" style="fill:none;stroke:#ffffff;stroke-linecap:square;stroke-linejoin:miter;"/>
   </g>
   <g id="patch_9">
    <path d="M 853.2 459.2 
L 853.2 259.457273 
" style="fill:none;stroke:#ffffff;stroke-linecap:square;stroke-linejoin:miter;"/>
   </g>
   <g id="patch_10">
    <path d="M 50.8 459.2 
L 853.2 459.2 
" style="fill:none;stroke:#ffffff;stroke-linecap:square;stroke-linejoin:miter;"/>
   </g>
   <g id="patch_11">
    <path d="M 50.8 259.457273 
L 853.2 259.457273 
" style="fill:none;stroke:#ffffff;stroke-linecap:square;stroke-linejoin:miter;"/>
   </g>
  </g>
  <g id="text_25">
   <!-- Comment discourse over time for above/below average ratings -->
   <g transform="translate(178.3725 22.2375)scale(0.16 -0.16)">
    <defs>
     <path d="M 64.40625 67.28125 
L 64.40625 56.890625 
Q 59.421875 61.53125 53.78125 63.8125 
Q 48.140625 66.109375 41.796875 66.109375 
Q 29.296875 66.109375 22.65625 58.46875 
Q 16.015625 50.828125 16.015625 36.375 
Q 16.015625 21.96875 22.65625 14.328125 
Q 29.296875 6.6875 41.796875 6.6875 
Q 48.140625 6.6875 53.78125 8.984375 
Q 59.421875 11.28125 64.40625 15.921875 
L 64.40625 5.609375 
Q 59.234375 2.09375 53.4375 0.328125 
Q 47.65625 -1.421875 41.21875 -1.421875 
Q 24.65625 -1.421875 15.125 8.703125 
Q 5.609375 18.84375 5.609375 36.375 
Q 5.609375 53.953125 15.125 64.078125 
Q 24.65625 74.21875 41.21875 74.21875 
Q 47.75 74.21875 53.53125 72.484375 
Q 59.328125 70.75 64.40625 67.28125 
z
" id="DejaVuSans-67"/>
     <path d="M 8.5 21.578125 
L 8.5 54.6875 
L 17.484375 54.6875 
L 17.484375 21.921875 
Q 17.484375 14.15625 20.5 10.265625 
Q 23.53125 6.390625 29.59375 6.390625 
Q 36.859375 6.390625 41.078125 11.03125 
Q 45.3125 15.671875 45.3125 23.6875 
L 45.3125 54.6875 
L 54.296875 54.6875 
L 54.296875 0 
L 45.3125 0 
L 45.3125 8.40625 
Q 42.046875 3.421875 37.71875 1 
Q 33.40625 -1.421875 27.6875 -1.421875 
Q 18.265625 -1.421875 13.375 4.4375 
Q 8.5 10.296875 8.5 21.578125 
z
M 31.109375 56 
z
" id="DejaVuSans-117"/>
     <path d="M 37.109375 75.984375 
L 37.109375 68.5 
L 28.515625 68.5 
Q 23.6875 68.5 21.796875 66.546875 
Q 19.921875 64.59375 19.921875 59.515625 
L 19.921875 54.6875 
L 34.71875 54.6875 
L 34.71875 47.703125 
L 19.921875 47.703125 
L 19.921875 0 
L 10.890625 0 
L 10.890625 47.703125 
L 2.296875 47.703125 
L 2.296875 54.6875 
L 10.890625 54.6875 
L 10.890625 58.5 
Q 10.890625 67.625 15.140625 71.796875 
Q 19.390625 75.984375 28.609375 75.984375 
z
" id="DejaVuSans-102"/>
    </defs>
    <use xlink:href="#DejaVuSans-67"/>
    <use x="69.824219" xlink:href="#DejaVuSans-111"/>
    <use x="131.005859" xlink:href="#DejaVuSans-109"/>
    <use x="228.417969" xlink:href="#DejaVuSans-109"/>
    <use x="325.830078" xlink:href="#DejaVuSans-101"/>
    <use x="387.353516" xlink:href="#DejaVuSans-110"/>
    <use x="450.732422" xlink:href="#DejaVuSans-116"/>
    <use x="489.941406" xlink:href="#DejaVuSans-32"/>
    <use x="521.728516" xlink:href="#DejaVuSans-100"/>
    <use x="585.205078" xlink:href="#DejaVuSans-105"/>
    <use x="612.988281" xlink:href="#DejaVuSans-115"/>
    <use x="665.087891" xlink:href="#DejaVuSans-99"/>
    <use x="720.068359" xlink:href="#DejaVuSans-111"/>
    <use x="781.25" xlink:href="#DejaVuSans-117"/>
    <use x="844.628906" xlink:href="#DejaVuSans-114"/>
    <use x="885.742188" xlink:href="#DejaVuSans-115"/>
    <use x="937.841797" xlink:href="#DejaVuSans-101"/>
    <use x="999.365234" xlink:href="#DejaVuSans-32"/>
    <use x="1031.152344" xlink:href="#DejaVuSans-111"/>
    <use x="1092.333984" xlink:href="#DejaVuSans-118"/>
    <use x="1151.513672" xlink:href="#DejaVuSans-101"/>
    <use x="1213.037109" xlink:href="#DejaVuSans-114"/>
    <use x="1254.150391" xlink:href="#DejaVuSans-32"/>
    <use x="1285.9375" xlink:href="#DejaVuSans-116"/>
    <use x="1325.146484" xlink:href="#DejaVuSans-105"/>
    <use x="1352.929688" xlink:href="#DejaVuSans-109"/>
    <use x="1450.341797" xlink:href="#DejaVuSans-101"/>
    <use x="1511.865234" xlink:href="#DejaVuSans-32"/>
    <use x="1543.652344" xlink:href="#DejaVuSans-102"/>
    <use x="1578.857422" xlink:href="#DejaVuSans-111"/>
    <use x="1640.039062" xlink:href="#DejaVuSans-114"/>
    <use x="1681.152344" xlink:href="#DejaVuSans-32"/>
    <use x="1712.939453" xlink:href="#DejaVuSans-97"/>
    <use x="1774.21875" xlink:href="#DejaVuSans-98"/>
    <use x="1837.695312" xlink:href="#DejaVuSans-111"/>
    <use x="1898.876953" xlink:href="#DejaVuSans-118"/>
    <use x="1958.056641" xlink:href="#DejaVuSans-101"/>
    <use x="2019.580078" xlink:href="#DejaVuSans-47"/>
    <use x="2053.271484" xlink:href="#DejaVuSans-98"/>
    <use x="2116.748047" xlink:href="#DejaVuSans-101"/>
    <use x="2178.271484" xlink:href="#DejaVuSans-108"/>
    <use x="2206.054688" xlink:href="#DejaVuSans-111"/>
    <use x="2267.236328" xlink:href="#DejaVuSans-119"/>
    <use x="2349.023438" xlink:href="#DejaVuSans-32"/>
    <use x="2380.810547" xlink:href="#DejaVuSans-97"/>
    <use x="2442.089844" xlink:href="#DejaVuSans-118"/>
    <use x="2501.269531" xlink:href="#DejaVuSans-101"/>
    <use x="2562.792969" xlink:href="#DejaVuSans-114"/>
    <use x="2603.90625" xlink:href="#DejaVuSans-97"/>
    <use x="2665.185547" xlink:href="#DejaVuSans-103"/>
    <use x="2728.662109" xlink:href="#DejaVuSans-101"/>
    <use x="2790.185547" xlink:href="#DejaVuSans-32"/>
    <use x="2821.972656" xlink:href="#DejaVuSans-114"/>
    <use x="2863.085938" xlink:href="#DejaVuSans-97"/>
    <use x="2924.365234" xlink:href="#DejaVuSans-116"/>
    <use x="2963.574219" xlink:href="#DejaVuSans-105"/>
    <use x="2991.357422" xlink:href="#DejaVuSans-110"/>
    <use x="3054.736328" xlink:href="#DejaVuSans-103"/>
    <use x="3118.212891" xlink:href="#DejaVuSans-115"/>
   </g>
  </g>
 </g>
 <defs>
  <clipPath id="p361abf788e">
   <rect height="199.742727" width="802.4" x="50.8" y="42.914545"/>
  </clipPath>
  <clipPath id="p99effbbcde">
   <rect height="199.742727" width="802.4" x="50.8" y="259.457273"/>
  </clipPath>
 </defs>
</svg>
