<?xml version="1.0" encoding="utf-8" standalone="no"?>
<!DOCTYPE svg PUBLIC "-//W3C//DTD SVG 1.1//EN"
  "http://www.w3.org/Graphics/SVG/1.1/DTD/svg11.dtd">
<!-- Created with matplotlib (https://matplotlib.org/) -->
<svg height="288pt" version="1.1" viewBox="0 0 432 288" width="432pt" xmlns="http://www.w3.org/2000/svg" xmlns:xlink="http://www.w3.org/1999/xlink">
 <metadata>
  <rdf:RDF xmlns:cc="http://creativecommons.org/ns#" xmlns:dc="http://purl.org/dc/elements/1.1/" xmlns:rdf="http://www.w3.org/1999/02/22-rdf-syntax-ns#">
   <cc:Work>
    <dc:type rdf:resource="http://purl.org/dc/dcmitype/StillImage"/>
    <dc:date>2022-12-17T13:30:39.757389</dc:date>
    <dc:format>image/svg+xml</dc:format>
    <dc:creator>
     <cc:Agent>
      <dc:title>Matplotlib v3.3.2, https://matplotlib.org/</dc:title>
     </cc:Agent>
    </dc:creator>
   </cc:Work>
  </rdf:RDF>
 </metadata>
 <defs>
  <style type="text/css">*{stroke-linecap:butt;stroke-linejoin:round;}</style>
 </defs>
 <g id="figure_1">
  <g id="patch_1">
   <path d="M 0 288 
L 432 288 
L 432 0 
L 0 0 
z
" style="fill:#ffffff;"/>
  </g>
  <g id="axes_1">
   <g id="patch_2">
    <path d="M 54 252 
L 388.8 252 
L 388.8 34.56 
L 54 34.56 
z
" style="fill:#eaeaea;"/>
   </g>
   <g id="matplotlib.axis_1">
    <g id="xtick_1">
     <g id="line2d_1">
      <path clip-path="url(#pe23c6c48cc)" d="M 69.942857 252 
L 69.942857 34.56 
" style="fill:none;stroke:#ffffff;stroke-linecap:square;stroke-width:0.8;"/>
     </g>
     <g id="line2d_2">
      <defs>
       <path d="M 0 0 
L 0 3.5 
" id="mb723157f93" style="stroke:#555555;stroke-width:0.8;"/>
      </defs>
      <g>
       <use style="fill:#555555;stroke:#555555;stroke-width:0.8;" x="69.942857" xlink:href="#mb723157f93" y="252"/>
      </g>
     </g>
     <g id="text_1">
      <!-- $\mathdefault{10^{0}}$ -->
      <g style="fill:#555555;" transform="translate(61.142857 266.598437)scale(0.1 -0.1)">
       <defs>
        <path d="M 12.40625 8.296875 
L 28.515625 8.296875 
L 28.515625 63.921875 
L 10.984375 60.40625 
L 10.984375 69.390625 
L 28.421875 72.90625 
L 38.28125 72.90625 
L 38.28125 8.296875 
L 54.390625 8.296875 
L 54.390625 0 
L 12.40625 0 
z
" id="DejaVuSans-49"/>
        <path d="M 31.78125 66.40625 
Q 24.171875 66.40625 20.328125 58.90625 
Q 16.5 51.421875 16.5 36.375 
Q 16.5 21.390625 20.328125 13.890625 
Q 24.171875 6.390625 31.78125 6.390625 
Q 39.453125 6.390625 43.28125 13.890625 
Q 47.125 21.390625 47.125 36.375 
Q 47.125 51.421875 43.28125 58.90625 
Q 39.453125 66.40625 31.78125 66.40625 
z
M 31.78125 74.21875 
Q 44.046875 74.21875 50.515625 64.515625 
Q 56.984375 54.828125 56.984375 36.375 
Q 56.984375 17.96875 50.515625 8.265625 
Q 44.046875 -1.421875 31.78125 -1.421875 
Q 19.53125 -1.421875 13.0625 8.265625 
Q 6.59375 17.96875 6.59375 36.375 
Q 6.59375 54.828125 13.0625 64.515625 
Q 19.53125 74.21875 31.78125 74.21875 
z
" id="DejaVuSans-48"/>
       </defs>
       <use transform="translate(0 0.765625)" xlink:href="#DejaVuSans-49"/>
       <use transform="translate(63.623047 0.765625)" xlink:href="#DejaVuSans-48"/>
       <use transform="translate(128.203125 39.046875)scale(0.7)" xlink:href="#DejaVuSans-48"/>
      </g>
     </g>
    </g>
    <g id="xtick_2">
     <g id="line2d_3">
      <path clip-path="url(#pe23c6c48cc)" d="M 142.615138 252 
L 142.615138 34.56 
" style="fill:none;stroke:#ffffff;stroke-linecap:square;stroke-width:0.8;"/>
     </g>
     <g id="line2d_4">
      <g>
       <use style="fill:#555555;stroke:#555555;stroke-width:0.8;" x="142.615138" xlink:href="#mb723157f93" y="252"/>
      </g>
     </g>
     <g id="text_2">
      <!-- $\mathdefault{10^{1}}$ -->
      <g style="fill:#555555;" transform="translate(133.815138 266.598437)scale(0.1 -0.1)">
       <use transform="translate(0 0.684375)" xlink:href="#DejaVuSans-49"/>
       <use transform="translate(63.623047 0.684375)" xlink:href="#DejaVuSans-48"/>
       <use transform="translate(128.203125 38.965625)scale(0.7)" xlink:href="#DejaVuSans-49"/>
      </g>
     </g>
    </g>
    <g id="xtick_3">
     <g id="line2d_5">
      <path clip-path="url(#pe23c6c48cc)" d="M 215.287418 252 
L 215.287418 34.56 
" style="fill:none;stroke:#ffffff;stroke-linecap:square;stroke-width:0.8;"/>
     </g>
     <g id="line2d_6">
      <g>
       <use style="fill:#555555;stroke:#555555;stroke-width:0.8;" x="215.287418" xlink:href="#mb723157f93" y="252"/>
      </g>
     </g>
     <g id="text_3">
      <!-- $\mathdefault{10^{2}}$ -->
      <g style="fill:#555555;" transform="translate(206.487418 266.598437)scale(0.1 -0.1)">
       <defs>
        <path d="M 19.1875 8.296875 
L 53.609375 8.296875 
L 53.609375 0 
L 7.328125 0 
L 7.328125 8.296875 
Q 12.9375 14.109375 22.625 23.890625 
Q 32.328125 33.6875 34.8125 36.53125 
Q 39.546875 41.84375 41.421875 45.53125 
Q 43.3125 49.21875 43.3125 52.78125 
Q 43.3125 58.59375 39.234375 62.25 
Q 35.15625 65.921875 28.609375 65.921875 
Q 23.96875 65.921875 18.8125 64.3125 
Q 13.671875 62.703125 7.8125 59.421875 
L 7.8125 69.390625 
Q 13.765625 71.78125 18.9375 73 
Q 24.125 74.21875 28.421875 74.21875 
Q 39.75 74.21875 46.484375 68.546875 
Q 53.21875 62.890625 53.21875 53.421875 
Q 53.21875 48.921875 51.53125 44.890625 
Q 49.859375 40.875 45.40625 35.40625 
Q 44.1875 33.984375 37.640625 27.21875 
Q 31.109375 20.453125 19.1875 8.296875 
z
" id="DejaVuSans-50"/>
       </defs>
       <use transform="translate(0 0.765625)" xlink:href="#DejaVuSans-49"/>
       <use transform="translate(63.623047 0.765625)" xlink:href="#DejaVuSans-48"/>
       <use transform="translate(128.203125 39.046875)scale(0.7)" xlink:href="#DejaVuSans-50"/>
      </g>
     </g>
    </g>
    <g id="xtick_4">
     <g id="line2d_7">
      <path clip-path="url(#pe23c6c48cc)" d="M 287.959699 252 
L 287.959699 34.56 
" style="fill:none;stroke:#ffffff;stroke-linecap:square;stroke-width:0.8;"/>
     </g>
     <g id="line2d_8">
      <g>
       <use style="fill:#555555;stroke:#555555;stroke-width:0.8;" x="287.959699" xlink:href="#mb723157f93" y="252"/>
      </g>
     </g>
     <g id="text_4">
      <!-- $\mathdefault{10^{3}}$ -->
      <g style="fill:#555555;" transform="translate(279.159699 266.598437)scale(0.1 -0.1)">
       <defs>
        <path d="M 40.578125 39.3125 
Q 47.65625 37.796875 51.625 33 
Q 55.609375 28.21875 55.609375 21.1875 
Q 55.609375 10.40625 48.1875 4.484375 
Q 40.765625 -1.421875 27.09375 -1.421875 
Q 22.515625 -1.421875 17.65625 -0.515625 
Q 12.796875 0.390625 7.625 2.203125 
L 7.625 11.71875 
Q 11.71875 9.328125 16.59375 8.109375 
Q 21.484375 6.890625 26.8125 6.890625 
Q 36.078125 6.890625 40.9375 10.546875 
Q 45.796875 14.203125 45.796875 21.1875 
Q 45.796875 27.640625 41.28125 31.265625 
Q 36.765625 34.90625 28.71875 34.90625 
L 20.21875 34.90625 
L 20.21875 43.015625 
L 29.109375 43.015625 
Q 36.375 43.015625 40.234375 45.921875 
Q 44.09375 48.828125 44.09375 54.296875 
Q 44.09375 59.90625 40.109375 62.90625 
Q 36.140625 65.921875 28.71875 65.921875 
Q 24.65625 65.921875 20.015625 65.03125 
Q 15.375 64.15625 9.8125 62.3125 
L 9.8125 71.09375 
Q 15.4375 72.65625 20.34375 73.4375 
Q 25.25 74.21875 29.59375 74.21875 
Q 40.828125 74.21875 47.359375 69.109375 
Q 53.90625 64.015625 53.90625 55.328125 
Q 53.90625 49.265625 50.4375 45.09375 
Q 46.96875 40.921875 40.578125 39.3125 
z
" id="DejaVuSans-51"/>
       </defs>
       <use transform="translate(0 0.765625)" xlink:href="#DejaVuSans-49"/>
       <use transform="translate(63.623047 0.765625)" xlink:href="#DejaVuSans-48"/>
       <use transform="translate(128.203125 39.046875)scale(0.7)" xlink:href="#DejaVuSans-51"/>
      </g>
     </g>
    </g>
    <g id="xtick_5">
     <g id="line2d_9">
      <path clip-path="url(#pe23c6c48cc)" d="M 360.63198 252 
L 360.63198 34.56 
" style="fill:none;stroke:#ffffff;stroke-linecap:square;stroke-width:0.8;"/>
     </g>
     <g id="line2d_10">
      <g>
       <use style="fill:#555555;stroke:#555555;stroke-width:0.8;" x="360.63198" xlink:href="#mb723157f93" y="252"/>
      </g>
     </g>
     <g id="text_5">
      <!-- $\mathdefault{10^{4}}$ -->
      <g style="fill:#555555;" transform="translate(351.83198 266.598437)scale(0.1 -0.1)">
       <defs>
        <path d="M 37.796875 64.3125 
L 12.890625 25.390625 
L 37.796875 25.390625 
z
M 35.203125 72.90625 
L 47.609375 72.90625 
L 47.609375 25.390625 
L 58.015625 25.390625 
L 58.015625 17.1875 
L 47.609375 17.1875 
L 47.609375 0 
L 37.796875 0 
L 37.796875 17.1875 
L 4.890625 17.1875 
L 4.890625 26.703125 
z
" id="DejaVuSans-52"/>
       </defs>
       <use transform="translate(0 0.684375)" xlink:href="#DejaVuSans-49"/>
       <use transform="translate(63.623047 0.684375)" xlink:href="#DejaVuSans-48"/>
       <use transform="translate(128.203125 38.965625)scale(0.7)" xlink:href="#DejaVuSans-52"/>
      </g>
     </g>
    </g>
    <g id="xtick_6">
     <g id="line2d_11">
      <defs>
       <path d="M 0 0 
L 0 2 
" id="mbd3bbfc119" style="stroke:#555555;stroke-width:0.6;"/>
      </defs>
      <g>
       <use style="fill:#555555;stroke:#555555;stroke-width:0.6;" x="58.685778" xlink:href="#mbd3bbfc119" y="252"/>
      </g>
     </g>
    </g>
    <g id="xtick_7">
     <g id="line2d_12">
      <g>
       <use style="fill:#555555;stroke:#555555;stroke-width:0.6;" x="62.900185" xlink:href="#mbd3bbfc119" y="252"/>
      </g>
     </g>
    </g>
    <g id="xtick_8">
     <g id="line2d_13">
      <g>
       <use style="fill:#555555;stroke:#555555;stroke-width:0.6;" x="66.617556" xlink:href="#mbd3bbfc119" y="252"/>
      </g>
     </g>
    </g>
    <g id="xtick_9">
     <g id="line2d_14">
      <g>
       <use style="fill:#555555;stroke:#555555;stroke-width:0.6;" x="91.819393" xlink:href="#mbd3bbfc119" y="252"/>
      </g>
     </g>
    </g>
    <g id="xtick_10">
     <g id="line2d_15">
      <g>
       <use style="fill:#555555;stroke:#555555;stroke-width:0.6;" x="104.616347" xlink:href="#mbd3bbfc119" y="252"/>
      </g>
     </g>
    </g>
    <g id="xtick_11">
     <g id="line2d_16">
      <g>
       <use style="fill:#555555;stroke:#555555;stroke-width:0.6;" x="113.69593" xlink:href="#mbd3bbfc119" y="252"/>
      </g>
     </g>
    </g>
    <g id="xtick_12">
     <g id="line2d_17">
      <g>
       <use style="fill:#555555;stroke:#555555;stroke-width:0.6;" x="120.738601" xlink:href="#mbd3bbfc119" y="252"/>
      </g>
     </g>
    </g>
    <g id="xtick_13">
     <g id="line2d_18">
      <g>
       <use style="fill:#555555;stroke:#555555;stroke-width:0.6;" x="126.492883" xlink:href="#mbd3bbfc119" y="252"/>
      </g>
     </g>
    </g>
    <g id="xtick_14">
     <g id="line2d_19">
      <g>
       <use style="fill:#555555;stroke:#555555;stroke-width:0.6;" x="131.358059" xlink:href="#mbd3bbfc119" y="252"/>
      </g>
     </g>
    </g>
    <g id="xtick_15">
     <g id="line2d_20">
      <g>
       <use style="fill:#555555;stroke:#555555;stroke-width:0.6;" x="135.572466" xlink:href="#mbd3bbfc119" y="252"/>
      </g>
     </g>
    </g>
    <g id="xtick_16">
     <g id="line2d_21">
      <g>
       <use style="fill:#555555;stroke:#555555;stroke-width:0.6;" x="139.289837" xlink:href="#mbd3bbfc119" y="252"/>
      </g>
     </g>
    </g>
    <g id="xtick_17">
     <g id="line2d_22">
      <g>
       <use style="fill:#555555;stroke:#555555;stroke-width:0.6;" x="164.491674" xlink:href="#mbd3bbfc119" y="252"/>
      </g>
     </g>
    </g>
    <g id="xtick_18">
     <g id="line2d_23">
      <g>
       <use style="fill:#555555;stroke:#555555;stroke-width:0.6;" x="177.288628" xlink:href="#mbd3bbfc119" y="252"/>
      </g>
     </g>
    </g>
    <g id="xtick_19">
     <g id="line2d_24">
      <g>
       <use style="fill:#555555;stroke:#555555;stroke-width:0.6;" x="186.36821" xlink:href="#mbd3bbfc119" y="252"/>
      </g>
     </g>
    </g>
    <g id="xtick_20">
     <g id="line2d_25">
      <g>
       <use style="fill:#555555;stroke:#555555;stroke-width:0.6;" x="193.410882" xlink:href="#mbd3bbfc119" y="252"/>
      </g>
     </g>
    </g>
    <g id="xtick_21">
     <g id="line2d_26">
      <g>
       <use style="fill:#555555;stroke:#555555;stroke-width:0.6;" x="199.165164" xlink:href="#mbd3bbfc119" y="252"/>
      </g>
     </g>
    </g>
    <g id="xtick_22">
     <g id="line2d_27">
      <g>
       <use style="fill:#555555;stroke:#555555;stroke-width:0.6;" x="204.03034" xlink:href="#mbd3bbfc119" y="252"/>
      </g>
     </g>
    </g>
    <g id="xtick_23">
     <g id="line2d_28">
      <g>
       <use style="fill:#555555;stroke:#555555;stroke-width:0.6;" x="208.244747" xlink:href="#mbd3bbfc119" y="252"/>
      </g>
     </g>
    </g>
    <g id="xtick_24">
     <g id="line2d_29">
      <g>
       <use style="fill:#555555;stroke:#555555;stroke-width:0.6;" x="211.962117" xlink:href="#mbd3bbfc119" y="252"/>
      </g>
     </g>
    </g>
    <g id="xtick_25">
     <g id="line2d_30">
      <g>
       <use style="fill:#555555;stroke:#555555;stroke-width:0.6;" x="237.163955" xlink:href="#mbd3bbfc119" y="252"/>
      </g>
     </g>
    </g>
    <g id="xtick_26">
     <g id="line2d_31">
      <g>
       <use style="fill:#555555;stroke:#555555;stroke-width:0.6;" x="249.960908" xlink:href="#mbd3bbfc119" y="252"/>
      </g>
     </g>
    </g>
    <g id="xtick_27">
     <g id="line2d_32">
      <g>
       <use style="fill:#555555;stroke:#555555;stroke-width:0.6;" x="259.040491" xlink:href="#mbd3bbfc119" y="252"/>
      </g>
     </g>
    </g>
    <g id="xtick_28">
     <g id="line2d_33">
      <g>
       <use style="fill:#555555;stroke:#555555;stroke-width:0.6;" x="266.083163" xlink:href="#mbd3bbfc119" y="252"/>
      </g>
     </g>
    </g>
    <g id="xtick_29">
     <g id="line2d_34">
      <g>
       <use style="fill:#555555;stroke:#555555;stroke-width:0.6;" x="271.837445" xlink:href="#mbd3bbfc119" y="252"/>
      </g>
     </g>
    </g>
    <g id="xtick_30">
     <g id="line2d_35">
      <g>
       <use style="fill:#555555;stroke:#555555;stroke-width:0.6;" x="276.70262" xlink:href="#mbd3bbfc119" y="252"/>
      </g>
     </g>
    </g>
    <g id="xtick_31">
     <g id="line2d_36">
      <g>
       <use style="fill:#555555;stroke:#555555;stroke-width:0.6;" x="280.917027" xlink:href="#mbd3bbfc119" y="252"/>
      </g>
     </g>
    </g>
    <g id="xtick_32">
     <g id="line2d_37">
      <g>
       <use style="fill:#555555;stroke:#555555;stroke-width:0.6;" x="284.634398" xlink:href="#mbd3bbfc119" y="252"/>
      </g>
     </g>
    </g>
    <g id="xtick_33">
     <g id="line2d_38">
      <g>
       <use style="fill:#555555;stroke:#555555;stroke-width:0.6;" x="309.836235" xlink:href="#mbd3bbfc119" y="252"/>
      </g>
     </g>
    </g>
    <g id="xtick_34">
     <g id="line2d_39">
      <g>
       <use style="fill:#555555;stroke:#555555;stroke-width:0.6;" x="322.633189" xlink:href="#mbd3bbfc119" y="252"/>
      </g>
     </g>
    </g>
    <g id="xtick_35">
     <g id="line2d_40">
      <g>
       <use style="fill:#555555;stroke:#555555;stroke-width:0.6;" x="331.712772" xlink:href="#mbd3bbfc119" y="252"/>
      </g>
     </g>
    </g>
    <g id="xtick_36">
     <g id="line2d_41">
      <g>
       <use style="fill:#555555;stroke:#555555;stroke-width:0.6;" x="338.755443" xlink:href="#mbd3bbfc119" y="252"/>
      </g>
     </g>
    </g>
    <g id="xtick_37">
     <g id="line2d_42">
      <g>
       <use style="fill:#555555;stroke:#555555;stroke-width:0.6;" x="344.509725" xlink:href="#mbd3bbfc119" y="252"/>
      </g>
     </g>
    </g>
    <g id="xtick_38">
     <g id="line2d_43">
      <g>
       <use style="fill:#555555;stroke:#555555;stroke-width:0.6;" x="349.374901" xlink:href="#mbd3bbfc119" y="252"/>
      </g>
     </g>
    </g>
    <g id="xtick_39">
     <g id="line2d_44">
      <g>
       <use style="fill:#555555;stroke:#555555;stroke-width:0.6;" x="353.589308" xlink:href="#mbd3bbfc119" y="252"/>
      </g>
     </g>
    </g>
    <g id="xtick_40">
     <g id="line2d_45">
      <g>
       <use style="fill:#555555;stroke:#555555;stroke-width:0.6;" x="357.306679" xlink:href="#mbd3bbfc119" y="252"/>
      </g>
     </g>
    </g>
    <g id="xtick_41">
     <g id="line2d_46">
      <g>
       <use style="fill:#555555;stroke:#555555;stroke-width:0.6;" x="382.508516" xlink:href="#mbd3bbfc119" y="252"/>
      </g>
     </g>
    </g>
    <g id="text_6">
     <!-- Log number of comments -->
     <g style="fill:#555555;" transform="translate(144.129375 281.79625)scale(0.12 -0.12)">
      <defs>
       <path d="M 9.8125 72.90625 
L 19.671875 72.90625 
L 19.671875 8.296875 
L 55.171875 8.296875 
L 55.171875 0 
L 9.8125 0 
z
" id="DejaVuSans-76"/>
       <path d="M 30.609375 48.390625 
Q 23.390625 48.390625 19.1875 42.75 
Q 14.984375 37.109375 14.984375 27.296875 
Q 14.984375 17.484375 19.15625 11.84375 
Q 23.34375 6.203125 30.609375 6.203125 
Q 37.796875 6.203125 41.984375 11.859375 
Q 46.1875 17.53125 46.1875 27.296875 
Q 46.1875 37.015625 41.984375 42.703125 
Q 37.796875 48.390625 30.609375 48.390625 
z
M 30.609375 56 
Q 42.328125 56 49.015625 48.375 
Q 55.71875 40.765625 55.71875 27.296875 
Q 55.71875 13.875 49.015625 6.21875 
Q 42.328125 -1.421875 30.609375 -1.421875 
Q 18.84375 -1.421875 12.171875 6.21875 
Q 5.515625 13.875 5.515625 27.296875 
Q 5.515625 40.765625 12.171875 48.375 
Q 18.84375 56 30.609375 56 
z
" id="DejaVuSans-111"/>
       <path d="M 45.40625 27.984375 
Q 45.40625 37.75 41.375 43.109375 
Q 37.359375 48.484375 30.078125 48.484375 
Q 22.859375 48.484375 18.828125 43.109375 
Q 14.796875 37.75 14.796875 27.984375 
Q 14.796875 18.265625 18.828125 12.890625 
Q 22.859375 7.515625 30.078125 7.515625 
Q 37.359375 7.515625 41.375 12.890625 
Q 45.40625 18.265625 45.40625 27.984375 
z
M 54.390625 6.78125 
Q 54.390625 -7.171875 48.1875 -13.984375 
Q 42 -20.796875 29.203125 -20.796875 
Q 24.46875 -20.796875 20.265625 -20.09375 
Q 16.0625 -19.390625 12.109375 -17.921875 
L 12.109375 -9.1875 
Q 16.0625 -11.328125 19.921875 -12.34375 
Q 23.78125 -13.375 27.78125 -13.375 
Q 36.625 -13.375 41.015625 -8.765625 
Q 45.40625 -4.15625 45.40625 5.171875 
L 45.40625 9.625 
Q 42.625 4.78125 38.28125 2.390625 
Q 33.9375 0 27.875 0 
Q 17.828125 0 11.671875 7.65625 
Q 5.515625 15.328125 5.515625 27.984375 
Q 5.515625 40.671875 11.671875 48.328125 
Q 17.828125 56 27.875 56 
Q 33.9375 56 38.28125 53.609375 
Q 42.625 51.21875 45.40625 46.390625 
L 45.40625 54.6875 
L 54.390625 54.6875 
z
" id="DejaVuSans-103"/>
       <path id="DejaVuSans-32"/>
       <path d="M 54.890625 33.015625 
L 54.890625 0 
L 45.90625 0 
L 45.90625 32.71875 
Q 45.90625 40.484375 42.875 44.328125 
Q 39.84375 48.1875 33.796875 48.1875 
Q 26.515625 48.1875 22.3125 43.546875 
Q 18.109375 38.921875 18.109375 30.90625 
L 18.109375 0 
L 9.078125 0 
L 9.078125 54.6875 
L 18.109375 54.6875 
L 18.109375 46.1875 
Q 21.34375 51.125 25.703125 53.5625 
Q 30.078125 56 35.796875 56 
Q 45.21875 56 50.046875 50.171875 
Q 54.890625 44.34375 54.890625 33.015625 
z
" id="DejaVuSans-110"/>
       <path d="M 8.5 21.578125 
L 8.5 54.6875 
L 17.484375 54.6875 
L 17.484375 21.921875 
Q 17.484375 14.15625 20.5 10.265625 
Q 23.53125 6.390625 29.59375 6.390625 
Q 36.859375 6.390625 41.078125 11.03125 
Q 45.3125 15.671875 45.3125 23.6875 
L 45.3125 54.6875 
L 54.296875 54.6875 
L 54.296875 0 
L 45.3125 0 
L 45.3125 8.40625 
Q 42.046875 3.421875 37.71875 1 
Q 33.40625 -1.421875 27.6875 -1.421875 
Q 18.265625 -1.421875 13.375 4.4375 
Q 8.5 10.296875 8.5 21.578125 
z
M 31.109375 56 
z
" id="DejaVuSans-117"/>
       <path d="M 52 44.1875 
Q 55.375 50.25 60.0625 53.125 
Q 64.75 56 71.09375 56 
Q 79.640625 56 84.28125 50.015625 
Q 88.921875 44.046875 88.921875 33.015625 
L 88.921875 0 
L 79.890625 0 
L 79.890625 32.71875 
Q 79.890625 40.578125 77.09375 44.375 
Q 74.3125 48.1875 68.609375 48.1875 
Q 61.625 48.1875 57.5625 43.546875 
Q 53.515625 38.921875 53.515625 30.90625 
L 53.515625 0 
L 44.484375 0 
L 44.484375 32.71875 
Q 44.484375 40.625 41.703125 44.40625 
Q 38.921875 48.1875 33.109375 48.1875 
Q 26.21875 48.1875 22.15625 43.53125 
Q 18.109375 38.875 18.109375 30.90625 
L 18.109375 0 
L 9.078125 0 
L 9.078125 54.6875 
L 18.109375 54.6875 
L 18.109375 46.1875 
Q 21.1875 51.21875 25.484375 53.609375 
Q 29.78125 56 35.6875 56 
Q 41.65625 56 45.828125 52.96875 
Q 50 49.953125 52 44.1875 
z
" id="DejaVuSans-109"/>
       <path d="M 48.6875 27.296875 
Q 48.6875 37.203125 44.609375 42.84375 
Q 40.53125 48.484375 33.40625 48.484375 
Q 26.265625 48.484375 22.1875 42.84375 
Q 18.109375 37.203125 18.109375 27.296875 
Q 18.109375 17.390625 22.1875 11.75 
Q 26.265625 6.109375 33.40625 6.109375 
Q 40.53125 6.109375 44.609375 11.75 
Q 48.6875 17.390625 48.6875 27.296875 
z
M 18.109375 46.390625 
Q 20.953125 51.265625 25.265625 53.625 
Q 29.59375 56 35.59375 56 
Q 45.5625 56 51.78125 48.09375 
Q 58.015625 40.1875 58.015625 27.296875 
Q 58.015625 14.40625 51.78125 6.484375 
Q 45.5625 -1.421875 35.59375 -1.421875 
Q 29.59375 -1.421875 25.265625 0.953125 
Q 20.953125 3.328125 18.109375 8.203125 
L 18.109375 0 
L 9.078125 0 
L 9.078125 75.984375 
L 18.109375 75.984375 
z
" id="DejaVuSans-98"/>
       <path d="M 56.203125 29.59375 
L 56.203125 25.203125 
L 14.890625 25.203125 
Q 15.484375 15.921875 20.484375 11.0625 
Q 25.484375 6.203125 34.421875 6.203125 
Q 39.59375 6.203125 44.453125 7.46875 
Q 49.3125 8.734375 54.109375 11.28125 
L 54.109375 2.78125 
Q 49.265625 0.734375 44.1875 -0.34375 
Q 39.109375 -1.421875 33.890625 -1.421875 
Q 20.796875 -1.421875 13.15625 6.1875 
Q 5.515625 13.8125 5.515625 26.8125 
Q 5.515625 40.234375 12.765625 48.109375 
Q 20.015625 56 32.328125 56 
Q 43.359375 56 49.78125 48.890625 
Q 56.203125 41.796875 56.203125 29.59375 
z
M 47.21875 32.234375 
Q 47.125 39.59375 43.09375 43.984375 
Q 39.0625 48.390625 32.421875 48.390625 
Q 24.90625 48.390625 20.390625 44.140625 
Q 15.875 39.890625 15.1875 32.171875 
z
" id="DejaVuSans-101"/>
       <path d="M 41.109375 46.296875 
Q 39.59375 47.171875 37.8125 47.578125 
Q 36.03125 48 33.890625 48 
Q 26.265625 48 22.1875 43.046875 
Q 18.109375 38.09375 18.109375 28.8125 
L 18.109375 0 
L 9.078125 0 
L 9.078125 54.6875 
L 18.109375 54.6875 
L 18.109375 46.1875 
Q 20.953125 51.171875 25.484375 53.578125 
Q 30.03125 56 36.53125 56 
Q 37.453125 56 38.578125 55.875 
Q 39.703125 55.765625 41.0625 55.515625 
z
" id="DejaVuSans-114"/>
       <path d="M 37.109375 75.984375 
L 37.109375 68.5 
L 28.515625 68.5 
Q 23.6875 68.5 21.796875 66.546875 
Q 19.921875 64.59375 19.921875 59.515625 
L 19.921875 54.6875 
L 34.71875 54.6875 
L 34.71875 47.703125 
L 19.921875 47.703125 
L 19.921875 0 
L 10.890625 0 
L 10.890625 47.703125 
L 2.296875 47.703125 
L 2.296875 54.6875 
L 10.890625 54.6875 
L 10.890625 58.5 
Q 10.890625 67.625 15.140625 71.796875 
Q 19.390625 75.984375 28.609375 75.984375 
z
" id="DejaVuSans-102"/>
       <path d="M 48.78125 52.59375 
L 48.78125 44.1875 
Q 44.96875 46.296875 41.140625 47.34375 
Q 37.3125 48.390625 33.40625 48.390625 
Q 24.65625 48.390625 19.8125 42.84375 
Q 14.984375 37.3125 14.984375 27.296875 
Q 14.984375 17.28125 19.8125 11.734375 
Q 24.65625 6.203125 33.40625 6.203125 
Q 37.3125 6.203125 41.140625 7.25 
Q 44.96875 8.296875 48.78125 10.40625 
L 48.78125 2.09375 
Q 45.015625 0.34375 40.984375 -0.53125 
Q 36.96875 -1.421875 32.421875 -1.421875 
Q 20.0625 -1.421875 12.78125 6.34375 
Q 5.515625 14.109375 5.515625 27.296875 
Q 5.515625 40.671875 12.859375 48.328125 
Q 20.21875 56 33.015625 56 
Q 37.15625 56 41.109375 55.140625 
Q 45.0625 54.296875 48.78125 52.59375 
z
" id="DejaVuSans-99"/>
       <path d="M 18.3125 70.21875 
L 18.3125 54.6875 
L 36.8125 54.6875 
L 36.8125 47.703125 
L 18.3125 47.703125 
L 18.3125 18.015625 
Q 18.3125 11.328125 20.140625 9.421875 
Q 21.96875 7.515625 27.59375 7.515625 
L 36.8125 7.515625 
L 36.8125 0 
L 27.59375 0 
Q 17.1875 0 13.234375 3.875 
Q 9.28125 7.765625 9.28125 18.015625 
L 9.28125 47.703125 
L 2.6875 47.703125 
L 2.6875 54.6875 
L 9.28125 54.6875 
L 9.28125 70.21875 
z
" id="DejaVuSans-116"/>
       <path d="M 44.28125 53.078125 
L 44.28125 44.578125 
Q 40.484375 46.53125 36.375 47.5 
Q 32.28125 48.484375 27.875 48.484375 
Q 21.1875 48.484375 17.84375 46.4375 
Q 14.5 44.390625 14.5 40.28125 
Q 14.5 37.15625 16.890625 35.375 
Q 19.28125 33.59375 26.515625 31.984375 
L 29.59375 31.296875 
Q 39.15625 29.25 43.1875 25.515625 
Q 47.21875 21.78125 47.21875 15.09375 
Q 47.21875 7.46875 41.1875 3.015625 
Q 35.15625 -1.421875 24.609375 -1.421875 
Q 20.21875 -1.421875 15.453125 -0.5625 
Q 10.6875 0.296875 5.421875 2 
L 5.421875 11.28125 
Q 10.40625 8.6875 15.234375 7.390625 
Q 20.0625 6.109375 24.8125 6.109375 
Q 31.15625 6.109375 34.5625 8.28125 
Q 37.984375 10.453125 37.984375 14.40625 
Q 37.984375 18.0625 35.515625 20.015625 
Q 33.0625 21.96875 24.703125 23.78125 
L 21.578125 24.515625 
Q 13.234375 26.265625 9.515625 29.90625 
Q 5.8125 33.546875 5.8125 39.890625 
Q 5.8125 47.609375 11.28125 51.796875 
Q 16.75 56 26.8125 56 
Q 31.78125 56 36.171875 55.265625 
Q 40.578125 54.546875 44.28125 53.078125 
z
" id="DejaVuSans-115"/>
      </defs>
      <use xlink:href="#DejaVuSans-76"/>
      <use x="53.962891" xlink:href="#DejaVuSans-111"/>
      <use x="115.144531" xlink:href="#DejaVuSans-103"/>
      <use x="178.621094" xlink:href="#DejaVuSans-32"/>
      <use x="210.408203" xlink:href="#DejaVuSans-110"/>
      <use x="273.787109" xlink:href="#DejaVuSans-117"/>
      <use x="337.166016" xlink:href="#DejaVuSans-109"/>
      <use x="434.578125" xlink:href="#DejaVuSans-98"/>
      <use x="498.054688" xlink:href="#DejaVuSans-101"/>
      <use x="559.578125" xlink:href="#DejaVuSans-114"/>
      <use x="600.691406" xlink:href="#DejaVuSans-32"/>
      <use x="632.478516" xlink:href="#DejaVuSans-111"/>
      <use x="693.660156" xlink:href="#DejaVuSans-102"/>
      <use x="728.865234" xlink:href="#DejaVuSans-32"/>
      <use x="760.652344" xlink:href="#DejaVuSans-99"/>
      <use x="815.632812" xlink:href="#DejaVuSans-111"/>
      <use x="876.814453" xlink:href="#DejaVuSans-109"/>
      <use x="974.226562" xlink:href="#DejaVuSans-109"/>
      <use x="1071.638672" xlink:href="#DejaVuSans-101"/>
      <use x="1133.162109" xlink:href="#DejaVuSans-110"/>
      <use x="1196.541016" xlink:href="#DejaVuSans-116"/>
      <use x="1235.75" xlink:href="#DejaVuSans-115"/>
     </g>
    </g>
   </g>
   <g id="matplotlib.axis_2">
    <g id="ytick_1">
     <g id="line2d_47">
      <path clip-path="url(#pe23c6c48cc)" d="M 54 252 
L 388.8 252 
" style="fill:none;stroke:#ffffff;stroke-linecap:square;stroke-width:0.8;"/>
     </g>
     <g id="line2d_48">
      <defs>
       <path d="M 0 0 
L -3.5 0 
" id="m514e526423" style="stroke:#555555;stroke-width:0.8;"/>
      </defs>
      <g>
       <use style="fill:#555555;stroke:#555555;stroke-width:0.8;" x="54" xlink:href="#m514e526423" y="252"/>
      </g>
     </g>
     <g id="text_7">
      <!-- 0.0 -->
      <g style="fill:#555555;" transform="translate(31.096875 255.799219)scale(0.1 -0.1)">
       <defs>
        <path d="M 10.6875 12.40625 
L 21 12.40625 
L 21 0 
L 10.6875 0 
z
" id="DejaVuSans-46"/>
       </defs>
       <use xlink:href="#DejaVuSans-48"/>
       <use x="63.623047" xlink:href="#DejaVuSans-46"/>
       <use x="95.410156" xlink:href="#DejaVuSans-48"/>
      </g>
     </g>
    </g>
    <g id="ytick_2">
     <g id="line2d_49">
      <path clip-path="url(#pe23c6c48cc)" d="M 54 210.582857 
L 388.8 210.582857 
" style="fill:none;stroke:#ffffff;stroke-linecap:square;stroke-width:0.8;"/>
     </g>
     <g id="line2d_50">
      <g>
       <use style="fill:#555555;stroke:#555555;stroke-width:0.8;" x="54" xlink:href="#m514e526423" y="210.582857"/>
      </g>
     </g>
     <g id="text_8">
      <!-- 0.2 -->
      <g style="fill:#555555;" transform="translate(31.096875 214.382076)scale(0.1 -0.1)">
       <use xlink:href="#DejaVuSans-48"/>
       <use x="63.623047" xlink:href="#DejaVuSans-46"/>
       <use x="95.410156" xlink:href="#DejaVuSans-50"/>
      </g>
     </g>
    </g>
    <g id="ytick_3">
     <g id="line2d_51">
      <path clip-path="url(#pe23c6c48cc)" d="M 54 169.165714 
L 388.8 169.165714 
" style="fill:none;stroke:#ffffff;stroke-linecap:square;stroke-width:0.8;"/>
     </g>
     <g id="line2d_52">
      <g>
       <use style="fill:#555555;stroke:#555555;stroke-width:0.8;" x="54" xlink:href="#m514e526423" y="169.165714"/>
      </g>
     </g>
     <g id="text_9">
      <!-- 0.4 -->
      <g style="fill:#555555;" transform="translate(31.096875 172.964933)scale(0.1 -0.1)">
       <use xlink:href="#DejaVuSans-48"/>
       <use x="63.623047" xlink:href="#DejaVuSans-46"/>
       <use x="95.410156" xlink:href="#DejaVuSans-52"/>
      </g>
     </g>
    </g>
    <g id="ytick_4">
     <g id="line2d_53">
      <path clip-path="url(#pe23c6c48cc)" d="M 54 127.748571 
L 388.8 127.748571 
" style="fill:none;stroke:#ffffff;stroke-linecap:square;stroke-width:0.8;"/>
     </g>
     <g id="line2d_54">
      <g>
       <use style="fill:#555555;stroke:#555555;stroke-width:0.8;" x="54" xlink:href="#m514e526423" y="127.748571"/>
      </g>
     </g>
     <g id="text_10">
      <!-- 0.6 -->
      <g style="fill:#555555;" transform="translate(31.096875 131.54779)scale(0.1 -0.1)">
       <defs>
        <path d="M 33.015625 40.375 
Q 26.375 40.375 22.484375 35.828125 
Q 18.609375 31.296875 18.609375 23.390625 
Q 18.609375 15.53125 22.484375 10.953125 
Q 26.375 6.390625 33.015625 6.390625 
Q 39.65625 6.390625 43.53125 10.953125 
Q 47.40625 15.53125 47.40625 23.390625 
Q 47.40625 31.296875 43.53125 35.828125 
Q 39.65625 40.375 33.015625 40.375 
z
M 52.59375 71.296875 
L 52.59375 62.3125 
Q 48.875 64.0625 45.09375 64.984375 
Q 41.3125 65.921875 37.59375 65.921875 
Q 27.828125 65.921875 22.671875 59.328125 
Q 17.53125 52.734375 16.796875 39.40625 
Q 19.671875 43.65625 24.015625 45.921875 
Q 28.375 48.1875 33.59375 48.1875 
Q 44.578125 48.1875 50.953125 41.515625 
Q 57.328125 34.859375 57.328125 23.390625 
Q 57.328125 12.15625 50.6875 5.359375 
Q 44.046875 -1.421875 33.015625 -1.421875 
Q 20.359375 -1.421875 13.671875 8.265625 
Q 6.984375 17.96875 6.984375 36.375 
Q 6.984375 53.65625 15.1875 63.9375 
Q 23.390625 74.21875 37.203125 74.21875 
Q 40.921875 74.21875 44.703125 73.484375 
Q 48.484375 72.75 52.59375 71.296875 
z
" id="DejaVuSans-54"/>
       </defs>
       <use xlink:href="#DejaVuSans-48"/>
       <use x="63.623047" xlink:href="#DejaVuSans-46"/>
       <use x="95.410156" xlink:href="#DejaVuSans-54"/>
      </g>
     </g>
    </g>
    <g id="ytick_5">
     <g id="line2d_55">
      <path clip-path="url(#pe23c6c48cc)" d="M 54 86.331429 
L 388.8 86.331429 
" style="fill:none;stroke:#ffffff;stroke-linecap:square;stroke-width:0.8;"/>
     </g>
     <g id="line2d_56">
      <g>
       <use style="fill:#555555;stroke:#555555;stroke-width:0.8;" x="54" xlink:href="#m514e526423" y="86.331429"/>
      </g>
     </g>
     <g id="text_11">
      <!-- 0.8 -->
      <g style="fill:#555555;" transform="translate(31.096875 90.130647)scale(0.1 -0.1)">
       <defs>
        <path d="M 31.78125 34.625 
Q 24.75 34.625 20.71875 30.859375 
Q 16.703125 27.09375 16.703125 20.515625 
Q 16.703125 13.921875 20.71875 10.15625 
Q 24.75 6.390625 31.78125 6.390625 
Q 38.8125 6.390625 42.859375 10.171875 
Q 46.921875 13.96875 46.921875 20.515625 
Q 46.921875 27.09375 42.890625 30.859375 
Q 38.875 34.625 31.78125 34.625 
z
M 21.921875 38.8125 
Q 15.578125 40.375 12.03125 44.71875 
Q 8.5 49.078125 8.5 55.328125 
Q 8.5 64.0625 14.71875 69.140625 
Q 20.953125 74.21875 31.78125 74.21875 
Q 42.671875 74.21875 48.875 69.140625 
Q 55.078125 64.0625 55.078125 55.328125 
Q 55.078125 49.078125 51.53125 44.71875 
Q 48 40.375 41.703125 38.8125 
Q 48.828125 37.15625 52.796875 32.3125 
Q 56.78125 27.484375 56.78125 20.515625 
Q 56.78125 9.90625 50.3125 4.234375 
Q 43.84375 -1.421875 31.78125 -1.421875 
Q 19.734375 -1.421875 13.25 4.234375 
Q 6.78125 9.90625 6.78125 20.515625 
Q 6.78125 27.484375 10.78125 32.3125 
Q 14.796875 37.15625 21.921875 38.8125 
z
M 18.3125 54.390625 
Q 18.3125 48.734375 21.84375 45.5625 
Q 25.390625 42.390625 31.78125 42.390625 
Q 38.140625 42.390625 41.71875 45.5625 
Q 45.3125 48.734375 45.3125 54.390625 
Q 45.3125 60.0625 41.71875 63.234375 
Q 38.140625 66.40625 31.78125 66.40625 
Q 25.390625 66.40625 21.84375 63.234375 
Q 18.3125 60.0625 18.3125 54.390625 
z
" id="DejaVuSans-56"/>
       </defs>
       <use xlink:href="#DejaVuSans-48"/>
       <use x="63.623047" xlink:href="#DejaVuSans-46"/>
       <use x="95.410156" xlink:href="#DejaVuSans-56"/>
      </g>
     </g>
    </g>
    <g id="ytick_6">
     <g id="line2d_57">
      <path clip-path="url(#pe23c6c48cc)" d="M 54 44.914286 
L 388.8 44.914286 
" style="fill:none;stroke:#ffffff;stroke-linecap:square;stroke-width:0.8;"/>
     </g>
     <g id="line2d_58">
      <g>
       <use style="fill:#555555;stroke:#555555;stroke-width:0.8;" x="54" xlink:href="#m514e526423" y="44.914286"/>
      </g>
     </g>
     <g id="text_12">
      <!-- 1.0 -->
      <g style="fill:#555555;" transform="translate(31.096875 48.713504)scale(0.1 -0.1)">
       <use xlink:href="#DejaVuSans-49"/>
       <use x="63.623047" xlink:href="#DejaVuSans-46"/>
       <use x="95.410156" xlink:href="#DejaVuSans-48"/>
      </g>
     </g>
    </g>
    <g id="text_13">
     <!-- Quantile -->
     <g style="fill:#555555;" transform="translate(24.60125 168.662813)rotate(-90)scale(0.12 -0.12)">
      <defs>
       <path d="M 39.40625 66.21875 
Q 28.65625 66.21875 22.328125 58.203125 
Q 16.015625 50.203125 16.015625 36.375 
Q 16.015625 22.609375 22.328125 14.59375 
Q 28.65625 6.59375 39.40625 6.59375 
Q 50.140625 6.59375 56.421875 14.59375 
Q 62.703125 22.609375 62.703125 36.375 
Q 62.703125 50.203125 56.421875 58.203125 
Q 50.140625 66.21875 39.40625 66.21875 
z
M 53.21875 1.3125 
L 66.21875 -12.890625 
L 54.296875 -12.890625 
L 43.5 -1.21875 
Q 41.890625 -1.3125 41.03125 -1.359375 
Q 40.1875 -1.421875 39.40625 -1.421875 
Q 24.03125 -1.421875 14.8125 8.859375 
Q 5.609375 19.140625 5.609375 36.375 
Q 5.609375 53.65625 14.8125 63.9375 
Q 24.03125 74.21875 39.40625 74.21875 
Q 54.734375 74.21875 63.90625 63.9375 
Q 73.09375 53.65625 73.09375 36.375 
Q 73.09375 23.6875 67.984375 14.640625 
Q 62.890625 5.609375 53.21875 1.3125 
z
" id="DejaVuSans-81"/>
       <path d="M 34.28125 27.484375 
Q 23.390625 27.484375 19.1875 25 
Q 14.984375 22.515625 14.984375 16.5 
Q 14.984375 11.71875 18.140625 8.90625 
Q 21.296875 6.109375 26.703125 6.109375 
Q 34.1875 6.109375 38.703125 11.40625 
Q 43.21875 16.703125 43.21875 25.484375 
L 43.21875 27.484375 
z
M 52.203125 31.203125 
L 52.203125 0 
L 43.21875 0 
L 43.21875 8.296875 
Q 40.140625 3.328125 35.546875 0.953125 
Q 30.953125 -1.421875 24.3125 -1.421875 
Q 15.921875 -1.421875 10.953125 3.296875 
Q 6 8.015625 6 15.921875 
Q 6 25.140625 12.171875 29.828125 
Q 18.359375 34.515625 30.609375 34.515625 
L 43.21875 34.515625 
L 43.21875 35.40625 
Q 43.21875 41.609375 39.140625 45 
Q 35.0625 48.390625 27.6875 48.390625 
Q 23 48.390625 18.546875 47.265625 
Q 14.109375 46.140625 10.015625 43.890625 
L 10.015625 52.203125 
Q 14.9375 54.109375 19.578125 55.046875 
Q 24.21875 56 28.609375 56 
Q 40.484375 56 46.34375 49.84375 
Q 52.203125 43.703125 52.203125 31.203125 
z
" id="DejaVuSans-97"/>
       <path d="M 9.421875 54.6875 
L 18.40625 54.6875 
L 18.40625 0 
L 9.421875 0 
z
M 9.421875 75.984375 
L 18.40625 75.984375 
L 18.40625 64.59375 
L 9.421875 64.59375 
z
" id="DejaVuSans-105"/>
       <path d="M 9.421875 75.984375 
L 18.40625 75.984375 
L 18.40625 0 
L 9.421875 0 
z
" id="DejaVuSans-108"/>
      </defs>
      <use xlink:href="#DejaVuSans-81"/>
      <use x="78.710938" xlink:href="#DejaVuSans-117"/>
      <use x="142.089844" xlink:href="#DejaVuSans-97"/>
      <use x="203.369141" xlink:href="#DejaVuSans-110"/>
      <use x="266.748047" xlink:href="#DejaVuSans-116"/>
      <use x="305.957031" xlink:href="#DejaVuSans-105"/>
      <use x="333.740234" xlink:href="#DejaVuSans-108"/>
      <use x="361.523438" xlink:href="#DejaVuSans-101"/>
     </g>
    </g>
   </g>
   <g id="PolyCollection_1">
    <path clip-path="url(#pe23c6c48cc)" d="M 69.942857 252 
L 69.942857 252 
L 69.942857 251.792707 
L 69.942857 251.585414 
L 69.942857 251.378121 
L 69.942857 251.170828 
L 69.942857 250.963535 
L 69.942857 250.756242 
L 69.942857 250.548949 
L 69.942857 250.341656 
L 69.942857 250.134363 
L 69.942857 249.92707 
L 69.942857 249.719777 
L 69.942857 249.512484 
L 69.942857 249.305191 
L 69.942857 249.097898 
L 69.942857 248.890605 
L 69.942857 248.683312 
L 69.942857 248.476019 
L 69.942857 248.268726 
L 69.942857 248.061433 
L 76.379485 247.85414 
L 83.519909 247.646847 
L 89.339191 247.439554 
L 91.819393 247.232261 
L 91.819393 247.024968 
L 91.819393 246.817675 
L 93.270382 246.610382 
L 97.644679 246.403089 
L 101.48585 246.195796 
L 104.616347 245.988503 
L 104.616347 245.78121 
L 104.616347 245.573917 
L 104.616347 245.366624 
L 104.616347 245.159331 
L 104.616347 244.952038 
L 104.616347 244.744745 
L 104.616347 244.537452 
L 104.616347 244.330159 
L 104.616347 244.122866 
L 104.616347 243.915573 
L 104.616347 243.70828 
L 104.616347 243.500987 
L 104.616347 243.293694 
L 104.616347 243.086401 
L 104.616347 242.879108 
L 104.710983 242.671815 
L 107.818195 242.464522 
L 110.646732 242.257229 
L 113.242491 242.049936 
L 113.69593 241.842643 
L 113.69593 241.63535 
L 113.69593 241.428057 
L 113.69593 241.220764 
L 113.69593 241.013471 
L 113.69593 240.806178 
L 113.69593 240.598885 
L 113.69593 240.391592 
L 113.69593 240.184299 
L 114.135158 239.977006 
L 116.469085 239.769713 
L 118.64224 239.56242 
L 120.675353 239.355127 
L 120.738601 239.147834 
L 120.738601 238.940541 
L 120.738601 238.733248 
L 122.18959 238.525955 
L 124.012681 238.318662 
L 125.736189 238.111369 
L 126.492883 237.904076 
L 126.492883 237.696782 
L 126.492883 237.489489 
L 126.492883 237.282196 
L 126.492883 237.074903 
L 126.492883 236.86761 
L 126.492883 236.660317 
L 126.492883 236.453024 
L 126.492883 236.245731 
L 126.492883 236.038438 
L 126.492883 235.831145 
L 126.492883 235.623852 
L 126.492883 235.416559 
L 126.492883 235.209266 
L 126.492883 235.001973 
L 126.492883 234.79468 
L 127.272982 234.587387 
L 128.831441 234.380094 
L 130.316554 234.172801 
L 131.358059 233.965508 
L 131.358059 233.758215 
L 131.358059 233.550922 
L 131.358059 233.343629 
L 131.358059 233.136336 
L 131.358059 232.929043 
L 131.358059 232.72175 
L 132.523268 232.514457 
L 133.847826 232.307164 
L 135.119028 232.099871 
L 135.572466 231.892578 
L 135.572466 231.685285 
L 135.572466 231.477992 
L 135.572466 231.270699 
L 135.572466 231.063406 
L 135.572466 230.856113 
L 135.828119 230.64882 
L 137.023455 230.441527 
L 138.175167 230.234234 
L 139.286326 230.026941 
L 139.289837 229.819648 
L 139.289837 229.612355 
L 139.289837 229.405062 
L 139.289837 229.197769 
L 139.289837 228.990476 
L 139.289837 228.783183 
L 139.908567 228.57589 
L 140.961324 228.368597 
L 141.980096 228.161304 
L 142.967008 227.954011 
L 143.923993 227.746718 
L 144.852813 227.539425 
L 145.623239 227.332132 
L 145.623239 227.124839 
L 145.623239 226.917546 
L 145.623239 226.710253 
L 146.448136 226.50296 
L 147.306527 226.295667 
L 148.142189 226.088374 
L 148.36942 225.881081 
L 148.36942 225.673788 
L 148.36942 225.466495 
L 148.36942 225.259202 
L 148.36942 225.051909 
L 148.36942 224.844616 
L 148.36942 224.637323 
L 148.36942 224.43003 
L 148.36942 224.222737 
L 148.440423 224.015444 
L 149.246969 223.808151 
L 150.033415 223.600858 
L 150.80074 223.393565 
L 150.895661 223.186272 
L 150.895661 222.978979 
L 150.895661 222.771686 
L 151.392356 222.564393 
L 152.127717 222.3571 
L 152.846334 222.149807 
L 153.234595 221.942514 
L 153.234595 221.735221 
L 153.234595 221.527928 
L 153.401146 221.320635 
L 154.091653 221.113342 
L 154.767377 220.906049 
L 155.412091 220.698756 
L 155.412091 220.491463 
L 155.412091 220.28417 
L 155.412091 220.076877 
L 155.412091 219.869584 
L 155.412091 219.662291 
L 155.412091 219.454998 
L 155.412091 219.247705 
L 155.412091 219.040412 
L 155.412091 218.833119 
L 155.917716 218.625826 
L 157.181306 218.418533 
L 158.396249 218.21124 
L 159.362386 218.003947 
L 159.362386 217.796654 
L 159.362386 217.589361 
L 159.362386 217.382068 
L 159.915039 217.174775 
L 160.477919 216.967482 
L 161.030936 216.760189 
L 161.166373 216.552896 
L 161.166373 216.345603 
L 161.166373 216.13831 
L 161.45987 215.931017 
L 161.996089 215.723724 
L 162.52335 215.516431 
L 162.872798 215.309138 
L 162.872798 215.101845 
L 162.872798 214.894552 
L 162.932601 214.687259 
L 163.444571 214.479966 
L 163.948368 214.272673 
L 164.444249 214.06538 
L 164.491674 213.858087 
L 164.491674 213.650794 
L 164.491674 213.443501 
L 164.491674 213.236208 
L 164.491674 213.028915 
L 164.491674 212.821622 
L 164.726167 212.614329 
L 165.210069 212.407036 
L 165.686664 212.199743 
L 166.156169 211.99245 
L 166.618792 211.785157 
L 167.074731 211.577864 
L 167.499775 211.370571 
L 167.499775 211.163278 
L 167.499775 210.955985 
L 167.499775 210.748692 
L 167.499775 210.541399 
L 167.499775 210.334106 
L 167.499775 210.126813 
L 167.499775 209.91952 
L 167.499775 209.712227 
L 167.499775 209.504934 
L 167.68591 209.29764 
L 168.126796 209.090347 
L 168.561609 208.883054 
L 169.16536 208.675761 
L 170.411384 208.468468 
L 171.610077 208.261175 
L 172.764906 208.053882 
L 173.514339 207.846589 
L 174.244069 207.639296 
L 174.957307 207.432003 
L 175.654783 207.22471 
L 176.337177 207.017417 
L 177.005129 206.810124 
L 177.474477 206.602831 
L 177.798397 206.395538 
L 178.119027 206.188245 
L 178.661069 205.980952 
L 179.588046 205.773659 
L 180.488573 205.566366 
L 181.280709 205.359073 
L 181.567996 205.15178 
L 181.852692 204.944487 
L 182.134842 204.737194 
L 182.414492 204.529901 
L 182.691687 204.322608 
L 182.966468 204.115315 
L 183.042909 203.908022 
L 183.042909 203.700729 
L 183.042909 203.493436 
L 183.319012 203.286143 
L 183.855525 203.07885 
L 184.383069 202.871557 
L 184.977967 202.664264 
L 185.738809 202.456971 
L 186.48174 202.249678 
L 187.227574 202.042385 
L 188.16952 201.835092 
L 189.084166 201.627799 
L 189.973051 201.420506 
L 190.463823 201.213213 
L 190.89238 201.00592 
L 191.315196 200.798627 
L 191.59552 200.591334 
L 191.802978 200.384041 
L 192.009081 200.176748 
L 192.395768 199.969455 
L 192.998761 199.762162 
L 193.590449 199.554869 
L 194.081065 199.347576 
L 194.272859 199.140283 
L 194.463495 198.93299 
L 194.657238 198.725697 
L 195.032791 198.518404 
L 195.403928 198.311111 
L 195.770751 198.103818 
L 195.839863 197.896525 
L 195.839863 197.689232 
L 195.839863 197.481939 
L 195.948495 197.274646 
L 196.129302 197.067353 
L 196.309079 196.86006 
L 196.761763 196.652767 
L 197.633186 196.445474 
L 198.481194 196.238181 
L 199.193585 196.030888 
L 199.35677 195.823595 
L 199.519117 195.616302 
L 199.680632 195.409009 
L 199.841326 195.201716 
L 200.001205 194.994423 
L 200.160278 194.78713 
L 200.200049 194.579837 
L 200.200049 194.372544 
L 200.200049 194.165251 
L 200.285031 193.957958 
L 200.442684 193.750665 
L 200.599553 193.543372 
L 200.705039 193.336079 
L 200.705039 193.128786 
L 200.705039 192.921493 
L 200.722585 192.7142 
L 200.878073 192.506907 
L 201.032798 192.299614 
L 201.186769 192.092321 
L 201.477308 191.885028 
L 201.780226 191.677735 
L 202.080264 191.470442 
L 202.580376 191.263149 
L 203.162813 191.055856 
L 203.734695 190.848563 
L 204.16365 190.64127 
L 204.44196 190.433977 
L 204.717838 190.226684 
L 205.277217 190.019391 
L 206.598423 189.812098 
L 207.866536 189.604805 
L 209.042562 189.397512 
L 209.399787 189.190219 
L 209.753013 188.982926 
L 210.10233 188.775633 
L 210.447822 188.56834 
L 210.789574 188.361047 
L 211.127665 188.153754 
L 211.462172 187.946461 
L 211.793171 187.739168 
L 212.120735 187.531875 
L 212.578438 187.324582 
L 213.214344 187.117289 
L 213.837691 186.909996 
L 214.367102 186.702703 
L 214.568777 186.49541 
L 214.769172 186.288117 
L 214.968303 186.080824 
L 215.068354 185.873531 
L 215.167137 185.666238 
L 215.265612 185.458945 
L 215.515952 185.251652 
L 215.807238 185.044359 
L 216.09586 184.837066 
L 216.381866 184.629773 
L 216.665304 184.42248 
L 216.946219 184.215187 
L 217.126453 184.007894 
L 217.126453 183.800601 
L 217.126453 183.593308 
L 217.15267 183.386015 
L 217.337359 183.178722 
L 217.520973 182.971429 
L 217.703525 182.764136 
L 217.969005 182.556843 
L 218.238601 182.34955 
L 218.505914 182.142257 
L 218.770981 181.934964 
L 219.033841 181.727671 
L 219.29453 181.520378 
L 219.466303 181.313085 
L 219.552255 181.105792 
L 219.637973 180.898498 
L 219.798309 180.691205 
L 220.137155 180.483912 
L 220.472402 180.276619 
L 220.777588 180.069326 
L 220.777588 179.862033 
L 220.777588 179.65474 
L 220.777588 179.447447 
L 221.416213 179.240154 
L 222.136148 179.032861 
L 222.840026 178.825568 
L 223.429115 178.618275 
L 223.95608 178.410982 
L 224.474392 178.203689 
L 224.823594 177.996396 
L 224.968524 177.789103 
L 225.112792 177.58181 
L 225.272985 177.374517 
L 225.487072 177.167224 
L 225.699716 176.959931 
L 225.912292 176.752638 
L 226.191727 176.545345 
L 226.46871 176.338052 
L 226.743283 176.130759 
L 226.795982 175.923466 
L 226.795982 175.716173 
L 226.795982 175.50888 
L 226.957917 175.301587 
L 227.228286 175.094294 
L 227.496358 174.887001 
L 227.762172 174.679708 
L 228.025766 174.472415 
L 228.287176 174.265122 
L 228.601394 174.057829 
L 229.176073 173.850536 
L 229.740474 173.643243 
L 230.294959 173.43595 
L 230.376348 173.228657 
L 230.437204 173.021364 
L 230.497942 172.814071 
L 230.558564 172.606778 
L 230.619069 172.399485 
L 230.679459 172.192192 
L 230.739733 171.984899 
L 230.799893 171.777606 
L 230.859938 171.570313 
L 230.977572 171.36302 
L 231.215731 171.155727 
L 231.452105 170.948434 
L 231.680333 170.741141 
L 231.855194 170.533848 
L 232.029091 170.326555 
L 232.202036 170.119262 
L 232.527548 169.911969 
L 232.867118 169.704676 
L 233.203074 169.497383 
L 233.45991 169.29009 
L 233.680117 169.082797 
L 233.898798 168.875504 
L 234.141539 168.668211 
L 234.410708 168.460918 
L 234.6776 168.253625 
L 234.901043 168.046332 
L 235.006424 167.839039 
L 235.111454 167.631746 
L 235.218656 167.424453 
L 235.375018 167.21716 
L 235.530609 167.009867 
L 235.685437 166.802574 
L 236.222651 166.595281 
L 236.824249 166.387988 
L 237.414593 166.180695 
L 237.994098 165.973402 
L 238.563154 165.766109 
L 239.122132 165.558816 
L 239.6527 165.351523 
L 240.148208 165.14423 
L 240.636057 164.936937 
L 241.021286 164.729644 
L 241.021286 164.522351 
L 241.021286 164.315058 
L 241.021286 164.107765 
L 241.405185 163.900472 
L 241.789381 163.693179 
L 242.168957 163.485886 
L 242.286149 163.278593 
L 242.327889 163.0713 
L 242.369573 162.864007 
L 242.481353 162.656714 
L 242.646956 162.449421 
L 242.811695 162.242128 
L 242.94692 162.034835 
L 243.028618 161.827542 
L 243.110105 161.620249 
L 243.225033 161.412956 
L 243.547721 161.205663 
L 243.867144 160.99837 
L 244.183366 160.791077 
L 244.279332 160.583784 
L 244.357657 160.376491 
L 244.435788 160.169198 
L 244.762785 159.961905 
L 245.184716 159.754612 
L 245.601081 159.547319 
L 245.80656 159.340026 
L 245.80656 159.132733 
L 245.80656 158.92544 
L 245.86057 158.718147 
L 246.046496 158.510854 
L 246.231333 158.303561 
L 246.412265 158.096268 
L 246.55852 157.888975 
L 246.704101 157.681682 
L 246.849013 157.474389 
L 247.487312 157.267096 
L 248.187905 157.059803 
L 248.873282 156.85251 
L 249.107852 156.645217 
L 249.107852 156.437924 
L 249.107852 156.230631 
L 249.29996 156.023338 
L 249.731768 155.816045 
L 250.157748 155.608752 
L 250.489946 155.401459 
L 250.522136 155.194166 
L 250.554294 154.986873 
L 250.592096 154.77958 
L 250.974996 154.572287 
L 251.353307 154.364994 
L 251.727136 154.157701 
L 251.849578 153.950408 
L 251.911216 153.743115 
L 251.972733 153.535822 
L 252.01598 153.328529 
L 252.046652 153.121236 
L 252.077294 152.913943 
L 252.131116 152.70665 
L 252.222707 152.499356 
L 252.314034 152.292063 
L 252.405096 152.08477 
L 252.495897 151.877477 
L 252.586438 151.670184 
L 252.676719 151.462891 
L 252.795346 151.255598 
L 252.914872 151.048305 
L 253.033947 150.841012 
L 253.196517 150.633719 
L 253.37338 150.426426 
L 253.549257 150.219133 
L 253.662408 150.01184 
L 253.720608 149.804547 
L 253.778701 149.597254 
L 253.845906 149.389961 
L 253.932661 149.182668 
L 254.019177 148.975375 
L 254.105457 148.768082 
L 254.191502 148.560789 
L 254.277313 148.353496 
L 254.362892 148.146203 
L 254.524334 147.93891 
L 254.693931 147.731617 
L 254.86262 147.524324 
L 255.04942 147.317031 
L 255.243941 147.109738 
L 255.43727 146.902445 
L 255.629422 146.695152 
L 255.820411 146.487859 
L 256.010252 146.280566 
L 256.185127 146.073273 
L 256.319287 145.86598 
L 256.45288 145.658687 
L 256.582324 145.451394 
L 256.635386 145.244101 
L 256.688358 145.036808 
L 256.741241 144.829515 
L 256.815994 144.622222 
L 256.894967 144.414929 
L 256.973742 144.207636 
L 257.052321 144.000343 
L 257.130705 143.79305 
L 257.208895 143.585757 
L 257.50879 143.378464 
L 258.121638 143.171171 
L 258.722812 142.963878 
L 259.264947 142.756585 
L 259.604564 142.549292 
L 259.940565 142.341999 
L 260.273026 142.134706 
L 260.440597 141.927413 
L 260.604653 141.72012 
L 260.76786 141.512827 
L 260.840831 141.305534 
L 260.8872 141.098241 
L 260.933501 140.890948 
L 261.031387 140.683655 
L 261.169455 140.476362 
L 261.306921 140.269069 
L 261.412158 140.061776 
L 261.457695 139.854483 
L 261.503167 139.64719 
L 261.554701 139.439897 
L 261.645301 139.232604 
L 261.735641 139.025311 
L 261.825724 138.818018 
L 262.121816 138.610725 
L 262.432186 138.403432 
L 262.739532 138.196139 
L 262.843397 137.988846 
L 262.865165 137.781553 
L 262.886917 137.57426 
L 263.070689 137.366967 
L 263.414708 137.159674 
L 263.755017 136.952381 
L 264.079714 136.745088 
L 264.3715 136.537795 
L 264.660614 136.330502 
L 264.953129 136.123209 
L 265.317622 135.915916 
L 265.677954 135.708623 
L 266.034219 135.50133 
L 266.436782 135.294037 
L 266.842234 135.086744 
L 267.242543 134.879451 
L 267.637837 134.672158 
L 268.028243 134.464865 
L 268.413877 134.257572 
L 268.707995 134.050279 
L 268.888304 133.842986 
L 269.067589 133.635693 
L 269.261862 133.4284 
L 269.509639 133.221107 
L 269.755485 133.013814 
L 269.997422 132.806521 
L 270.084096 132.599228 
L 270.170533 132.391935 
L 270.256733 132.184642 
L 270.287664 131.977349 
L 270.304859 131.770056 
L 270.322045 131.562763 
L 270.339221 131.35547 
L 270.356388 131.148177 
L 270.373546 130.940884 
L 270.410037 130.733591 
L 270.478495 130.526298 
L 270.546806 130.319005 
L 270.681892 130.111712 
L 271.153959 129.904419 
L 271.619069 129.697126 
L 272.077425 129.489833 
L 272.176555 129.28254 
L 272.257454 129.075247 
L 272.338146 128.867954 
L 272.406741 128.660661 
L 272.471007 128.453368 
L 272.535142 128.246075 
L 272.582284 128.038782 
L 272.614255 127.831489 
L 272.646194 127.624196 
L 272.6781 127.416903 
L 272.709974 127.20961 
L 272.741816 127.002317 
L 272.783439 126.795024 
L 272.91032 126.587731 
L 273.036693 126.380438 
L 273.162562 126.173145 
L 273.204239 125.965852 
L 273.235586 125.758559 
L 273.266903 125.551266 
L 273.393513 125.343973 
L 273.564514 125.13668 
L 273.734594 124.929387 
L 273.889457 124.722094 
L 274.027259 124.514801 
L 274.164462 124.307508 
L 274.270276 124.100215 
L 274.285433 123.892921 
L 274.300583 123.685628 
L 274.324584 123.478335 
L 274.550791 123.271042 
L 274.775389 123.063749 
L 274.998399 122.856456 
L 275.073053 122.649163 
L 275.117362 122.44187 
L 275.161608 122.234577 
L 275.205793 122.027284 
L 275.249916 121.819991 
L 275.293977 121.612698 
L 275.337977 121.405405 
L 275.381916 121.198112 
L 275.425794 120.990819 
L 275.466794 120.783526 
L 275.495974 120.576233 
L 275.525127 120.36894 
L 275.554253 120.161647 
L 275.569087 119.954354 
L 275.583633 119.747061 
L 275.598173 119.539768 
L 275.635029 119.332475 
L 275.678556 119.125182 
L 275.722024 118.917889 
L 275.925888 118.710596 
L 276.255042 118.503303 
L 276.580799 118.29601 
L 276.816735 118.088717 
L 276.886585 117.881424 
L 276.956281 117.674131 
L 277.018497 117.466838 
L 277.03239 117.259545 
L 277.046277 117.052252 
L 277.060158 116.844959 
L 277.163206 116.637666 
L 277.273675 116.430373 
L 277.383759 116.22308 
L 277.425603 116.015787 
L 277.439319 115.808494 
L 277.453028 115.601201 
L 277.493856 115.393908 
L 277.562226 115.186615 
L 277.630447 114.979322 
L 277.725449 114.772029 
L 277.888092 114.564736 
L 278.049902 114.357443 
L 278.219405 114.15015 
L 278.499091 113.942857 
L 278.776321 113.735564 
L 279.051137 113.528271 
L 279.234736 113.320978 
L 279.402691 113.113685 
L 279.569758 112.906392 
L 279.669953 112.699099 
L 279.733771 112.491806 
L 279.797461 112.284513 
L 280.031455 112.07722 
L 280.482933 111.869927 
L 280.928043 111.662634 
L 281.272803 111.455341 
L 281.284944 111.248048 
L 281.297081 111.040755 
L 281.31132 110.833462 
L 281.540937 110.626169 
L 281.768897 110.418876 
L 281.995221 110.211583 
L 282.059768 110.00429 
L 282.083449 109.796997 
L 282.107112 109.589704 
L 282.144587 109.382411 
L 282.191804 109.175118 
L 282.238951 108.967825 
L 282.299184 108.760532 
L 282.381365 108.553239 
L 282.463333 108.345946 
L 282.556338 108.138653 
L 282.707556 107.93136 
L 282.858052 107.724067 
L 283.007835 107.516774 
L 283.091732 107.309481 
L 283.171878 107.102188 
L 283.251821 106.894895 
L 283.272865 106.687602 
L 283.272865 106.480309 
L 283.272865 106.273016 
L 283.326586 106.065723 
L 283.42883 105.85843 
L 283.530745 105.651137 
L 283.628816 105.443844 
L 283.718851 105.236551 
L 283.808631 105.029258 
L 283.897041 104.821965 
L 283.97517 104.614672 
L 284.053106 104.407379 
L 284.13085 104.200086 
L 284.247659 103.992793 
L 284.368994 103.7855 
L 284.489864 103.578207 
L 284.639768 103.370914 
L 284.803073 103.163621 
L 284.965537 102.956328 
L 285.196764 102.749035 
L 285.506245 102.541742 
L 285.812721 102.334449 
L 286.06134 102.127156 
L 286.144705 101.919863 
L 286.227851 101.71257 
L 286.329148 101.505277 
L 286.882961 101.297984 
L 287.427223 101.090691 
L 287.962258 100.883398 
L 288.135088 100.676105 
L 288.232646 100.468812 
L 288.329903 100.261519 
L 288.474391 100.054226 
L 288.647908 99.846933 
L 288.820477 99.63964 
L 289.125595 99.432347 
L 289.623505 99.225054 
L 290.113681 99.017761 
L 290.563767 98.810468 
L 290.869883 98.603175 
L 291.173058 98.395882 
L 291.473349 98.188589 
L 291.642875 97.981296 
L 291.808558 97.774003 
L 291.973376 97.56671 
L 292.235987 97.359417 
L 292.526379 97.152124 
L 292.814123 96.944831 
L 293.020674 96.737538 
L 293.162638 96.530245 
L 293.303967 96.322952 
L 293.427773 96.115659 
L 293.518529 95.908366 
L 293.609024 95.701073 
L 293.702421 95.493779 
L 293.816884 95.286486 
L 293.930934 95.079193 
L 294.044573 94.8719 
L 294.246462 94.664607 
L 294.455092 94.457314 
L 294.662352 94.250021 
L 294.73457 94.042728 
L 294.75042 93.835435 
L 294.766263 93.628142 
L 294.902582 93.420849 
L 295.161726 93.213556 
L 295.418759 93.006263 
L 295.609073 92.79897 
L 295.632196 92.591677 
L 295.655303 92.384384 
L 295.692935 92.177091 
L 295.930435 91.969798 
L 296.16616 91.762505 
L 296.400138 91.555212 
L 296.453118 91.347919 
L 296.475632 91.140626 
L 296.498129 90.933333 
L 296.515793 90.72604 
L 296.530774 90.518747 
L 296.545748 90.311454 
L 296.58005 90.104161 
L 296.639809 89.896868 
L 296.699456 89.689575 
L 296.750861 89.482282 
L 296.773163 89.274989 
L 296.795449 89.067696 
L 296.817768 88.860403 
L 296.847438 88.65311 
L 296.877079 88.445817 
L 296.906693 88.238524 
L 297.587151 88.031231 
L 298.41626 87.823938 
L 299.224144 87.616645 
L 299.627011 87.409352 
L 299.748976 87.202059 
L 299.870471 86.994766 
L 299.951771 86.787473 
L 299.965207 86.58018 
L 299.978637 86.372887 
L 299.992061 86.165594 
L 300.00548 85.958301 
L 300.018893 85.751008 
L 300.032301 85.543715 
L 300.254011 85.336422 
L 300.486094 85.129129 
L 300.716483 84.921836 
L 300.782485 84.714543 
L 300.789029 84.50725 
L 300.795572 84.299957 
L 301.046477 84.092664 
L 301.516752 83.885371 
L 301.980122 83.678078 
L 302.323475 83.470785 
L 302.410616 83.263492 
L 302.497518 83.056199 
L 302.581795 82.848906 
L 302.643557 82.641613 
L 302.705198 82.43432 
L 302.766718 82.227027 
L 302.773832 82.019734 
L 302.773832 81.812441 
L 302.773832 81.605148 
L 302.835712 81.397855 
L 302.927568 81.190562 
L 303.019157 80.983269 
L 303.076919 80.775976 
L 303.095172 80.568683 
L 303.113414 80.36139 
L 303.187252 80.154097 
L 303.428913 79.946804 
L 303.668738 79.739511 
L 303.906335 79.532218 
L 304.130803 79.324925 
L 304.353685 79.117632 
L 304.575005 78.910339 
L 304.666427 78.703046 
L 304.730021 78.495753 
L 304.793486 78.28846 
L 305.112326 78.081167 
L 305.588015 77.873874 
L 306.056641 77.666581 
L 306.337294 77.459288 
L 306.342782 77.251995 
L 306.348269 77.044702 
L 306.510917 76.837409 
L 307.345847 76.630116 
L 308.159258 76.422823 
L 308.952231 76.21553 
L 309.397456 76.008237 
L 309.827894 75.800944 
L 310.25254 75.593651 
L 310.426319 75.386358 
L 310.522605 75.179065 
L 310.618599 74.971772 
L 310.785153 74.764479 
L 311.008418 74.557186 
L 311.230115 74.349893 
L 311.39506 74.1426 
L 311.451121 73.935307 
L 311.507083 73.728014 
L 311.598505 73.520721 
L 311.935845 73.313428 
L 312.269618 73.106135 
L 312.599898 72.898842 
L 312.947089 72.691549 
L 313.292414 72.484256 
L 313.634002 72.276963 
L 313.756731 72.06967 
L 313.787088 71.862377 
L 313.817416 71.655084 
L 313.930072 71.447791 
L 314.127942 71.240498 
L 314.32458 71.033205 
L 314.521171 70.825912 
L 314.71959 70.618619 
L 314.916769 70.411326 
L 315.103368 70.204033 
L 315.15322 69.99674 
L 315.202992 69.789447 
L 315.252687 69.582154 
L 315.42177 69.374861 
L 315.610533 69.167568 
L 315.798174 68.960275 
L 315.891434 68.752982 
L 315.931958 68.545689 
L 315.972431 68.338396 
L 316.08877 68.131103 
L 316.305631 67.92381 
L 316.521012 67.716517 
L 316.960374 67.509224 
L 318.19049 67.301931 
L 319.374455 67.094637 
L 320.512137 66.887344 
L 320.554143 66.680051 
L 320.596092 66.472758 
L 320.637986 66.265465 
L 320.674312 66.058172 
L 320.709141 65.850879 
L 320.743932 65.643586 
L 320.798781 65.436293 
L 320.868127 65.229 
L 320.937321 65.021707 
L 321.011419 64.814414 
L 321.094058 64.607121 
L 321.176481 64.399828 
L 321.318296 64.192535 
L 321.782642 63.985242 
L 322.240256 63.777949 
L 322.691329 63.570656 
L 323.142119 63.363363 
L 323.586929 63.15607 
L 324.025557 62.948777 
L 324.534791 62.741484 
L 325.063798 62.534191 
L 325.584084 62.326898 
L 325.972628 62.119605 
L 326.242529 61.912312 
L 326.510141 61.705019 
L 326.750927 61.497726 
L 326.934362 61.290433 
L 327.116737 61.08314 
L 327.281727 60.875847 
L 327.28738 60.668554 
L 327.293031 60.461261 
L 327.298682 60.253968 
L 328.10291 60.046675 
L 328.990853 59.839382 
L 329.854498 59.632089 
L 330.171642 59.424796 
L 330.22576 59.217503 
L 330.279786 59.01021 
L 330.506646 58.802917 
L 330.935018 58.595624 
L 331.357653 58.388331 
L 331.699729 58.181038 
L 331.807668 57.973745 
L 331.915239 57.766452 
L 332.028779 57.559159 
L 332.331307 57.351866 
L 332.630964 57.144573 
L 332.927801 56.93728 
L 333.576989 56.729987 
L 334.289002 56.522694 
L 334.985306 56.315401 
L 335.363538 56.108108 
L 335.542448 55.900815 
L 335.720349 55.693522 
L 335.878529 55.486229 
L 336.007422 55.278936 
L 336.135791 55.071643 
L 336.283121 54.86435 
L 336.516031 54.657057 
L 336.747234 54.449764 
L 336.976756 54.242471 
L 337.126356 54.035178 
L 337.272926 53.827885 
L 337.418818 53.620592 
L 337.653727 53.413299 
L 337.91514 53.206006 
L 338.174406 52.998713 
L 340.251196 52.79142 
L 343.5492 52.584127 
L 346.53495 52.376834 
L 349.335891 52.169541 
L 352.042609 51.962248 
L 354.53542 51.754955 
L 356.807479 51.547662 
L 358.669129 51.340369 
L 360.427059 51.133076 
L 362.092219 50.925783 
L 362.502761 50.71849 
L 362.791273 50.511197 
L 363.077171 50.303904 
L 364.808202 50.096611 
L 367.025802 49.889318 
L 369.097763 49.682025 
L 370.123578 49.474732 
L 370.145391 49.267439 
L 370.167189 49.060146 
L 370.265651 48.852853 
L 370.566156 48.64556 
L 370.863827 48.438267 
L 371.149212 48.230974 
L 371.286912 48.023681 
L 371.424014 47.816388 
L 371.560523 47.609095 
L 371.711126 47.401802 
L 371.863615 47.194509 
L 372.01537 46.987216 
L 372.905959 46.779923 
L 374.175391 46.57263 
L 375.395733 46.365337 
L 376.293086 46.158044 
L 376.795735 45.950751 
L 377.290505 45.743458 
L 378.544003 45.536165 
L 382.345145 45.328872 
L 385.737303 45.121579 
L 388.8 44.914286 
L 388.8 252 
L 388.8 252 
L 385.737303 252 
L 382.345145 252 
L 378.544003 252 
L 377.290505 252 
L 376.795735 252 
L 376.293086 252 
L 375.395733 252 
L 374.175391 252 
L 372.905959 252 
L 372.01537 252 
L 371.863615 252 
L 371.711126 252 
L 371.560523 252 
L 371.424014 252 
L 371.286912 252 
L 371.149212 252 
L 370.863827 252 
L 370.566156 252 
L 370.265651 252 
L 370.167189 252 
L 370.145391 252 
L 370.123578 252 
L 369.097763 252 
L 367.025802 252 
L 364.808202 252 
L 363.077171 252 
L 362.791273 252 
L 362.502761 252 
L 362.092219 252 
L 360.427059 252 
L 358.669129 252 
L 356.807479 252 
L 354.53542 252 
L 352.042609 252 
L 349.335891 252 
L 346.53495 252 
L 343.5492 252 
L 340.251196 252 
L 338.174406 252 
L 337.91514 252 
L 337.653727 252 
L 337.418818 252 
L 337.272926 252 
L 337.126356 252 
L 336.976756 252 
L 336.747234 252 
L 336.516031 252 
L 336.283121 252 
L 336.135791 252 
L 336.007422 252 
L 335.878529 252 
L 335.720349 252 
L 335.542448 252 
L 335.363538 252 
L 334.985306 252 
L 334.289002 252 
L 333.576989 252 
L 332.927801 252 
L 332.630964 252 
L 332.331307 252 
L 332.028779 252 
L 331.915239 252 
L 331.807668 252 
L 331.699729 252 
L 331.357653 252 
L 330.935018 252 
L 330.506646 252 
L 330.279786 252 
L 330.22576 252 
L 330.171642 252 
L 329.854498 252 
L 328.990853 252 
L 328.10291 252 
L 327.298682 252 
L 327.293031 252 
L 327.28738 252 
L 327.281727 252 
L 327.116737 252 
L 326.934362 252 
L 326.750927 252 
L 326.510141 252 
L 326.242529 252 
L 325.972628 252 
L 325.584084 252 
L 325.063798 252 
L 324.534791 252 
L 324.025557 252 
L 323.586929 252 
L 323.142119 252 
L 322.691329 252 
L 322.240256 252 
L 321.782642 252 
L 321.318296 252 
L 321.176481 252 
L 321.094058 252 
L 321.011419 252 
L 320.937321 252 
L 320.868127 252 
L 320.798781 252 
L 320.743932 252 
L 320.709141 252 
L 320.674312 252 
L 320.637986 252 
L 320.596092 252 
L 320.554143 252 
L 320.512137 252 
L 319.374455 252 
L 318.19049 252 
L 316.960374 252 
L 316.521012 252 
L 316.305631 252 
L 316.08877 252 
L 315.972431 252 
L 315.931958 252 
L 315.891434 252 
L 315.798174 252 
L 315.610533 252 
L 315.42177 252 
L 315.252687 252 
L 315.202992 252 
L 315.15322 252 
L 315.103368 252 
L 314.916769 252 
L 314.71959 252 
L 314.521171 252 
L 314.32458 252 
L 314.127942 252 
L 313.930072 252 
L 313.817416 252 
L 313.787088 252 
L 313.756731 252 
L 313.634002 252 
L 313.292414 252 
L 312.947089 252 
L 312.599898 252 
L 312.269618 252 
L 311.935845 252 
L 311.598505 252 
L 311.507083 252 
L 311.451121 252 
L 311.39506 252 
L 311.230115 252 
L 311.008418 252 
L 310.785153 252 
L 310.618599 252 
L 310.522605 252 
L 310.426319 252 
L 310.25254 252 
L 309.827894 252 
L 309.397456 252 
L 308.952231 252 
L 308.159258 252 
L 307.345847 252 
L 306.510917 252 
L 306.348269 252 
L 306.342782 252 
L 306.337294 252 
L 306.056641 252 
L 305.588015 252 
L 305.112326 252 
L 304.793486 252 
L 304.730021 252 
L 304.666427 252 
L 304.575005 252 
L 304.353685 252 
L 304.130803 252 
L 303.906335 252 
L 303.668738 252 
L 303.428913 252 
L 303.187252 252 
L 303.113414 252 
L 303.095172 252 
L 303.076919 252 
L 303.019157 252 
L 302.927568 252 
L 302.835712 252 
L 302.773832 252 
L 302.773832 252 
L 302.773832 252 
L 302.766718 252 
L 302.705198 252 
L 302.643557 252 
L 302.581795 252 
L 302.497518 252 
L 302.410616 252 
L 302.323475 252 
L 301.980122 252 
L 301.516752 252 
L 301.046477 252 
L 300.795572 252 
L 300.789029 252 
L 300.782485 252 
L 300.716483 252 
L 300.486094 252 
L 300.254011 252 
L 300.032301 252 
L 300.018893 252 
L 300.00548 252 
L 299.992061 252 
L 299.978637 252 
L 299.965207 252 
L 299.951771 252 
L 299.870471 252 
L 299.748976 252 
L 299.627011 252 
L 299.224144 252 
L 298.41626 252 
L 297.587151 252 
L 296.906693 252 
L 296.877079 252 
L 296.847438 252 
L 296.817768 252 
L 296.795449 252 
L 296.773163 252 
L 296.750861 252 
L 296.699456 252 
L 296.639809 252 
L 296.58005 252 
L 296.545748 252 
L 296.530774 252 
L 296.515793 252 
L 296.498129 252 
L 296.475632 252 
L 296.453118 252 
L 296.400138 252 
L 296.16616 252 
L 295.930435 252 
L 295.692935 252 
L 295.655303 252 
L 295.632196 252 
L 295.609073 252 
L 295.418759 252 
L 295.161726 252 
L 294.902582 252 
L 294.766263 252 
L 294.75042 252 
L 294.73457 252 
L 294.662352 252 
L 294.455092 252 
L 294.246462 252 
L 294.044573 252 
L 293.930934 252 
L 293.816884 252 
L 293.702421 252 
L 293.609024 252 
L 293.518529 252 
L 293.427773 252 
L 293.303967 252 
L 293.162638 252 
L 293.020674 252 
L 292.814123 252 
L 292.526379 252 
L 292.235987 252 
L 291.973376 252 
L 291.808558 252 
L 291.642875 252 
L 291.473349 252 
L 291.173058 252 
L 290.869883 252 
L 290.563767 252 
L 290.113681 252 
L 289.623505 252 
L 289.125595 252 
L 288.820477 252 
L 288.647908 252 
L 288.474391 252 
L 288.329903 252 
L 288.232646 252 
L 288.135088 252 
L 287.962258 252 
L 287.427223 252 
L 286.882961 252 
L 286.329148 252 
L 286.227851 252 
L 286.144705 252 
L 286.06134 252 
L 285.812721 252 
L 285.506245 252 
L 285.196764 252 
L 284.965537 252 
L 284.803073 252 
L 284.639768 252 
L 284.489864 252 
L 284.368994 252 
L 284.247659 252 
L 284.13085 252 
L 284.053106 252 
L 283.97517 252 
L 283.897041 252 
L 283.808631 252 
L 283.718851 252 
L 283.628816 252 
L 283.530745 252 
L 283.42883 252 
L 283.326586 252 
L 283.272865 252 
L 283.272865 252 
L 283.272865 252 
L 283.251821 252 
L 283.171878 252 
L 283.091732 252 
L 283.007835 252 
L 282.858052 252 
L 282.707556 252 
L 282.556338 252 
L 282.463333 252 
L 282.381365 252 
L 282.299184 252 
L 282.238951 252 
L 282.191804 252 
L 282.144587 252 
L 282.107112 252 
L 282.083449 252 
L 282.059768 252 
L 281.995221 252 
L 281.768897 252 
L 281.540937 252 
L 281.31132 252 
L 281.297081 252 
L 281.284944 252 
L 281.272803 252 
L 280.928043 252 
L 280.482933 252 
L 280.031455 252 
L 279.797461 252 
L 279.733771 252 
L 279.669953 252 
L 279.569758 252 
L 279.402691 252 
L 279.234736 252 
L 279.051137 252 
L 278.776321 252 
L 278.499091 252 
L 278.219405 252 
L 278.049902 252 
L 277.888092 252 
L 277.725449 252 
L 277.630447 252 
L 277.562226 252 
L 277.493856 252 
L 277.453028 252 
L 277.439319 252 
L 277.425603 252 
L 277.383759 252 
L 277.273675 252 
L 277.163206 252 
L 277.060158 252 
L 277.046277 252 
L 277.03239 252 
L 277.018497 252 
L 276.956281 252 
L 276.886585 252 
L 276.816735 252 
L 276.580799 252 
L 276.255042 252 
L 275.925888 252 
L 275.722024 252 
L 275.678556 252 
L 275.635029 252 
L 275.598173 252 
L 275.583633 252 
L 275.569087 252 
L 275.554253 252 
L 275.525127 252 
L 275.495974 252 
L 275.466794 252 
L 275.425794 252 
L 275.381916 252 
L 275.337977 252 
L 275.293977 252 
L 275.249916 252 
L 275.205793 252 
L 275.161608 252 
L 275.117362 252 
L 275.073053 252 
L 274.998399 252 
L 274.775389 252 
L 274.550791 252 
L 274.324584 252 
L 274.300583 252 
L 274.285433 252 
L 274.270276 252 
L 274.164462 252 
L 274.027259 252 
L 273.889457 252 
L 273.734594 252 
L 273.564514 252 
L 273.393513 252 
L 273.266903 252 
L 273.235586 252 
L 273.204239 252 
L 273.162562 252 
L 273.036693 252 
L 272.91032 252 
L 272.783439 252 
L 272.741816 252 
L 272.709974 252 
L 272.6781 252 
L 272.646194 252 
L 272.614255 252 
L 272.582284 252 
L 272.535142 252 
L 272.471007 252 
L 272.406741 252 
L 272.338146 252 
L 272.257454 252 
L 272.176555 252 
L 272.077425 252 
L 271.619069 252 
L 271.153959 252 
L 270.681892 252 
L 270.546806 252 
L 270.478495 252 
L 270.410037 252 
L 270.373546 252 
L 270.356388 252 
L 270.339221 252 
L 270.322045 252 
L 270.304859 252 
L 270.287664 252 
L 270.256733 252 
L 270.170533 252 
L 270.084096 252 
L 269.997422 252 
L 269.755485 252 
L 269.509639 252 
L 269.261862 252 
L 269.067589 252 
L 268.888304 252 
L 268.707995 252 
L 268.413877 252 
L 268.028243 252 
L 267.637837 252 
L 267.242543 252 
L 266.842234 252 
L 266.436782 252 
L 266.034219 252 
L 265.677954 252 
L 265.317622 252 
L 264.953129 252 
L 264.660614 252 
L 264.3715 252 
L 264.079714 252 
L 263.755017 252 
L 263.414708 252 
L 263.070689 252 
L 262.886917 252 
L 262.865165 252 
L 262.843397 252 
L 262.739532 252 
L 262.432186 252 
L 262.121816 252 
L 261.825724 252 
L 261.735641 252 
L 261.645301 252 
L 261.554701 252 
L 261.503167 252 
L 261.457695 252 
L 261.412158 252 
L 261.306921 252 
L 261.169455 252 
L 261.031387 252 
L 260.933501 252 
L 260.8872 252 
L 260.840831 252 
L 260.76786 252 
L 260.604653 252 
L 260.440597 252 
L 260.273026 252 
L 259.940565 252 
L 259.604564 252 
L 259.264947 252 
L 258.722812 252 
L 258.121638 252 
L 257.50879 252 
L 257.208895 252 
L 257.130705 252 
L 257.052321 252 
L 256.973742 252 
L 256.894967 252 
L 256.815994 252 
L 256.741241 252 
L 256.688358 252 
L 256.635386 252 
L 256.582324 252 
L 256.45288 252 
L 256.319287 252 
L 256.185127 252 
L 256.010252 252 
L 255.820411 252 
L 255.629422 252 
L 255.43727 252 
L 255.243941 252 
L 255.04942 252 
L 254.86262 252 
L 254.693931 252 
L 254.524334 252 
L 254.362892 252 
L 254.277313 252 
L 254.191502 252 
L 254.105457 252 
L 254.019177 252 
L 253.932661 252 
L 253.845906 252 
L 253.778701 252 
L 253.720608 252 
L 253.662408 252 
L 253.549257 252 
L 253.37338 252 
L 253.196517 252 
L 253.033947 252 
L 252.914872 252 
L 252.795346 252 
L 252.676719 252 
L 252.586438 252 
L 252.495897 252 
L 252.405096 252 
L 252.314034 252 
L 252.222707 252 
L 252.131116 252 
L 252.077294 252 
L 252.046652 252 
L 252.01598 252 
L 251.972733 252 
L 251.911216 252 
L 251.849578 252 
L 251.727136 252 
L 251.353307 252 
L 250.974996 252 
L 250.592096 252 
L 250.554294 252 
L 250.522136 252 
L 250.489946 252 
L 250.157748 252 
L 249.731768 252 
L 249.29996 252 
L 249.107852 252 
L 249.107852 252 
L 249.107852 252 
L 248.873282 252 
L 248.187905 252 
L 247.487312 252 
L 246.849013 252 
L 246.704101 252 
L 246.55852 252 
L 246.412265 252 
L 246.231333 252 
L 246.046496 252 
L 245.86057 252 
L 245.80656 252 
L 245.80656 252 
L 245.80656 252 
L 245.601081 252 
L 245.184716 252 
L 244.762785 252 
L 244.435788 252 
L 244.357657 252 
L 244.279332 252 
L 244.183366 252 
L 243.867144 252 
L 243.547721 252 
L 243.225033 252 
L 243.110105 252 
L 243.028618 252 
L 242.94692 252 
L 242.811695 252 
L 242.646956 252 
L 242.481353 252 
L 242.369573 252 
L 242.327889 252 
L 242.286149 252 
L 242.168957 252 
L 241.789381 252 
L 241.405185 252 
L 241.021286 252 
L 241.021286 252 
L 241.021286 252 
L 241.021286 252 
L 240.636057 252 
L 240.148208 252 
L 239.6527 252 
L 239.122132 252 
L 238.563154 252 
L 237.994098 252 
L 237.414593 252 
L 236.824249 252 
L 236.222651 252 
L 235.685437 252 
L 235.530609 252 
L 235.375018 252 
L 235.218656 252 
L 235.111454 252 
L 235.006424 252 
L 234.901043 252 
L 234.6776 252 
L 234.410708 252 
L 234.141539 252 
L 233.898798 252 
L 233.680117 252 
L 233.45991 252 
L 233.203074 252 
L 232.867118 252 
L 232.527548 252 
L 232.202036 252 
L 232.029091 252 
L 231.855194 252 
L 231.680333 252 
L 231.452105 252 
L 231.215731 252 
L 230.977572 252 
L 230.859938 252 
L 230.799893 252 
L 230.739733 252 
L 230.679459 252 
L 230.619069 252 
L 230.558564 252 
L 230.497942 252 
L 230.437204 252 
L 230.376348 252 
L 230.294959 252 
L 229.740474 252 
L 229.176073 252 
L 228.601394 252 
L 228.287176 252 
L 228.025766 252 
L 227.762172 252 
L 227.496358 252 
L 227.228286 252 
L 226.957917 252 
L 226.795982 252 
L 226.795982 252 
L 226.795982 252 
L 226.743283 252 
L 226.46871 252 
L 226.191727 252 
L 225.912292 252 
L 225.699716 252 
L 225.487072 252 
L 225.272985 252 
L 225.112792 252 
L 224.968524 252 
L 224.823594 252 
L 224.474392 252 
L 223.95608 252 
L 223.429115 252 
L 222.840026 252 
L 222.136148 252 
L 221.416213 252 
L 220.777588 252 
L 220.777588 252 
L 220.777588 252 
L 220.777588 252 
L 220.472402 252 
L 220.137155 252 
L 219.798309 252 
L 219.637973 252 
L 219.552255 252 
L 219.466303 252 
L 219.29453 252 
L 219.033841 252 
L 218.770981 252 
L 218.505914 252 
L 218.238601 252 
L 217.969005 252 
L 217.703525 252 
L 217.520973 252 
L 217.337359 252 
L 217.15267 252 
L 217.126453 252 
L 217.126453 252 
L 217.126453 252 
L 216.946219 252 
L 216.665304 252 
L 216.381866 252 
L 216.09586 252 
L 215.807238 252 
L 215.515952 252 
L 215.265612 252 
L 215.167137 252 
L 215.068354 252 
L 214.968303 252 
L 214.769172 252 
L 214.568777 252 
L 214.367102 252 
L 213.837691 252 
L 213.214344 252 
L 212.578438 252 
L 212.120735 252 
L 211.793171 252 
L 211.462172 252 
L 211.127665 252 
L 210.789574 252 
L 210.447822 252 
L 210.10233 252 
L 209.753013 252 
L 209.399787 252 
L 209.042562 252 
L 207.866536 252 
L 206.598423 252 
L 205.277217 252 
L 204.717838 252 
L 204.44196 252 
L 204.16365 252 
L 203.734695 252 
L 203.162813 252 
L 202.580376 252 
L 202.080264 252 
L 201.780226 252 
L 201.477308 252 
L 201.186769 252 
L 201.032798 252 
L 200.878073 252 
L 200.722585 252 
L 200.705039 252 
L 200.705039 252 
L 200.705039 252 
L 200.599553 252 
L 200.442684 252 
L 200.285031 252 
L 200.200049 252 
L 200.200049 252 
L 200.200049 252 
L 200.160278 252 
L 200.001205 252 
L 199.841326 252 
L 199.680632 252 
L 199.519117 252 
L 199.35677 252 
L 199.193585 252 
L 198.481194 252 
L 197.633186 252 
L 196.761763 252 
L 196.309079 252 
L 196.129302 252 
L 195.948495 252 
L 195.839863 252 
L 195.839863 252 
L 195.839863 252 
L 195.770751 252 
L 195.403928 252 
L 195.032791 252 
L 194.657238 252 
L 194.463495 252 
L 194.272859 252 
L 194.081065 252 
L 193.590449 252 
L 192.998761 252 
L 192.395768 252 
L 192.009081 252 
L 191.802978 252 
L 191.59552 252 
L 191.315196 252 
L 190.89238 252 
L 190.463823 252 
L 189.973051 252 
L 189.084166 252 
L 188.16952 252 
L 187.227574 252 
L 186.48174 252 
L 185.738809 252 
L 184.977967 252 
L 184.383069 252 
L 183.855525 252 
L 183.319012 252 
L 183.042909 252 
L 183.042909 252 
L 183.042909 252 
L 182.966468 252 
L 182.691687 252 
L 182.414492 252 
L 182.134842 252 
L 181.852692 252 
L 181.567996 252 
L 181.280709 252 
L 180.488573 252 
L 179.588046 252 
L 178.661069 252 
L 178.119027 252 
L 177.798397 252 
L 177.474477 252 
L 177.005129 252 
L 176.337177 252 
L 175.654783 252 
L 174.957307 252 
L 174.244069 252 
L 173.514339 252 
L 172.764906 252 
L 171.610077 252 
L 170.411384 252 
L 169.16536 252 
L 168.561609 252 
L 168.126796 252 
L 167.68591 252 
L 167.499775 252 
L 167.499775 252 
L 167.499775 252 
L 167.499775 252 
L 167.499775 252 
L 167.499775 252 
L 167.499775 252 
L 167.499775 252 
L 167.499775 252 
L 167.499775 252 
L 167.074731 252 
L 166.618792 252 
L 166.156169 252 
L 165.686664 252 
L 165.210069 252 
L 164.726167 252 
L 164.491674 252 
L 164.491674 252 
L 164.491674 252 
L 164.491674 252 
L 164.491674 252 
L 164.491674 252 
L 164.444249 252 
L 163.948368 252 
L 163.444571 252 
L 162.932601 252 
L 162.872798 252 
L 162.872798 252 
L 162.872798 252 
L 162.52335 252 
L 161.996089 252 
L 161.45987 252 
L 161.166373 252 
L 161.166373 252 
L 161.166373 252 
L 161.030936 252 
L 160.477919 252 
L 159.915039 252 
L 159.362386 252 
L 159.362386 252 
L 159.362386 252 
L 159.362386 252 
L 158.396249 252 
L 157.181306 252 
L 155.917716 252 
L 155.412091 252 
L 155.412091 252 
L 155.412091 252 
L 155.412091 252 
L 155.412091 252 
L 155.412091 252 
L 155.412091 252 
L 155.412091 252 
L 155.412091 252 
L 155.412091 252 
L 154.767377 252 
L 154.091653 252 
L 153.401146 252 
L 153.234595 252 
L 153.234595 252 
L 153.234595 252 
L 152.846334 252 
L 152.127717 252 
L 151.392356 252 
L 150.895661 252 
L 150.895661 252 
L 150.895661 252 
L 150.80074 252 
L 150.033415 252 
L 149.246969 252 
L 148.440423 252 
L 148.36942 252 
L 148.36942 252 
L 148.36942 252 
L 148.36942 252 
L 148.36942 252 
L 148.36942 252 
L 148.36942 252 
L 148.36942 252 
L 148.36942 252 
L 148.142189 252 
L 147.306527 252 
L 146.448136 252 
L 145.623239 252 
L 145.623239 252 
L 145.623239 252 
L 145.623239 252 
L 144.852813 252 
L 143.923993 252 
L 142.967008 252 
L 141.980096 252 
L 140.961324 252 
L 139.908567 252 
L 139.289837 252 
L 139.289837 252 
L 139.289837 252 
L 139.289837 252 
L 139.289837 252 
L 139.289837 252 
L 139.286326 252 
L 138.175167 252 
L 137.023455 252 
L 135.828119 252 
L 135.572466 252 
L 135.572466 252 
L 135.572466 252 
L 135.572466 252 
L 135.572466 252 
L 135.572466 252 
L 135.119028 252 
L 133.847826 252 
L 132.523268 252 
L 131.358059 252 
L 131.358059 252 
L 131.358059 252 
L 131.358059 252 
L 131.358059 252 
L 131.358059 252 
L 131.358059 252 
L 130.316554 252 
L 128.831441 252 
L 127.272982 252 
L 126.492883 252 
L 126.492883 252 
L 126.492883 252 
L 126.492883 252 
L 126.492883 252 
L 126.492883 252 
L 126.492883 252 
L 126.492883 252 
L 126.492883 252 
L 126.492883 252 
L 126.492883 252 
L 126.492883 252 
L 126.492883 252 
L 126.492883 252 
L 126.492883 252 
L 126.492883 252 
L 125.736189 252 
L 124.012681 252 
L 122.18959 252 
L 120.738601 252 
L 120.738601 252 
L 120.738601 252 
L 120.675353 252 
L 118.64224 252 
L 116.469085 252 
L 114.135158 252 
L 113.69593 252 
L 113.69593 252 
L 113.69593 252 
L 113.69593 252 
L 113.69593 252 
L 113.69593 252 
L 113.69593 252 
L 113.69593 252 
L 113.69593 252 
L 113.242491 252 
L 110.646732 252 
L 107.818195 252 
L 104.710983 252 
L 104.616347 252 
L 104.616347 252 
L 104.616347 252 
L 104.616347 252 
L 104.616347 252 
L 104.616347 252 
L 104.616347 252 
L 104.616347 252 
L 104.616347 252 
L 104.616347 252 
L 104.616347 252 
L 104.616347 252 
L 104.616347 252 
L 104.616347 252 
L 104.616347 252 
L 104.616347 252 
L 101.48585 252 
L 97.644679 252 
L 93.270382 252 
L 91.819393 252 
L 91.819393 252 
L 91.819393 252 
L 89.339191 252 
L 83.519909 252 
L 76.379485 252 
L 69.942857 252 
L 69.942857 252 
L 69.942857 252 
L 69.942857 252 
L 69.942857 252 
L 69.942857 252 
L 69.942857 252 
L 69.942857 252 
L 69.942857 252 
L 69.942857 252 
L 69.942857 252 
L 69.942857 252 
L 69.942857 252 
L 69.942857 252 
L 69.942857 252 
L 69.942857 252 
L 69.942857 252 
L 69.942857 252 
L 69.942857 252 
L 69.942857 252 
z
" style="fill:#e24a33;fill-opacity:0.2;"/>
   </g>
   <g id="line2d_59">
    <path clip-path="url(#pe23c6c48cc)" d="M 69.942857 252 
L 69.942857 248.061433 
L 89.339191 247.439554 
L 91.819393 247.232261 
L 91.819393 246.817675 
L 93.270382 246.610382 
L 104.616347 245.988503 
L 104.710983 242.671815 
L 113.242491 242.049936 
L 113.69593 241.842643 
L 113.69593 240.184299 
L 114.135158 239.977006 
L 120.675353 239.355127 
L 120.738601 238.940541 
L 120.738601 238.733248 
L 126.492883 237.904076 
L 126.492883 234.79468 
L 127.272982 234.587387 
L 131.358059 233.965508 
L 131.358059 232.72175 
L 135.572466 231.892578 
L 135.572466 230.856113 
L 135.828119 230.64882 
L 139.286326 230.026941 
L 139.289837 228.783183 
L 139.908567 228.57589 
L 144.852813 227.539425 
L 145.623239 227.332132 
L 145.623239 226.710253 
L 148.142189 226.088374 
L 148.36942 225.881081 
L 148.440423 224.015444 
L 150.80074 223.393565 
L 150.895661 222.978979 
L 150.895661 222.771686 
L 152.127717 222.3571 
L 153.234595 221.942514 
L 153.234595 221.527928 
L 153.401146 221.320635 
L 155.412091 220.698756 
L 155.412091 218.833119 
L 155.917716 218.625826 
L 159.362386 218.003947 
L 159.362386 217.382068 
L 161.030936 216.760189 
L 161.166373 216.552896 
L 161.166373 216.13831 
L 161.45987 215.931017 
L 162.872798 215.309138 
L 162.932601 214.687259 
L 164.444249 214.06538 
L 164.491674 213.443501 
L 164.491674 212.821622 
L 164.726167 212.614329 
L 167.499775 211.370571 
L 167.499775 209.504934 
L 167.68591 209.29764 
L 169.16536 208.675761 
L 173.514339 207.846589 
L 177.005129 206.810124 
L 177.798397 206.395538 
L 178.119027 206.188245 
L 178.661069 205.980952 
L 181.280709 205.359073 
L 182.966468 204.115315 
L 183.042909 203.700729 
L 183.042909 203.493436 
L 183.319012 203.286143 
L 185.738809 202.456971 
L 189.084166 201.627799 
L 190.463823 201.213213 
L 191.59552 200.591334 
L 192.009081 200.176748 
L 192.998761 199.762162 
L 194.081065 199.347576 
L 194.657238 198.725697 
L 195.770751 198.103818 
L 195.839863 197.689232 
L 195.948495 197.274646 
L 196.309079 196.86006 
L 196.761763 196.652767 
L 199.193585 196.030888 
L 200.200049 194.579837 
L 200.285031 193.957958 
L 200.705039 193.336079 
L 200.722585 192.7142 
L 201.477308 191.885028 
L 202.580376 191.263149 
L 204.16365 190.64127 
L 204.717838 190.226684 
L 205.277217 190.019391 
L 209.042562 189.397512 
L 212.578438 187.324582 
L 214.367102 186.702703 
L 215.068354 185.873531 
L 215.265612 185.458945 
L 216.665304 184.42248 
L 217.126453 184.007894 
L 217.15267 183.386015 
L 217.969005 182.556843 
L 219.466303 181.313085 
L 219.798309 180.691205 
L 220.777588 180.069326 
L 220.777588 179.447447 
L 224.474392 178.203689 
L 224.968524 177.789103 
L 225.487072 177.167224 
L 226.46871 176.338052 
L 226.743283 176.130759 
L 226.957917 175.301587 
L 228.601394 174.057829 
L 230.294959 173.43595 
L 230.679459 172.192192 
L 230.977572 171.36302 
L 232.029091 170.326555 
L 232.202036 170.119262 
L 233.680117 169.082797 
L 235.111454 167.631746 
L 235.530609 167.009867 
L 235.685437 166.802574 
L 241.021286 164.729644 
L 241.021286 164.107765 
L 242.168957 163.485886 
L 242.327889 163.0713 
L 242.481353 162.656714 
L 243.028618 161.827542 
L 243.225033 161.412956 
L 244.183366 160.791077 
L 244.435788 160.169198 
L 245.80656 159.340026 
L 245.86057 158.718147 
L 246.849013 157.474389 
L 249.107852 156.645217 
L 249.107852 156.230631 
L 249.29996 156.023338 
L 250.489946 155.401459 
L 250.592096 154.77958 
L 251.727136 154.157701 
L 251.972733 153.535822 
L 252.314034 152.292063 
L 253.033947 150.841012 
L 253.720608 149.804547 
L 254.105457 148.768082 
L 254.524334 147.93891 
L 256.635386 145.244101 
L 257.052321 144.000343 
L 257.208895 143.585757 
L 257.50879 143.378464 
L 259.264947 142.756585 
L 260.440597 141.927413 
L 260.840831 141.305534 
L 261.031387 140.683655 
L 261.457695 139.854483 
L 261.735641 139.025311 
L 261.825724 138.818018 
L 262.843397 137.988846 
L 262.886917 137.57426 
L 263.070689 137.366967 
L 269.067589 133.635693 
L 269.755485 133.013814 
L 270.084096 132.599228 
L 270.287664 131.977349 
L 270.478495 130.526298 
L 270.681892 130.111712 
L 272.077425 129.489833 
L 272.471007 128.453368 
L 272.6781 127.416903 
L 272.91032 126.587731 
L 273.204239 125.965852 
L 273.393513 125.343973 
L 274.164462 124.307508 
L 274.285433 123.892921 
L 274.324584 123.478335 
L 275.073053 122.649163 
L 275.583633 119.747061 
L 275.722024 118.917889 
L 276.255042 118.503303 
L 276.816735 118.088717 
L 277.03239 117.259545 
L 277.163206 116.637666 
L 277.425603 116.015787 
L 277.562226 115.186615 
L 277.725449 114.772029 
L 278.499091 113.942857 
L 279.234736 113.320978 
L 279.669953 112.699099 
L 279.797461 112.284513 
L 280.031455 112.07722 
L 281.272803 111.455341 
L 281.31132 110.833462 
L 281.995221 110.211583 
L 282.144587 109.382411 
L 282.463333 108.345946 
L 282.858052 107.724067 
L 283.171878 107.102188 
L 283.272865 106.687602 
L 283.326586 106.065723 
L 284.965537 102.956328 
L 285.812721 102.334449 
L 286.144705 101.919863 
L 286.329148 101.505277 
L 287.962258 100.883398 
L 288.232646 100.468812 
L 288.474391 100.054226 
L 289.125595 99.432347 
L 290.869883 98.603175 
L 291.642875 97.981296 
L 292.235987 97.359417 
L 293.020674 96.737538 
L 293.609024 95.701073 
L 294.044573 94.8719 
L 294.73457 94.042728 
L 294.766263 93.628142 
L 295.161726 93.213556 
L 295.609073 92.79897 
L 295.692935 92.177091 
L 296.400138 91.555212 
L 296.515793 90.72604 
L 296.699456 89.689575 
L 296.847438 88.65311 
L 296.906693 88.238524 
L 299.627011 87.409352 
L 299.951771 86.787473 
L 300.032301 85.543715 
L 300.782485 84.714543 
L 300.795572 84.299957 
L 301.046477 84.092664 
L 302.323475 83.470785 
L 302.766718 82.227027 
L 302.835712 81.397855 
L 303.095172 80.568683 
L 303.187252 80.154097 
L 304.575005 78.910339 
L 304.793486 78.28846 
L 305.588015 77.873874 
L 306.337294 77.459288 
L 306.348269 77.044702 
L 306.510917 76.837409 
L 309.397456 76.008237 
L 310.25254 75.593651 
L 310.522605 75.179065 
L 310.785153 74.764479 
L 311.39506 74.1426 
L 311.598505 73.520721 
L 313.756731 72.06967 
L 313.930072 71.447791 
L 315.103368 70.204033 
L 315.252687 69.582154 
L 315.891434 68.752982 
L 316.08877 68.131103 
L 316.521012 67.716517 
L 316.960374 67.509224 
L 320.512137 66.887344 
L 321.011419 64.814414 
L 321.318296 64.192535 
L 326.242529 61.912312 
L 326.934362 61.290433 
L 327.281727 60.875847 
L 327.298682 60.253968 
L 330.171642 59.424796 
L 330.279786 59.01021 
L 330.506646 58.802917 
L 331.699729 58.181038 
L 332.028779 57.559159 
L 332.927801 56.93728 
L 335.363538 56.108108 
L 336.135791 55.071643 
L 336.516031 54.657057 
L 337.126356 54.035178 
L 337.653727 53.413299 
L 338.174406 52.998713 
L 340.251196 52.79142 
L 352.042609 51.962248 
L 358.669129 51.340369 
L 362.092219 50.925783 
L 362.791273 50.511197 
L 363.077171 50.303904 
L 370.123578 49.474732 
L 370.265651 48.852853 
L 371.286912 48.023681 
L 372.01537 46.987216 
L 374.175391 46.57263 
L 376.293086 46.158044 
L 377.290505 45.743458 
L 378.544003 45.536165 
L 388.8 44.914286 
L 388.8 44.914286 
" style="fill:none;stroke:#e24a33;stroke-linecap:square;stroke-width:1.5;"/>
   </g>
   <g id="patch_3">
    <path d="M 54 252 
L 54 34.56 
" style="fill:none;stroke:#ffffff;stroke-linecap:square;stroke-linejoin:miter;"/>
   </g>
   <g id="patch_4">
    <path d="M 388.8 252 
L 388.8 34.56 
" style="fill:none;stroke:#ffffff;stroke-linecap:square;stroke-linejoin:miter;"/>
   </g>
   <g id="patch_5">
    <path d="M 54 252 
L 388.8 252 
" style="fill:none;stroke:#ffffff;stroke-linecap:square;stroke-linejoin:miter;"/>
   </g>
   <g id="patch_6">
    <path d="M 54 34.56 
L 388.8 34.56 
" style="fill:none;stroke:#ffffff;stroke-linecap:square;stroke-linejoin:miter;"/>
   </g>
  </g>
  <g id="text_14">
   <!-- Cumulative density function of log #comments -->
   <g transform="translate(74.1225 14.878125)scale(0.12 -0.12)">
    <defs>
     <path d="M 64.40625 67.28125 
L 64.40625 56.890625 
Q 59.421875 61.53125 53.78125 63.8125 
Q 48.140625 66.109375 41.796875 66.109375 
Q 29.296875 66.109375 22.65625 58.46875 
Q 16.015625 50.828125 16.015625 36.375 
Q 16.015625 21.96875 22.65625 14.328125 
Q 29.296875 6.6875 41.796875 6.6875 
Q 48.140625 6.6875 53.78125 8.984375 
Q 59.421875 11.28125 64.40625 15.921875 
L 64.40625 5.609375 
Q 59.234375 2.09375 53.4375 0.328125 
Q 47.65625 -1.421875 41.21875 -1.421875 
Q 24.65625 -1.421875 15.125 8.703125 
Q 5.609375 18.84375 5.609375 36.375 
Q 5.609375 53.953125 15.125 64.078125 
Q 24.65625 74.21875 41.21875 74.21875 
Q 47.75 74.21875 53.53125 72.484375 
Q 59.328125 70.75 64.40625 67.28125 
z
" id="DejaVuSans-67"/>
     <path d="M 2.984375 54.6875 
L 12.5 54.6875 
L 29.59375 8.796875 
L 46.6875 54.6875 
L 56.203125 54.6875 
L 35.6875 0 
L 23.484375 0 
z
" id="DejaVuSans-118"/>
     <path d="M 45.40625 46.390625 
L 45.40625 75.984375 
L 54.390625 75.984375 
L 54.390625 0 
L 45.40625 0 
L 45.40625 8.203125 
Q 42.578125 3.328125 38.25 0.953125 
Q 33.9375 -1.421875 27.875 -1.421875 
Q 17.96875 -1.421875 11.734375 6.484375 
Q 5.515625 14.40625 5.515625 27.296875 
Q 5.515625 40.1875 11.734375 48.09375 
Q 17.96875 56 27.875 56 
Q 33.9375 56 38.25 53.625 
Q 42.578125 51.265625 45.40625 46.390625 
z
M 14.796875 27.296875 
Q 14.796875 17.390625 18.875 11.75 
Q 22.953125 6.109375 30.078125 6.109375 
Q 37.203125 6.109375 41.296875 11.75 
Q 45.40625 17.390625 45.40625 27.296875 
Q 45.40625 37.203125 41.296875 42.84375 
Q 37.203125 48.484375 30.078125 48.484375 
Q 22.953125 48.484375 18.875 42.84375 
Q 14.796875 37.203125 14.796875 27.296875 
z
" id="DejaVuSans-100"/>
     <path d="M 32.171875 -5.078125 
Q 28.375 -14.84375 24.75 -17.8125 
Q 21.140625 -20.796875 15.09375 -20.796875 
L 7.90625 -20.796875 
L 7.90625 -13.28125 
L 13.1875 -13.28125 
Q 16.890625 -13.28125 18.9375 -11.515625 
Q 21 -9.765625 23.484375 -3.21875 
L 25.09375 0.875 
L 2.984375 54.6875 
L 12.5 54.6875 
L 29.59375 11.921875 
L 46.6875 54.6875 
L 56.203125 54.6875 
z
" id="DejaVuSans-121"/>
     <path d="M 51.125 44 
L 36.921875 44 
L 32.8125 27.6875 
L 47.125 27.6875 
z
M 43.796875 71.78125 
L 38.71875 51.515625 
L 52.984375 51.515625 
L 58.109375 71.78125 
L 65.921875 71.78125 
L 60.890625 51.515625 
L 76.125 51.515625 
L 76.125 44 
L 58.984375 44 
L 54.984375 27.6875 
L 70.515625 27.6875 
L 70.515625 20.21875 
L 53.078125 20.21875 
L 48 0 
L 40.1875 0 
L 45.21875 20.21875 
L 30.90625 20.21875 
L 25.875 0 
L 18.015625 0 
L 23.09375 20.21875 
L 7.71875 20.21875 
L 7.71875 27.6875 
L 24.90625 27.6875 
L 29 44 
L 13.28125 44 
L 13.28125 51.515625 
L 30.90625 51.515625 
L 35.890625 71.78125 
z
" id="DejaVuSans-35"/>
    </defs>
    <use xlink:href="#DejaVuSans-67"/>
    <use x="69.824219" xlink:href="#DejaVuSans-117"/>
    <use x="133.203125" xlink:href="#DejaVuSans-109"/>
    <use x="230.615234" xlink:href="#DejaVuSans-117"/>
    <use x="293.994141" xlink:href="#DejaVuSans-108"/>
    <use x="321.777344" xlink:href="#DejaVuSans-97"/>
    <use x="383.056641" xlink:href="#DejaVuSans-116"/>
    <use x="422.265625" xlink:href="#DejaVuSans-105"/>
    <use x="450.048828" xlink:href="#DejaVuSans-118"/>
    <use x="509.228516" xlink:href="#DejaVuSans-101"/>
    <use x="570.751953" xlink:href="#DejaVuSans-32"/>
    <use x="602.539062" xlink:href="#DejaVuSans-100"/>
    <use x="666.015625" xlink:href="#DejaVuSans-101"/>
    <use x="727.539062" xlink:href="#DejaVuSans-110"/>
    <use x="790.917969" xlink:href="#DejaVuSans-115"/>
    <use x="843.017578" xlink:href="#DejaVuSans-105"/>
    <use x="870.800781" xlink:href="#DejaVuSans-116"/>
    <use x="910.009766" xlink:href="#DejaVuSans-121"/>
    <use x="969.189453" xlink:href="#DejaVuSans-32"/>
    <use x="1000.976562" xlink:href="#DejaVuSans-102"/>
    <use x="1036.181641" xlink:href="#DejaVuSans-117"/>
    <use x="1099.560547" xlink:href="#DejaVuSans-110"/>
    <use x="1162.939453" xlink:href="#DejaVuSans-99"/>
    <use x="1217.919922" xlink:href="#DejaVuSans-116"/>
    <use x="1257.128906" xlink:href="#DejaVuSans-105"/>
    <use x="1284.912109" xlink:href="#DejaVuSans-111"/>
    <use x="1346.09375" xlink:href="#DejaVuSans-110"/>
    <use x="1409.472656" xlink:href="#DejaVuSans-32"/>
    <use x="1441.259766" xlink:href="#DejaVuSans-111"/>
    <use x="1502.441406" xlink:href="#DejaVuSans-102"/>
    <use x="1537.646484" xlink:href="#DejaVuSans-32"/>
    <use x="1569.433594" xlink:href="#DejaVuSans-108"/>
    <use x="1597.216797" xlink:href="#DejaVuSans-111"/>
    <use x="1658.398438" xlink:href="#DejaVuSans-103"/>
    <use x="1721.875" xlink:href="#DejaVuSans-32"/>
    <use x="1753.662109" xlink:href="#DejaVuSans-35"/>
    <use x="1837.451172" xlink:href="#DejaVuSans-99"/>
    <use x="1892.431641" xlink:href="#DejaVuSans-111"/>
    <use x="1953.613281" xlink:href="#DejaVuSans-109"/>
    <use x="2051.025391" xlink:href="#DejaVuSans-109"/>
    <use x="2148.4375" xlink:href="#DejaVuSans-101"/>
    <use x="2209.960938" xlink:href="#DejaVuSans-110"/>
    <use x="2273.339844" xlink:href="#DejaVuSans-116"/>
    <use x="2312.548828" xlink:href="#DejaVuSans-115"/>
   </g>
  </g>
 </g>
 <defs>
  <clipPath id="pe23c6c48cc">
   <rect height="217.44" width="334.8" x="54" y="34.56"/>
  </clipPath>
 </defs>
</svg>
